<svg width="25" height="24" viewBox="0 0 25 24" fill="none" xmlns="http://www.w3.org/2000/svg">
<path d="M22.5296 11H4.94357L10.2366 5.70702C10.3321 5.61477 10.4083 5.50443 10.4607 5.38242C10.5131 5.26042 10.5407 5.1292 10.5418 4.99642C10.543 4.86364 10.5177 4.73196 10.4674 4.60907C10.4171 4.48617 10.3429 4.37452 10.249 4.28062C10.1551 4.18673 10.0434 4.11248 9.92053 4.0622C9.79763 4.01192 9.66595 3.98662 9.53317 3.98777C9.40039 3.98892 9.26917 4.01651 9.14717 4.06892C9.02516 4.12133 8.91482 4.19751 8.82257 4.29302L1.82257 11.293C1.6351 11.4805 1.52979 11.7349 1.52979 12C1.52979 12.2652 1.6351 12.5195 1.82257 12.707L8.82257 19.707C9.01117 19.8892 9.26378 19.99 9.52597 19.9877C9.78817 19.9854 10.039 19.8802 10.2244 19.6948C10.4098 19.5094 10.515 19.2586 10.5172 18.9964C10.5195 18.7342 10.4187 18.4816 10.2366 18.293L4.94357 13H22.5296C22.7948 13 23.0491 12.8947 23.2367 12.7071C23.4242 12.5196 23.5296 12.2652 23.5296 12C23.5296 11.7348 23.4242 11.4804 23.2367 11.2929C23.0491 11.1054 22.7948 11 22.5296 11Z" fill="black"/>
</svg>
