<svg width="24" height="25" viewBox="0 0 24 25" fill="none" xmlns="http://www.w3.org/2000/svg">
<path d="M17.2292 18.6935H7.60417C6.71958 18.6935 6 17.9739 6 17.0893V2.88099C6 1.99641 6.71958 1.27682 7.60417 1.27682H17.2292C18.1138 1.27682 18.8333 1.99641 18.8333 2.88099V17.0893C18.8333 17.9739 18.1138 18.6935 17.2292 18.6935ZM7.60417 2.65182C7.47767 2.65182 7.375 2.75449 7.375 2.88099V17.0893C7.375 17.2158 7.47767 17.3185 7.60417 17.3185H17.2292C17.3557 17.3185 17.4583 17.2158 17.4583 17.0893V2.88099C17.4583 2.75449 17.3557 2.65182 17.2292 2.65182H7.60417Z" fill="black" fill-opacity="0.56"/>
<path d="M15.8542 16.4018H8.97919C8.59969 16.4018 8.29169 16.0938 8.29169 15.7143V4.25599C8.29169 3.87649 8.59969 3.56849 8.97919 3.56849H15.8542C16.2337 3.56849 16.5417 3.87649 16.5417 4.25599V15.7143C16.5417 16.0938 16.2337 16.4018 15.8542 16.4018ZM9.66669 15.0268H15.1667V4.94349H9.66669V15.0268Z" fill="black" fill-opacity="0.56"/>
<path d="M17.2292 23.2768H7.60419C7.22469 23.2768 6.91669 22.9688 6.91669 22.5893C6.91669 21.1987 8.04694 20.0685 9.43752 20.0685H15.3959C16.7864 20.0685 17.9167 21.1987 17.9167 22.5893C17.9167 22.9688 17.6087 23.2768 17.2292 23.2768ZM8.52177 21.9018H16.3116C16.1026 21.6241 15.7699 21.4435 15.3959 21.4435H9.43752C9.06352 21.4435 8.73077 21.6241 8.52177 21.9018Z" fill="black" fill-opacity="0.56"/>
<path d="M15.3958 21.4435H9.4375C9.058 21.4435 8.75 21.1355 8.75 20.756V18.006C8.75 17.6265 9.058 17.3185 9.4375 17.3185H15.3958C15.7753 17.3185 16.0833 17.6265 16.0833 18.006V20.756C16.0833 21.1355 15.7753 21.4435 15.3958 21.4435ZM10.125 20.0685H14.7083V18.6935H10.125V20.0685Z" fill="black" fill-opacity="0.56"/>
</svg>
