<svg width="18" height="18" viewBox="0 0 18 18" fill="none" xmlns="http://www.w3.org/2000/svg">
<path d="M11.0239 6.97599L6.97593 11.024C6.45593 10.504 6.13593 9.79199 6.13593 8.99999C6.13593 7.41599 7.41593 6.13599 8.99993 6.13599C9.79193 6.13599 10.5039 6.45599 11.0239 6.97599Z" stroke="black" stroke-width="1.5" stroke-linecap="round" stroke-linejoin="round"/>
<path d="M13.6559 4.01603C12.2559 2.96003 10.6559 2.38403 8.99987 2.38403C6.17587 2.38403 3.54387 4.04803 1.71187 6.92803C0.991875 8.05603 0.991875 9.95203 1.71187 11.08C2.34387 12.072 3.07987 12.928 3.87987 13.616" stroke="black" stroke-width="1.5" stroke-linecap="round" stroke-linejoin="round"/>
<path d="M6.13593 15.0239C7.04793 15.4079 8.01593 15.6159 8.99993 15.6159C11.8239 15.6159 14.4559 13.9519 16.2879 11.0719C17.0079 9.9439 17.0079 8.0479 16.2879 6.9199C16.0239 6.5039 15.7359 6.1119 15.4399 5.7439" stroke="black" stroke-width="1.5" stroke-linecap="round" stroke-linejoin="round"/>
<path d="M11.8076 9.55994C11.5996 10.6879 10.6796 11.6079 9.55157 11.8159" stroke="black" stroke-width="1.5" stroke-linecap="round" stroke-linejoin="round"/>
<path d="M6.976 11.024L1 17" stroke="black" stroke-width="1.5" stroke-linecap="round" stroke-linejoin="round"/>
<path d="M16.9994 1L11.0234 6.976" stroke="black" stroke-width="1.5" stroke-linecap="round" stroke-linejoin="round"/>
</svg>
