<svg width="25" height="24" viewBox="0 0 25 24" fill="none" xmlns="http://www.w3.org/2000/svg">
<path d="M14.333 9.3V12.2H16.933C17.133 12.2 17.233 12.4 17.233 12.6L16.833 14.5C16.833 14.6 16.633 14.7 16.533 14.7H14.333V22H11.333V14.8H9.63301C9.43301 14.8 9.33301 14.7 9.33301 14.5V12.6C9.33301 12.4 9.43301 12.3 9.63301 12.3H11.333V9C11.333 7.3 12.633 6 14.333 6H17.033C17.233 6 17.333 6.1 17.333 6.3V8.7C17.333 8.9 17.233 9 17.033 9H14.633C14.433 9 14.333 9.1 14.333 9.3Z" stroke="#3D5FA7" stroke-width="1.5" stroke-miterlimit="10" stroke-linecap="round"/>
<path d="M15.333 22H9.33301C4.33301 22 2.33301 20 2.33301 15V9C2.33301 4 4.33301 2 9.33301 2H15.333C20.333 2 22.333 4 22.333 9V15C22.333 20 20.333 22 15.333 22Z" stroke="#3D5FA7" stroke-width="1.5" stroke-linecap="round" stroke-linejoin="round"/>
</svg>
