<svg width="24" height="25" viewBox="0 0 24 25" fill="none" xmlns="http://www.w3.org/2000/svg">
<path d="M21.5609 11.0168L20.2109 9.43681C19.9609 9.13681 19.7509 8.57681 19.7509 8.17681V6.47681C19.7509 5.41681 18.8809 4.54681 17.8209 4.54681H16.1209C15.7209 4.54681 15.1509 4.33681 14.8509 4.08681L13.2709 2.73681C12.5809 2.14681 11.4509 2.14681 10.7609 2.73681L9.16086 4.08681C8.86086 4.33681 8.30086 4.54681 7.90086 4.54681H6.17086C5.11086 4.54681 4.24086 5.41681 4.24086 6.47681V8.17681C4.24086 8.56681 4.04086 9.12681 3.79086 9.42681L2.44086 11.0168C1.86086 11.7168 1.86086 12.8368 2.44086 13.5168L3.79086 15.1068C4.04086 15.3968 4.24086 15.9668 4.24086 16.3568V18.0668C4.24086 19.1268 5.11086 19.9968 6.17086 19.9968H7.91086C8.30086 19.9968 8.87086 20.2068 9.17086 20.4568L10.7509 21.8068C11.4409 22.3968 12.5709 22.3968 13.2609 21.8068L14.8409 20.4568C15.1409 20.2068 15.7009 19.9968 16.1009 19.9968H17.8009C18.8609 19.9968 19.7309 19.1268 19.7309 18.0668V16.3668C19.7309 15.9668 19.9409 15.4068 20.1909 15.1068L21.5409 13.5268C22.1509 12.8468 22.1509 11.7168 21.5609 11.0168ZM11.2509 8.40681C11.2509 7.99681 11.5909 7.65681 12.0009 7.65681C12.4109 7.65681 12.7509 7.99681 12.7509 8.40681V13.2368C12.7509 13.6468 12.4109 13.9868 12.0009 13.9868C11.5909 13.9868 11.2509 13.6468 11.2509 13.2368V8.40681ZM12.0009 17.1468C11.4509 17.1468 11.0009 16.6968 11.0009 16.1468C11.0009 15.5968 11.4409 15.1468 12.0009 15.1468C12.5509 15.1468 13.0009 15.5968 13.0009 16.1468C13.0009 16.6968 12.5609 17.1468 12.0009 17.1468Z" fill="#3D5FA7"/>
</svg>
