<svg width="25" height="24" viewBox="0 0 25 24" fill="none" xmlns="http://www.w3.org/2000/svg">
<path d="M9.33301 22H15.333C20.333 22 22.333 20 22.333 15V9C22.333 4 20.333 2 15.333 2H9.33301C4.33301 2 2.33301 4 2.33301 9V15C2.33301 20 4.33301 22 9.33301 22Z" stroke="#3D5FA7" stroke-width="1.5" stroke-linecap="round" stroke-linejoin="round"/>
<path d="M12.333 15.5C14.266 15.5 15.833 13.933 15.833 12C15.833 10.067 14.266 8.5 12.333 8.5C10.4 8.5 8.83301 10.067 8.83301 12C8.83301 13.933 10.4 15.5 12.333 15.5Z" stroke="#3D5FA7" stroke-width="1.5" stroke-linecap="round" stroke-linejoin="round"/>
<path d="M17.9691 7H17.9807" stroke="#3D5FA7" stroke-width="2" stroke-linecap="round" stroke-linejoin="round"/>
</svg>
