<svg width="20" height="20" viewBox="0 0 20 20" fill="none" xmlns="http://www.w3.org/2000/svg">
<path d="M18.201 0.625H2.46504C1.63301 0.625 0.958008 1.3 0.958008 2.13203V17.868C0.958008 18.7 1.63301 19.375 2.46504 19.375H18.201C19.033 19.375 19.708 18.7 19.708 17.868V2.13203C19.708 1.3 19.033 0.625 18.201 0.625ZM18.201 17.875C7.70566 17.8727 2.45801 17.8703 2.45801 17.868C2.46035 7.37266 2.4627 2.125 2.46504 2.125C12.9604 2.12734 18.208 2.12969 18.208 2.13203C18.2057 12.6273 18.2033 17.875 18.201 17.875ZM3.7377 7.65391H6.51973V16.6023H3.7377V7.65391ZM5.12988 6.43047C6.01816 6.43047 6.74238 5.70859 6.74238 4.81797C6.74238 4.60621 6.70067 4.39653 6.61964 4.20089C6.5386 4.00525 6.41983 3.82749 6.27009 3.67776C6.12036 3.52802 5.9426 3.40925 5.74696 3.32821C5.55132 3.24718 5.34164 3.20547 5.12988 3.20547C4.91813 3.20547 4.70844 3.24718 4.51281 3.32821C4.31717 3.40925 4.13941 3.52802 3.98967 3.67776C3.83994 3.82749 3.72116 4.00525 3.64013 4.20089C3.55909 4.39653 3.51738 4.60621 3.51738 4.81797C3.51504 5.70859 4.23691 6.43047 5.12988 6.43047ZM11.0432 12.175C11.0432 11.0078 11.2658 9.87812 12.7119 9.87812C14.1369 9.87812 14.158 11.2117 14.158 12.25V16.6023H16.9377V11.6945C16.9377 9.28516 16.4174 7.43125 13.6025 7.43125C12.2502 7.43125 11.3432 8.17422 10.9705 8.87734H10.933V7.65391H8.26348V16.6023H11.0432V12.175Z" fill="#3D5FA7"/>
</svg>
