<svg width="400" height="135" viewBox="0 0 400 135" fill="none" xmlns="http://www.w3.org/2000/svg">
<path d="M71.676 134.312H71.5718H71.676ZM69.8643 133.69L70.5365 134.042L70.8384 134.146L71.4136 134.308H71.41L70.8348 134.146L70.5365 134.042L69.8607 133.69L69.5084 133.496M76.9639 128.886L76.3456 129.777L75.8927 130.424L75.1198 131.495L74.7495 131.994L74.1097 132.778L73.8005 133.137L74.1061 132.778L74.7459 131.991L75.1126 131.495L75.8819 130.424L76.3312 129.774L77.1185 128.664M61.5603 126.867L61.5424 127.266L61.5783 127.449L61.679 127.805L61.5783 127.453L61.5424 127.273L61.5603 126.882L61.5819 126.673L61.5855 126.666M145.563 77.5217L144.193 79.6343L143.704 80.3529L142.953 81.8224L142.788 82.1889L142.522 82.9039L142.234 83.9459L142.126 84.4525L141.846 85.5411L141.695 86.0944L141.339 87.2514L140.965 88.4191L140.034 90.8407L139.549 92.0479L138.463 94.3798L138.186 94.9439L137.618 96.0217L136.756 97.52L136.328 98.2278L135.332 99.665L134.814 100.387L133.657 101.842L133.06 102.572L131.763 104.027L131.097 104.756L129.674 106.193L128.948 106.912L127.416 108.317L126.64 109.01L125.022 110.361L124.206 111.026L122.517 112.305L119.932 114.119L119.526 114.389L118.53 114.985L118.005 115.294L116.823 115.941L115.608 116.595L112.919 117.914L112.25 118.23L110.934 118.83L110.287 119.117L109.069 119.627L108.479 119.872L107.433 120.263L106.128 120.684L105.83 120.763L105.104 120.996L104.151 121.341L103.91 121.438L103.335 121.643L103.033 121.744L102.339 121.952L101.62 122.16L99.8985 122.581L98.9998 122.793L97.0155 123.199L95.9982 123.4L93.8701 123.777L92.8025 123.957L90.6528 124.277L89.5887 124.428L87.5433 124.672L86.5475 124.783L84.7286 124.931L84.2936 124.959L83.4884 124.999L82.392 125.02H82.0289L81.443 125.017H81.1698L80.7205 125.049L80.5047 125.074L80.1345 125.186L79.9548 125.254L79.6061 125.495L79.4946 125.581L79.527 125.545L79.5845 125.491L79.8038 125.254L79.9979 125.024L80.1129 124.88L80.6306 124.219L80.9433 123.795L81.6048 122.893L81.9642 122.39L82.6904 121.352L83.0535 120.82L84.2613 119.056L85.1492 117.77L85.5985 117.123L86.49 115.844L86.8998 115.262L87.6871 114.145L88.0034 113.699L88.9525 112.373L89.5564 111.525L89.8224 111.152L90.3256 110.44L90.5198 110.171L90.8613 109.689L90.9511 109.567L91.3825 108.967L91.8175 108.367L92.0871 108.001L92.6515 107.221L92.9642 106.797L93.5969 105.931L93.9168 105.493L94.8191 104.221L95.3475 103.434L95.5596 103.1L95.9407 102.478L96.0593 102.256L96.1635 102.051L96.1959 101.975L96.2426 101.846V101.81L96.142 101.573L95.9622 101.458L95.8113 101.418L95.459 101.35L95.2109 101.329L94.6645 101.303H94.3087L93.8198 101.311L94.9162 101.239L97.109 101.109L97.7381 101.073L98.8309 100.994L99.3557 100.951L100.247 100.854L100.668 100.804L101.376 100.685L101.707 100.621L102.249 100.473L102.501 100.394L102.893 100.211L103.073 100.118L103.335 99.8949L103.454 99.78L103.605 99.5105L103.727 99.0542L103.741 98.9177L103.698 98.5081L103.666 98.2889L103.536 97.7607L103.234 96.9308L103.414 97.3404L103.536 97.5847L103.766 98.0194L103.871 98.156L104.061 98.3823L104.148 98.4182L104.309 98.4434L104.381 98.3823L104.787 98.2099L105.273 98.0661L105.596 97.9835L106.29 97.8218L106.689 97.7356L107.512 97.5739L107.947 97.4985L110.607 96.9595L111.416 96.7655L111.75 96.6757L112.369 96.5068L112.57 96.4349L113.868 96.0721L114.285 95.9894L114.468 95.9607L114.806 95.9211L114.928 95.9176L115.331 95.8744L115.69 95.8062L115.91 95.7523L116.381 95.6301L116.65 95.5547L117.214 95.3894L117.527 95.2924L118.854 94.8684L119.609 94.6097L121.162 94.0636L121.985 93.7582L125.367 92.4755L126.964 91.8144L128.524 91.1569L129.225 90.8407L130.565 90.2263L131.112 89.9533L132.284 89.3353L133.118 88.8718L133.549 88.6203L135.303 87.5676L136.162 87.0178L137.845 85.9112L138.571 85.3938L139.272 84.8836L139.578 84.6501L140.156 84.1938L140.39 83.9926L141.325 83.3243L141.587 83.1949L141.688 83.1698L141.86 83.1374L141.907 83.1662L142.076 83.141L142.22 83.0225L142.299 82.9219L142.629 82.4189L142.78 82.056L143.09 81.4164L143.363 80.9098L143.521 80.6404L144.204 79.5373L144.535 79.0774L146.016 76.7456M19.9905 83.2596L20.2745 83.3854L20.429 83.4644L20.8101 83.7195L21.4931 84.2549L22.1509 84.8046L23.6068 85.8932L24.3545 86.4322L25.9686 87.4921L26.7954 88.0167L28.5604 89.0407L29.4591 89.5473L31.3535 90.5245L32.3133 91.0096L34.3228 91.9366L35.3401 92.3929L37.4467 93.2588L38.5107 93.6863L40.6963 94.484L44.0538 95.5942L44.8699 95.8493L46.2538 96.2553L46.9404 96.4529L48.3496 96.823L48.7234 96.92L49.5394 97.1176L49.9636 97.2218L50.9198 97.4446L51.4195 97.5631L52.5626 97.8254L54.5434 98.2709L55.1257 98.4039L56.5636 98.6805L57.3185 98.8242L59.0332 99.1153L59.9175 99.2626L61.8228 99.5536L62.7934 99.6973L64.7992 99.9776L66.8159 100.254L70.7701 100.718L71.7227 100.822L73.495 100.991L75.8747 101.181L76.4427 101.217L77.3989 101.311L77.8123 101.354L77.2731 101.357L76.7806 101.379L74.2067 101.483L69.5731 110.465L67.7433 114.022L67.179 115.122L66.9165 115.632L66.4097 116.624L66.1796 117.073L65.741 117.935L65.5505 118.305L65.1947 119.006L65.0509 119.29L64.7921 119.803L64.7022 119.983L64.5512 120.285L64.5224 120.346L64.0551 121.244L63.6813 121.895L63.5195 122.142L63.2283 122.649L62.9982 123.102L62.8724 123.368L62.4159 124.359L62.5022 124.129L62.6352 123.731L62.6927 123.544L62.761 123.281L62.7682 123.084L62.7574 123.077L62.6352 123.03L62.5561 122.998L62.3045 122.908L62.1643 122.857L61.7976 122.732L61.6035 122.667L61.1398 122.509L60.6545 122.347L59.4538 121.945L57.4192 121.28L56.1179 120.856L53.6554 119.965L52.444 119.512L50.1506 118.553L49.0218 118.064L46.8757 117.026L45.8189 116.494L43.7914 115.359L42.7957 114.777L40.8725 113.537L39.9199 112.901L38.0757 111.54L37.1627 110.843L35.3725 109.344L32.7303 106.937L31.9251 106.165L30.4333 104.602L29.7071 103.815L28.3555 102.212L27.7013 101.408L26.4862 99.7548L25.8967 98.9177L24.8147 97.2038L24.2898 96.3343L23.3264 94.5415L22.8627 93.636L22.0143 91.7533L21.6045 90.8012L20.864 88.8215L19.8647 85.7244L19.764 85.3759L19.6202 84.7974L19.5591 84.5243L19.498 84.0896L19.4764 83.8884L19.4944 83.5974L19.516 83.4716L19.6202 83.3207L19.6849 83.2632L19.879 83.2488M78.1646 118.532L77.8195 119.006L78.1646 118.528M73.1103 115.158L72.2548 116.814L71.827 117.641L72.0031 117.303L72.2584 116.811L73.2038 114.978M85.0018 109.032L84.5992 109.592L85.0126 109.017M90.0057 102.137L89.5132 102.615L89.2976 102.942L88.8194 103.646L88.3953 104.257L88.1257 104.641L87.5433 105.468L87.1838 105.974L86.4217 107.048L85.9652 107.684L85.3038 108.611L85.9904 107.652L86.4433 107.016L87.2054 105.945L87.5613 105.442L88.14 104.62L88.4096 104.232L88.8338 103.624L89.3119 102.917L89.5384 102.575L89.9841 102.112L90.1136 102.008L90.2466 101.939M79.5809 101.853L79.5989 101.903L79.5737 102.105L79.5486 102.227L79.394 102.64L79.3437 102.762L79.2142 103.06L79.1459 103.218L78.9698 103.603L78.8763 103.804L78.6463 104.282L78.524 104.537L78.2365 105.123L78.0855 105.428L78.0531 105.493L78.578 104.379L78.8296 103.818L79.0632 103.276L79.1603 103.042L79.3328 102.604L79.3976 102.432L79.5054 102.112L79.5342 102L79.5629 101.839M90.3508 101.889L90.4371 101.842L90.6168 101.767L90.6851 101.749M102.095 93.4564L102.091 93.5785L102.102 93.8516L102.145 94.0313L102.249 94.4265L102.336 94.6744L102.472 95.0409L102.408 94.8972L102.246 94.466L102.174 94.2612L102.095 93.9378L102.066 93.7869L102.073 93.5534L102.088 93.442L102.16 93.3198M103.321 92.8492L103.342 92.8456L104.69 92.6192M131.328 83.7303L130.195 84.359L127.877 85.595L126.629 86.1735L124.066 87.3017L122.697 87.8262L119.896 88.8502H119.889L122.689 87.8298L124.063 87.3053L126.622 86.1735L127.873 85.595L130.195 84.359L131.328 83.7267L133.409 82.3829L136.26 80.2451L133.405 82.3829M90.9583 53.0573L96.8681 53.1938L96.4619 53.2226L96.2426 53.2549L95.84 53.3196L95.7178 53.3591L95.5237 53.4382V53.4849L95.7286 53.643L96.0521 53.7687L96.2894 53.837L96.807 53.9735L97.1162 54.0382L97.7704 54.1675L98.1299 54.225L100.732 54.6957L102.573 55.0837L103.526 55.3065L107.386 56.2658L109.27 56.8155L111.136 57.3724L112.024 57.6599L113.76 58.2347L114.558 58.5222L116.097 59.0935L116.772 59.3737L118.052 59.9234L118.566 60.1821L121.492 61.7702L123.16 62.8086L123.854 63.3188L125.155 64.3356L125.669 64.8386L126.608 65.8446L126.942 66.3476L127.524 67.3536L127.682 67.8567L127.916 68.8699L127.902 69.3837L127.79 70.4112L127.607 70.9394L127.161 71.9957L126.813 72.5383L126.004 73.5766L125.31 74.288L124.897 74.6473L124.023 75.3695L123.523 75.7324L122.488 76.4546L121.913 76.8139L120.734 77.5253L120.094 77.8738L118.789 78.56L118.099 78.8906L116.686 79.5409L115.949 79.8499L114.45 80.4535L113.677 80.7338L112.315 81.1937L111.218 81.5314L110.607 81.711L108.015 82.4476L106.671 82.8033L105.33 83.1482L104.69 83.3063L103.436 83.6117L102.871 83.7411L101.786 83.9854L101.333 84.0752L100.499 84.2297L100.208 84.2692L99.3701 84.3914L98.9136 84.4704L98.7338 84.5171L98.4067 84.6106L98.2845 84.6645L98.0724 84.783L98.0041 84.8549L97.8962 85.013L97.8747 85.11L97.8567 85.3148L97.8783 85.4441L97.9394 85.7136L97.9969 85.8789L98.1119 86.1915L98.0328 85.9974L97.5691 85.0884L97.4505 84.8692L97.2168 84.4632L96.8969 83.9674L96.1923 82.9794H87.4642L85.4943 82.9614L85.0198 82.9578L84.1355 82.9398L83.7077 82.9326L82.9276 82.9147L82.5538 82.9039L81.9031 82.8823L81.5976 82.8716L81.0979 82.8428L80.8678 82.832L80.5407 82.8033L80.2675 82.7602L80.228 82.7422L80.0734 82.6201L79.9835 82.5446L79.7391 82.3147L79.6061 82.1853L79.2861 81.8584L79.1172 81.6823L78.7289 81.2691L78.3263 80.838L77.3773 79.778L75.8352 77.9995L75.5691 77.687L74.958 76.972L74.6381 76.5983L73.9407 75.7863L73.2253 74.9527L71.6329 73.1131L70.8276 72.1826L69.2028 70.3178L66.9453 67.7381L66.4384 67.1632L65.4966 66.0889L65.0365 65.5644L64.1809 64.5907L63.7675 64.1164L62.9947 63.2361L62.6208 62.805L61.9306 62.0145L61.5963 61.6301L60.9852 60.9259L60.6868 60.5845L60.1476 59.963L59.8888 59.6612L59.4179 59.1114L59.1914 58.8491L58.7888 58.3749L58.4005 57.9186L57.8074 57.2036L57.5414 56.8766L57.1639 56.3952L56.9986 56.1796L56.8081 55.8993L56.7002 55.6622V55.6191L56.8081 55.5221L56.8764 55.4718L57.0956 55.3748L58.0483 55.1304L58.2352 55.0981L58.6989 55.0191L58.9434 54.9759L59.4754 54.8753L61.0139 54.5735L61.3303 54.5089L62.06 54.3831L62.4447 54.3184L63.3038 54.1963L63.7496 54.1388L64.7273 54.0238L65.227 53.9663L66.3054 53.8585L67.409 53.7543L69.8715 53.5675L71.1368 53.4777L73.8508 53.3304L75.2276 53.2585L78.0963 53.1507L79.5378 53.104L82.4603 53.0429L83.9198 53.0178L86.7992 53.007M53.6087 56.0862L53.7094 56.1257L53.9502 56.2838L54.0832 56.3772L54.414 56.6682L54.5937 56.8335L55.0466 57.2898L55.2875 57.5377L55.8878 58.188L56.2077 58.5401L56.9842 59.4168L57.3976 59.8839L58.3826 61.0157L58.6414 61.3175L59.2058 61.9714L60.126 63.0385L60.7623 63.7787L62.2254 65.4709L62.9695 66.3332L64.5152 68.1117L65.2773 68.992L66.7152 70.6412L67.0603 71.0364L67.7002 71.7622L68.5558 72.7395L68.9404 73.1742L69.6522 73.9862L70.0045 74.385L70.6515 75.1288L71.2878 75.8545L72.377 77.1121L72.891 77.7085L73.7538 78.7253L74.1564 79.2068L74.8107 80.0044L75.109 80.3745L75.5727 80.9745L75.7812 81.2512L76.0688 81.6751L76.1946 81.8655L76.3276 82.135L76.3708 82.3901L76.3528 82.4404L76.2342 82.5374L76.1623 82.5805L75.9502 82.6632L75.7201 82.7422L75.1054 82.85L74.7855 82.8931L74.1528 82.9075L73.8544 82.8967L73.4159 82.7889L73.3907 82.7782L73.2361 82.7458L73.1427 82.7279L72.8659 82.6847L72.7113 82.6632L72.3231 82.6093L72.1146 82.5805L71.6293 82.5195L71.126 82.4548L69.8966 82.3111L67.844 82.0847L66.6326 81.959L64.3714 81.6931L63.2715 81.5601L61.2476 81.2907L60.2662 81.1541L58.4904 80.8811L57.6349 80.7445L56.1215 80.4679L55.3989 80.3314L54.1659 80.0547L53.5835 79.9182L52.6417 79.6487L52.2104 79.5122L51.5741 79.2499L50.9845 78.8654L50.9378 78.8151L50.7653 78.5924L50.6682 78.463L50.3986 78.0965L50.2548 77.8989L49.9025 77.4067L49.7192 77.148L49.3022 76.5516L48.8672 75.93L47.8463 74.4497L46.1963 72.0209L45.6283 71.1801L44.478 69.4807L43.9101 68.6435L42.8496 67.0842L42.5944 66.7105L42.1235 66.0207L41.8934 65.6865L41.4872 65.0937L41.2931 64.8134L40.9659 64.3392L40.5813 63.7858L40.3764 63.4948L40.0025 62.9128L39.8228 62.6289L39.5244 62.1079L39.3914 61.86L39.2045 61.4576L39.0859 61.0552V60.9438L39.298 60.6779L39.4346 60.5378L39.9127 60.2288L40.1823 60.0672L40.9084 59.7186L41.3002 59.539L42.26 59.1581L42.7669 58.9605L43.946 58.5545L44.5607 58.3461L45.9375 57.915L46.6529 57.6994L48.2166 57.2539L50.7545 56.5784L51.344 56.4275L52.3973 56.194L52.6345 56.1437L53.0012 56.0754L53.3427 56.0323H53.4218M36.5552 62.2229L36.7457 62.3559L36.8535 62.4421L37.1447 62.7547L37.3065 62.9379L37.7307 63.4733L37.9607 63.7715L38.5467 64.5655L38.863 65.0003L39.6431 66.0997L39.8516 66.3943L40.3081 67.0518L40.5418 67.3896L41.0594 68.1369L41.3254 68.5213L41.9042 69.3621L42.1989 69.7933L42.8424 70.7346L43.1731 71.2197L43.8885 72.2652L45.0388 73.9611L45.3156 74.3671L45.7865 75.0821L46.013 75.4234L46.3797 76.0126L46.5522 76.2929L46.8218 76.7672L46.944 76.9899L47.1166 77.3564L47.1921 77.5253L47.2747 77.7911L47.3035 77.9097L47.2927 78.0822L47.2783 78.1576L47.1813 78.2439L46.9476 78.287L46.8793 78.2834L46.5558 78.2115L46.3689 78.1648L45.862 78.0211L45.5888 77.9385L44.9561 77.7408L44.629 77.6367L43.9388 77.4067L43.4499 77.2414L42.4254 76.8426L41.9042 76.6378L40.8401 76.1743L39.7761 75.6965L37.6803 74.6258L37.1735 74.3527L36.2101 73.803L35.7427 73.5299L34.8872 72.9874L34.4738 72.7215L33.7584 72.2077L32.8813 71.4927L32.68 71.3095L32.3421 70.9861L32.1839 70.8352L31.9251 70.5657L31.6807 70.307L31.3895 69.8615L31.2673 69.6388L31.1522 69.1501L31.0875 68.2088L31.0839 67.8926L31.1235 67.3536L31.1558 67.0949L31.2744 66.6351L31.3499 66.4087L31.5692 65.9704L32.0329 65.2841L32.3241 64.9033L33.1042 64.138L33.514 63.7679L34.3911 63.1176L34.8225 62.8193L35.6133 62.4098L35.7931 62.3307L36.113 62.2337L36.4905 62.2121M146.641 75.5923L146.329 76.2067L146.235 76.3683L146.799 75.2617M148.212 71.0005L147.982 72.0999L147.849 72.6568L147.446 73.7994L147.224 74.3778L147.094 74.6473L147.36 73.9575L147.939 72.2796L148.108 71.4747L148.252 70.6053M146.677 62.5894L146.835 63.0205L146.411 62.0397M145.297 59.9594L145.814 60.8037L146.12 61.4361L145.739 60.7498L144.991 59.5031M141.558 55.3748L142.281 56.0466L143.579 57.5377L144.204 58.3066L144.369 58.5581L144.01 58.091L141.936 55.7484L141.335 55.1843M113.156 52.3064L114.598 52.7807L117.297 53.8046L118.609 54.3328L121.036 55.4538L122.211 56.0287L122.222 56.0359L121.054 55.4646L118.631 54.34L117.312 53.8154L114.612 52.7843L113.167 52.31L112.473 52.0944M101.477 52.0549L101.178 52.3459L101.16 52.3639L101.682 51.8501M134.793 50.2872L135.264 50.5961L134.624 50.1901M104.849 50.068L105.111 50.1003L105.765 50.2369L106.117 50.3159L106.276 50.359L106.146 50.3231L105.79 50.2476L105.129 50.1147L104.863 50.0824L104.367 50.0428L104.162 50.0608L103.777 50.1183L103.608 50.1866L103.59 50.1937L103.63 50.1758L103.795 50.1075L104.169 50.0464L104.367 50.0285M131.77 48.5733L132.755 49.1266L130.824 48.0991M127.334 46.4607L128.495 46.9673L129.764 47.5817L129.203 47.3194L126.852 46.2595M20.1882 17.3902L20.3176 17.4979L20.6735 17.8357L20.864 18.0225L21.3098 18.4932L22.0215 19.2944L22.1402 19.4381L22.4996 19.8513L22.6973 20.0777L23.1898 20.6454L23.4487 20.9472L24.0526 21.6442L24.3689 22.0035L25.0663 22.8011L25.7781 23.6239L27.3921 25.4635L29.9084 28.3379L30.5807 29.1032L31.7993 30.4936L32.3924 31.1691L33.4565 32.3835L33.9705 32.9728L34.8944 34.0255L35.3365 34.5321L36.1202 35.4339L36.4976 35.8687L37.1591 36.6304L37.4754 36.9968L38.0218 37.6364L38.2807 37.9418L38.7228 38.47L38.9313 38.7179L39.28 39.1454L39.4418 39.3466L39.7042 39.6844L39.8264 39.8425L40.0169 40.1047L40.1895 40.3491L40.3512 40.6688L40.4123 40.8054L40.4087 40.985L40.3081 41.2042L40.2614 41.2761L39.9917 41.4809L39.8336 41.5886L39.3842 41.8401L39.1434 41.9695L38.5718 42.2354L37.6408 42.6162L37.3208 42.7348L36.5947 43.0222L36.2244 43.1695L35.4659 43.4821L35.0921 43.6366L34.3947 43.9384L33.514 44.3336L33.0431 44.5564L32.2414 44.9265L31.864 45.0989L31.2277 45.3792L30.9294 45.5121L30.4369 45.7097L30.2068 45.7996L29.8294 45.9253L29.6532 45.9756L29.3728 46.0331L29.2434 46.0547L29.0313 46.0511L28.8336 46.0367L28.546 45.8535L28.5101 45.8247L28.3699 45.6666L28.2908 45.5696L28.0715 45.293L27.9529 45.1385L27.6689 44.7576L27.5179 44.5528L27.1764 44.0785L26.8205 43.5863L25.983 42.3899L24.6241 40.403L24.3941 40.058L23.88 39.2963L23.6176 38.9083L23.0568 38.0819L22.4924 37.2412L21.2954 35.477L20.7023 34.6004L19.5555 32.9117L19.2787 32.5057L18.7611 31.744L18.0529 30.702L17.7581 30.2709L17.2153 29.4732L16.9493 29.0852L16.464 28.3702L15.9895 27.6732L15.1987 26.5055L14.8284 25.9557L14.2245 25.0575L13.9441 24.6371L13.5055 23.9688L13.3042 23.6634L13.0059 23.1928L12.8729 22.9808L12.6931 22.6718L12.6176 22.5352L12.5313 22.3556L12.4846 22.1867V22.1508L12.6428 22.0107L12.7434 21.9352L13.067 21.734L13.2467 21.6262L13.6961 21.3855L14.4689 21.0154L14.7385 20.8897L15.3604 20.5484L15.6768 20.3687L16.3274 19.9519L16.6474 19.7399L17.2477 19.298L18.0134 18.6692L18.2255 18.4716L18.646 18.1087L18.8509 17.9363L19.2176 17.6524L19.3866 17.5195L19.6598 17.3434L19.915 17.2285H19.9617M123.725 44.9983L124.968 45.469L125.989 45.8966L125.051 45.5229L122.75 44.6462M119.875 43.651L121.197 44.0821L121.701 44.2654L120.568 43.8845L118.491 43.2198M11.2229 0.323666L11.6938 0.37756L12.5817 0.575172L13.0166 0.686553L13.8398 0.999139L14.2425 1.16801L15.0009 1.59557L15.3676 1.82552L16.0578 2.36446L16.3957 2.65189L17.0176 3.3094L17.3196 3.65073L17.8768 4.42322L18.6353 5.70949L18.779 5.98615L19.0091 6.63288L19.1134 6.97061L19.2751 7.71795L19.4153 8.47965L19.4872 10.1504L19.4908 10.9839L19.2787 12.5756L19.2104 12.9529L19.0163 13.6463L18.646 14.5517L18.3872 15.044L17.7438 15.9458L17.4023 16.3841L16.6114 17.171L16.2052 17.5518L15.3029 18.2093L14.8392 18.5183L13.8578 19.0321L13.3581 19.2693L12.3229 19.625L11.798 19.7831L10.7412 19.9627L10.2127 20.031L9.16305 20.0238L8.64181 19.995L7.63168 19.7866L7.18234 19.6681L6.34116 19.3663L5.93136 19.2082L5.17287 18.8201L4.80261 18.6189L4.116 18.1447L3.78528 17.9004L3.18136 17.3399L2.8866 17.0524L2.35816 16.4057L2.10293 16.0751L1.6464 15.3422L1.43071 14.9649L1.05326 14.1421L0.567971 12.8127L0.478104 12.5145L0.330717 12.0187L0.262415 11.7852L0.161763 11.3863L0.0682999 11.0019L0.0071836 10.3731L0 10.0605L0.100652 9.3707L0.136597 9.18027L0.237249 8.74193L0.427777 7.96227L0.582347 7.34428L0.988557 6.2161L1.20784 5.66997L1.73986 4.68191L2.02385 4.20764L2.67451 3.3633L3.01601 2.96089L3.7781 2.26745L4.17711 1.94049L5.05065 1.40155L5.49999 1.15004L6.47776 0.769191L6.97743 0.600322L8.05227 0.381153L9.76697 0.244621L10.2666 0.241028L11.2229 0.323666Z" fill="#3D5FA7"/>
<path d="M68.6876 132.976L68.3928 132.786L67.8284 132.427L67.5552 132.254L67.0771 131.956L66.8506 131.819L66.5055 131.615L66.2072 131.449L65.8441 131.295L64.9526 130.767L64.4961 130.476L63.5794 129.8L63.1409 129.459L62.4147 128.801L62.2529 128.647L62.0085 128.37L61.7748 128.022L61.6814 127.817L61.5771 127.45L61.5412 127.267L61.5591 126.868L61.5843 126.656L61.7389 126.121L62.1343 125.05L62.3536 124.497L62.8712 123.369L62.997 123.103L63.2271 122.65L63.5183 122.144L63.6801 121.896L64.0539 121.245L64.5212 120.347L64.55 120.286L64.701 119.984L64.7908 119.805L65.0497 119.291L65.1935 119.007L65.5493 118.306L65.7399 117.936L66.1784 117.074L66.4085 116.625L66.9154 115.633L67.1778 115.123L67.7421 114.023L69.5719 110.466L74.2055 101.484L76.7794 101.38L77.2719 101.358L78.0232 101.351L78.3611 101.358L78.8464 101.405L79.0621 101.437L79.3317 101.545L79.5509 101.782L79.5653 101.818L79.533 102.001L79.5042 102.113L79.3964 102.433L79.3317 102.605L79.1591 103.043L79.0621 103.277L78.8284 103.819L78.5768 104.38L77.9333 105.742L76.8081 107.998L76.6068 108.39L76.1539 109.263L75.9238 109.708L75.4278 110.671L74.9245 111.649L73.8461 113.736L73.3068 114.778L72.2572 116.812L72.0019 117.304L71.5202 118.234L70.8552 119.521L70.4418 120.322L69.6869 121.827L69.3238 122.55L68.7271 123.796L68.5905 124.087L68.3604 124.594L68.249 124.831L68.0801 125.226L68.0046 125.41L67.9039 125.672L67.8428 125.905V125.992L67.9363 126.193L67.9938 126.297L68.1843 126.516L68.3964 126.739L69.0075 127.17L69.3274 127.371L70.0033 127.666L70.165 127.723L70.467 127.792L70.8588 127.81L70.9091 127.802L71.114 127.637L71.2327 127.533L71.567 127.181L71.7467 126.98L72.196 126.448L72.4369 126.16L73.0013 125.46L73.2961 125.086L73.9611 124.224L74.3062 123.771L75.0719 122.758L75.4637 122.23L76.3157 121.073L77.6889 119.19L78.1634 118.533L79.0585 117.286L79.5006 116.679L80.3274 115.529L80.7336 114.965L81.4957 113.908L81.8696 113.391L82.5669 112.421L82.9085 111.947L83.5447 111.059L83.8575 110.625L84.4362 109.82L85.0006 109.033L85.964 107.686L86.4205 107.05L87.1826 105.975L87.5421 105.469L88.1245 104.642L88.3941 104.258L88.8183 103.647L89.2964 102.943L89.512 102.616L90.0045 102.138L90.2705 101.922L90.9535 101.635L91.1441 101.574L91.579 101.48L91.8055 101.437L92.3303 101.376L92.6035 101.351L93.2326 101.322L94.3075 101.304H94.6633L95.2097 101.33L95.4578 101.351L95.8101 101.419L95.9611 101.459L96.1408 101.574L96.2414 101.811V101.847L96.1947 101.976L96.1623 102.052L96.0581 102.257L95.9395 102.479L95.5584 103.101L95.3463 103.435L94.8179 104.222L93.9156 105.494L93.5957 105.932L92.963 106.798L92.6503 107.222L92.0859 108.002L91.8163 108.368L91.3813 108.968L90.9499 109.568L90.8601 109.69L90.5186 110.172L90.3245 110.441L89.8212 111.153L89.5552 111.526L88.9512 112.374L88.0022 113.7L87.6859 114.146L86.8986 115.263L86.4888 115.845L85.5973 117.124L85.148 117.771L84.2601 119.057L83.0522 120.821L82.6892 121.353L81.963 122.391L81.6036 122.894L80.9421 123.796L80.6294 124.22L80.1117 124.881L79.9967 125.025L79.8026 125.255L79.5833 125.492L79.5258 125.546L79.3676 125.719L79.2813 125.819L79.0728 126.071L78.85 126.344L78.2892 127.073L77.9944 127.461L77.3402 128.356L76.33 129.775L75.8807 130.425L75.1114 131.496L74.7448 131.992L74.1049 132.779L73.7993 133.138L73.2421 133.659L72.9725 133.885L72.4585 134.158L72.1996 134.266L71.6784 134.313L71.4124 134.309L70.8372 134.148L70.5353 134.043L69.8631 133.691L69.5072 133.497M103.133 96.6875L102.953 96.2599L102.665 95.5485L102.532 95.2144L102.335 94.6754L102.248 94.4275L102.144 94.0323L102.101 93.8527L102.09 93.5796L102.094 93.4574L102.176 93.2778L102.23 93.1952L102.406 93.0838L102.507 93.0299L102.78 92.9544L103.305 92.8538L105.167 92.5412L108.708 91.8334L110.448 91.4669L113.741 90.6549L115.355 90.2382L118.4 89.322L119.895 88.8513L122.695 87.8273L124.065 87.3027L126.628 86.1745L127.875 85.5961L130.194 84.3601L131.326 83.7313L133.404 82.384L136.258 80.2462L136.718 79.8653L137.603 79.0174L138.038 78.5791L138.857 77.6449L139.256 77.167L139.997 76.1754L140.353 75.6724L140.993 74.6556L141.298 74.1454L141.816 73.1321L142.06 72.6327L142.441 71.659L142.61 71.1812L142.837 70.2758L142.973 69.0326V68.8278L142.916 68.3428L142.876 68.0912L142.747 67.5308L142.603 66.9559L142.15 65.684L141.899 65.0444L141.295 63.7977L140.306 62.1773L139.781 61.4694L138.523 60.0754L137.862 59.3855L136.334 58.0454L135.536 57.3771L133.753 56.0944L132.833 55.4585L130.816 54.2404L129.781 53.644L127.545 52.505L126.402 51.9445L123.971 50.8954L122.731 50.3852L120.118 49.4331L116.013 48.1324L115.272 47.9205L113.845 47.4929L113.518 47.3923L112.979 47.2234L112.418 47.0402L112.296 46.9935L111.954 46.8965L111.774 46.8498L111.361 46.7492L110.081 46.4941L109.679 46.433L109.014 46.3036L108.704 46.239L108.223 46.0952L108.004 46.0198L107.694 45.8401L107.561 45.7431L107.421 45.5132L107.371 45.391L107.392 45.0892L107.421 44.9275L107.594 44.5431L107.702 44.3347L108.021 43.8425L108.661 42.9694L108.852 42.7179L109.19 42.3047L109.355 42.1107L109.675 41.8196L109.833 41.6867L110.182 41.5106L110.365 41.4352L110.793 41.3741L111.023 41.3561L111.584 41.4028L111.886 41.4388L112.626 41.5897L113.025 41.6795L114.003 41.931L115.783 42.4197L117.425 42.8795L120.567 43.8856L122.113 44.4066L125.05 45.524L126.491 46.0988L129.202 47.3204L130.528 47.942L132.994 49.2534L134.195 49.9217L136.399 51.3158L137.466 52.02L139.389 53.4859L140.313 54.2261L141.934 55.7495L144.009 58.0921L144.631 58.9005L145.738 60.7509L146.263 61.6994L147.118 63.6827L147.312 64.1785L147.643 65.1594L147.794 65.6445L148.035 66.5894L148.143 67.0565L148.279 67.9403L148.366 69.1727V69.8985L148.107 71.4758L147.938 72.2806L147.359 73.9585L147.032 74.8029L146.155 76.5203L144.534 79.0785L144.203 79.5384L143.52 80.6414L143.362 80.9109L143.088 81.4175L142.779 82.057L142.628 82.4199L142.298 82.9229L142.218 83.0235L142.075 83.1421L141.906 83.1672L141.859 83.1385L141.686 83.1708L141.586 83.196L141.323 83.3253L140.389 83.9936L140.155 84.1948L139.576 84.6511L139.271 84.8847L138.57 85.3949L137.844 85.9123L136.161 87.0189L135.302 87.5686L133.548 88.6213L133.117 88.8728L132.283 89.3363L131.111 89.9543L130.564 90.2274L129.223 90.8418L128.522 91.158L126.962 91.8155L125.366 92.4766L121.984 93.7592L121.16 94.0647L119.607 94.6108L118.853 94.8695L117.526 95.2934L117.213 95.3904L116.649 95.5557L116.379 95.6312L115.908 95.7533L115.689 95.8072L115.33 95.8755L114.927 95.9186L114.805 95.9222L114.467 95.9617L114.284 95.9905L113.867 96.0731L112.569 96.436L112.368 96.5078L111.749 96.6767L111.415 96.7665L110.606 96.9606L107.946 97.4995L107.511 97.575L106.688 97.7366L106.289 97.8229L105.595 97.9846L105.271 98.0672L104.786 98.2109L104.38 98.3834L104.308 98.4445L104.146 98.4193L104.06 98.3834L103.87 98.157L103.765 98.0205L103.535 97.5857L103.413 97.3414M76.8297 97.1115L76.348 97.0935L75.1797 97.0145L74.5686 96.9677L73.1918 96.8456L72.4872 96.7809L70.9774 96.6264L70.2153 96.5438L68.6516 96.3641L67.868 96.2707L66.3258 96.0767L65.5601 95.9761L64.1114 95.7749L63.4033 95.6743L62.1235 95.4731L60.4735 95.1856L59.9523 95.085L58.9997 94.9018L58.5359 94.812L57.6912 94.6467L56.868 94.485L55.4912 94.212L54.8369 94.079L53.7226 93.8419L53.1869 93.7269L52.2343 93.5077L51.3033 93.285L49.5059 92.7892L49.0278 92.649L47.9601 92.3328L46.0945 91.7652L44.3834 91.2442L41.1373 90.1052L39.5448 89.5232L36.5504 88.2764L35.0873 87.6405L32.3661 86.2967L31.0432 85.614L28.6167 84.1841L27.4412 83.4619L25.3275 81.9564L24.3102 81.1983L22.5308 79.6318L21.6824 78.8449L20.2553 77.2317L18.5298 74.7669L18.0841 74.0016L17.4226 72.4531L17.1278 71.6806L16.7684 70.1284L16.6246 69.3524L16.5635 67.8038L16.5671 67.0313L16.8043 65.4935L16.9589 64.7247L17.4909 63.2048L17.7965 62.4503L18.6233 60.9557L19.0726 60.2155L20.1942 58.7568L22.2037 56.6154L22.7069 56.1411L23.7638 55.2249L24.303 54.7758L25.4461 53.8991L26.0321 53.4644L27.2795 52.6164L27.9193 52.1961L29.2925 51.3625L29.9971 50.9493L31.5141 50.1229L32.2942 49.7097L33.9729 48.8762L34.8321 48.4594L36.6942 47.6079L39.7066 46.3036L40.6017 45.93L42.417 45.2329L43.3337 44.8916L45.2173 44.2592L46.17 43.9502L48.1543 43.3754L49.1644 43.0951L51.2853 42.567L52.3637 42.3083L54.6572 41.8232L55.8291 41.5825L58.3274 41.1298L59.6072 40.9034L62.3464 40.4723L66.7644 39.8435L67.3539 39.7645L68.7127 39.6172L69.4137 39.5489L70.9702 39.4231L71.7719 39.3621L73.4902 39.2543L74.3673 39.204L76.215 39.1141L78.0879 39.0315L82.0529 38.9201L84.048 38.8734L88.0382 38.8375L89.0232 38.8339L90.9463 38.8411L91.899 38.8483L93.7287 38.877L94.6274 38.8914L96.3241 38.9381L97.1509 38.9632L98.6787 39.0315L99.4192 39.0638L100.742 39.1501L101.375 39.1968L102.453 39.3046L102.956 39.3585L103.758 39.4878L104.599 39.6998L104.772 39.7681L105.045 39.9764L105.228 40.2998V40.325L105.16 40.4579L105.117 40.5334L104.97 40.7633L104.887 40.8855L104.668 41.2016L104.553 41.3669L104.269 41.7514L103.974 42.1538L103.23 43.1239L101.964 44.7335L98.6967 48.8079L85.1588 48.9444L84.1738 48.9552L82.3369 48.9768L81.4346 48.9911L79.7487 49.0199L78.9219 49.0379L77.3653 49.0738L76.6032 49.0918L75.1617 49.1385L73.7454 49.1888L71.1823 49.3217L69.935 49.3972L67.5984 49.5876L66.4444 49.6918L64.1941 49.9541L63.0653 50.0978L60.7575 50.4463L59.582 50.6295L57.0729 51.0751L56.4258 51.1936L55.0706 51.4487L52.9245 51.8655L51.9791 52.0523L50.1565 52.4512L49.2543 52.656L47.5216 53.0907L46.6696 53.3135L45.0268 53.7841L44.2144 54.0249L42.6615 54.5315L41.1265 55.0489L38.3118 56.195L34.4582 58.0921L33.7824 58.4693L32.438 59.3784L31.7765 59.849L30.5363 60.8838L29.9432 61.4084L28.9115 62.4755L27.7108 64.0204L27.5706 64.2432L27.337 64.7714L27.2291 65.0444L27.0638 65.6516L26.9164 66.2732L26.8265 67.6493L26.8157 68.3392L27.0027 69.7045L27.0638 70.035L27.2471 70.6602L27.5958 71.5117L27.8331 71.9716L28.4514 72.8806L28.7893 73.3334L29.6089 74.2172L30.0402 74.6592L31.0504 75.5215L31.5824 75.949L32.7759 76.7862L33.3978 77.1994L34.7746 78.0006L35.4863 78.3994L37.0357 79.1647L37.8337 79.5456L39.5556 80.2713L42.32 81.3133L43.5745 81.7552L46.2598 82.56L47.6294 82.9481L50.5448 83.6523L52.0294 83.9936L55.182 84.6008L56.7853 84.8919L60.1788 85.4021L61.9043 85.6464L65.5457 86.0596L67.397 86.2536L71.2902 86.5734L73.2673 86.7207L77.4157 86.9434L83.9366 87.1698L93.7395 87.3997L95.7382 91.0286L96.015 91.528L96.529 92.5269L96.7771 93.0155L97.2048 93.9173L97.4061 94.3485L97.6973 95.0491L97.7584 95.2108L97.8483 95.4731L97.9274 95.7677L98.1143 96.8815L94.7856 97.1151L94.3937 97.1438L93.3297 97.1905L92.7545 97.2085L91.3885 97.2408L90.6767 97.2552L89.0986 97.2731L88.2898 97.2767L86.5823 97.2803H84.8568L81.3843 97.2408L80.5431 97.2264L78.965 97.1869L78.1957 97.1654M99.3222 88.6393L99.2503 88.5279L99.0705 88.2153L98.9807 88.0465L98.7794 87.6584L98.2114 86.4296L98.1251 86.2248L97.9957 85.8799L97.9382 85.7146L97.877 85.4452L97.8555 85.3158L97.8735 85.111L97.895 85.014L98.0029 84.8559L98.0712 84.7841L98.2833 84.6655L98.4055 84.6116L98.7326 84.5182L98.9123 84.4715L99.3689 84.3924L100.206 84.2703L100.498 84.2308L101.332 84.0763L101.785 83.9864L102.87 83.7421L103.435 83.6128L104.689 83.3074L105.329 83.1493L106.67 82.8044L108.014 82.4487L110.606 81.7121L111.217 81.5325L112.314 81.1947L113.676 80.7348L114.449 80.4546L115.948 79.851L116.685 79.542L118.098 78.8916L118.788 78.5611L120.093 77.8748L120.733 77.5263L121.912 76.8149L122.487 76.4556L123.522 75.7334L124.022 75.3706L124.895 74.6484L125.309 74.2891L126.002 73.5777L126.811 72.5393L127.16 71.9968L127.606 70.9405L127.789 70.4123L127.901 69.3847L127.915 68.8709L127.681 67.8577L127.523 67.3547L126.941 66.3487L126.606 65.8457L125.668 64.8396L125.154 64.3366L123.853 63.3198L123.159 62.8096L121.491 61.7713L118.565 60.1832L118.051 59.9245L116.771 59.3748L116.095 59.0945L114.557 58.5232L113.759 58.2358L112.022 57.6609L111.135 57.3735L109.269 56.8166L107.385 56.2669L103.524 55.3075L102.572 55.0848L100.731 54.6967L98.1287 54.2261L97.7692 54.1686L97.115 54.0392L96.8058 53.9746L96.2882 53.838L96.0509 53.7698L95.7274 53.644L95.5225 53.4859V53.4392L95.7166 53.3602L95.8388 53.3206L96.2414 53.256L96.4607 53.2236L97.0143 53.1841L97.9633 53.159H98.2689L98.7686 53.1554L99.0058 53.1518L99.394 53.1302L99.7643 53.1051L100.3 52.9506L100.552 52.8464L101.044 52.4619L101.177 52.347L101.475 52.0559L102.007 51.517L102.234 51.287L102.611 50.9098L102.791 50.7337L103.118 50.4678L103.28 50.3457L103.607 50.1876L103.776 50.1193L104.161 50.0618L104.366 50.0439L104.862 50.0834L105.128 50.1157L105.789 50.2487L106.145 50.3241L107.022 50.5469L108.643 50.9745L110.211 51.3912L113.166 52.311L114.611 52.7853L117.31 53.8165L118.63 54.341L121.053 55.4656L122.228 56.0369L124.353 57.2441L125.377 57.8549L127.182 59.1304L128.044 59.7772L129.511 61.1102L130.201 61.782L131.308 63.1581L131.564 63.5067L131.999 64.2037L132.541 65.26L132.671 65.5582L132.883 66.2157L132.98 66.5535L133.124 67.2685L133.25 67.9978L133.293 69.5428L133.282 70.3153L133.052 71.8135L132.98 72.1764L132.782 72.8663L132.408 73.8184L132.203 74.246L131.65 75.1298L131.348 75.5718L130.611 76.47L130.223 76.9227L129.324 77.8245L128.857 78.2737L127.814 79.1611L127.279 79.6031L126.118 80.4582L125.521 80.8821L124.255 81.6977L123.608 82.0965L122.26 82.8439L120.161 83.8822L119.784 84.0547L119.057 84.3709L118.709 84.5182L118.094 84.7697L117.803 84.8811L117.364 85.0392L116.98 85.1398H116.865L116.404 85.2835L115.624 85.6248L115.481 85.7003L115.013 85.8907L114.751 85.9949L114.068 86.2356L113.705 86.3614L112.853 86.6416L112.407 86.7853L111.429 87.0871L110.423 87.3925L108.212 88.0213L104.93 88.8872L104.517 88.9878L103.765 89.1495L103.402 89.225L102.748 89.3327L102.432 89.3794L101.871 89.4298L101.601 89.4477L101.127 89.4405L100.9 89.4298L100.508 89.3687L100.321 89.3292L100.009 89.2106L99.7104 89.0776L99.3222 88.6393Z" fill="#62AD52"/>
<path d="M295.158 64.7802L295.082 64.7191L294.885 64.4569L294.78 64.3024L294.54 63.8928L293.799 62.3694L293.734 62.2113L293.551 61.7945L293.45 61.5717L293.21 61.04L293.08 60.7633L292.789 60.1417L292.638 59.822L292.304 59.1249L291.966 58.4135L291.204 56.8398L290.812 56.0458L290.007 54.411L289.608 53.6026L288.831 52.0576L288.454 51.3103L287.781 49.9988L287.623 49.6899L287.339 49.1473L287.203 48.8886L286.969 48.4539L286.861 48.2527L286.685 47.9437L286.502 47.6455L286.379 47.4694L286.207 47.2431L286.128 47.1532L286.013 47.0993L285.962 47.0921L285.869 47.1964L285.714 47.5305L285.693 47.5844L285.646 47.7676L285.621 47.8682L285.567 48.1485L285.513 48.4467L285.384 49.291L285.315 49.7509L285.172 50.8504L285.1 51.4288L284.949 52.7079L284.798 54.0158L284.521 56.8398L284.456 57.5368L284.345 58.8806L284.208 60.7525L284.176 61.2484L284.09 62.1681L284.043 62.6101L283.931 63.3682L283.874 63.7167L283.755 64.2233L283.583 64.6078L283.518 64.6545L283.306 64.7227L283.187 64.7551L282.893 64.8054L282.583 64.8485L281.861 64.8736H281.505L280.89 64.809L280.754 64.7874L280.549 64.7299L280.376 64.615L280.355 64.579V64.2844L280.358 64.1048L280.409 63.5802L280.437 63.2963L280.531 62.6101L280.711 61.4711L280.779 61.0759L280.944 60.0699L281.027 59.5453L281.214 58.3848L281.307 57.7991L281.487 56.6242L281.731 55.0038L281.807 54.508L281.987 53.3259L282.077 52.7115L282.278 51.4109L282.379 50.7606L282.573 49.4958L282.839 47.8179L282.918 47.3221L283.097 46.1113L283.187 45.4789L283.374 44.1172L283.464 43.4345L283.637 42.0872L283.856 40.2691L283.913 39.7266L284.046 38.699L284.115 38.2032L284.248 37.3445L284.312 36.9457L284.431 36.3528L284.456 36.2271L284.507 36.0367L284.571 35.8678L284.611 35.8067L284.773 35.6953L284.866 35.6414L285.114 35.5516L286.027 35.4223H286.333L286.85 35.5337L287.098 35.6091L287.526 35.9001L287.735 36.069L288.112 36.5648L288.666 37.578L288.723 37.7002L288.917 38.1242L289.025 38.3613L289.295 38.9505L290.226 40.9913L290.654 41.9363L291.509 43.7759L291.933 44.6813L292.757 46.4023L293.163 47.2466L293.936 48.8096L294.313 49.5677L295.011 50.9258L295.348 51.5762L295.949 52.69L296.233 53.2109L296.711 54.0301L296.822 54.217L297.016 54.5224L297.11 54.6661L297.268 54.8852L297.34 54.9823L297.455 55.108L297.581 55.1835H297.613L297.735 55.0613L297.804 54.9823L297.994 54.7128L298.098 54.5583L298.346 54.1559L298.476 53.9367L298.778 53.4157L298.936 53.1391L299.281 52.5139L299.457 52.1905L299.842 51.4755L300.234 50.7426L301.089 49.0755L301.528 48.2167L302.434 46.3951L302.887 45.4753L303.775 43.6142L304.213 42.6908L305.029 40.9123L306.097 38.4763L307.308 35.6019H309.088H310.867L311.101 37.578L311.133 37.8511L311.227 38.6272L311.273 39.0475L311.385 40.0284L311.737 43.1471L311.802 43.7399L311.963 45.0765L312.046 45.7663L312.237 47.261L312.434 48.7808L312.884 52.0432L313.114 53.6708L313.577 56.8003L313.693 57.5512L313.912 58.9489L314.221 60.8316L314.286 61.216L314.393 61.8735L314.444 62.1861L314.523 62.7107L314.555 62.9586L314.602 63.3646L314.624 63.555L314.642 63.8568L314.649 64.1371L314.584 64.4569L314.358 64.694L314.246 64.7371L313.84 64.8018L313.61 64.8269L313.02 64.8629L312.402 64.8916L310.928 64.8772L310.565 64.8665L309.871 64.8305L309.537 64.809L308.958 64.7551L308.689 64.7263L308.293 64.6509L307.991 64.5251L307.977 64.5L307.941 64.3527L307.919 64.2628L307.876 63.997L307.855 63.8496L307.808 63.4796L307.783 63.282L307.732 62.8221L307.682 62.3406L307.574 61.1729L307.42 59.2255L307.355 58.2914L307.218 56.5272L307.146 55.6685L307.006 54.0697L306.934 53.2972L306.791 51.8887L306.719 51.2097L306.578 50.0168L306.507 49.4491L306.37 48.4898L306.302 48.0407L306.172 47.3401L306.108 47.0239L305.985 46.6035L305.82 46.3161L305.795 46.3089L305.709 46.3664L305.662 46.4059L305.536 46.5568L305.403 46.7293L305.04 47.3113L304.846 47.6347L304.4 48.4575L303.688 49.8803L303.045 51.2348L301.751 53.9726L301.434 54.6481L300.82 55.956L300.518 56.5991L299.95 57.8207L299.669 58.4171L299.162 59.5166L298.918 60.0447L298.487 60.9861L298.282 61.4316L297.947 62.1718L297.57 63.0197L297.376 63.4652L296.977 64.1407L296.776 64.4389L296.369 64.8126L296.164 64.9599L295.758 65.0282L295.553 65.0245M358.857 64.9347L358.419 64.8413L357.495 64.5395L357.031 64.3742L356.075 63.9467L355.597 63.7203L354.648 63.1921L354.177 62.9191L353.264 62.3119L352.818 61.9993L351.977 61.3418L351.571 61.0041L350.841 60.3142L350.492 59.9693L349.906 59.2722L349.223 58.2483L348.918 57.6842L348.422 56.441L348.195 55.8086L347.85 54.4577L347.695 53.775L347.498 52.3666L347.419 51.6588L347.375 50.2288L347.372 49.5174L347.476 48.1161L347.548 47.4227L347.803 46.0897L347.951 45.4394L348.36 44.2214L349.14 42.5758L349.371 42.1878L349.899 41.4404L350.176 41.0704L350.798 40.3626L351.438 39.6655L352.944 38.426L353.727 37.8331L355.471 36.8451L358.268 35.7133L358.685 35.5839L359.612 35.372L360.09 35.275L361.1 35.1312L362.128 35.0019L364.296 34.9336L365.378 34.93L367.456 35.1169L367.955 35.1815L368.897 35.354L370.181 35.6846L370.443 35.7708L370.878 35.9145L371.083 35.9828L371.406 36.1013L371.705 36.2199L372.046 36.4534L372.179 36.5792L372.28 36.9062L372.302 37.6355L372.287 38.1026L372.201 38.9218L372.147 39.3062L371.985 39.9278L371.899 40.2045L371.683 40.5781L371.317 40.8117H371.252L371.065 40.7362L370.964 40.6895L370.727 40.535L369.972 39.8667L369.738 39.608L369.181 39.1553L368.89 38.9398L368.236 38.5697L367.898 38.3972L367.165 38.1134L366.791 37.984L366 37.7936L365.597 37.7074L364.76 37.6104L364.339 37.5744H363.476L363.045 37.5888L362.179 37.693L360.888 37.9661L360.687 38.0236L360.248 38.2176L360.025 38.3254L359.558 38.6164L359.087 38.9254L358.124 39.7625L357.653 40.2081L356.79 41.2177L355.758 42.7878L355.604 43.0896L355.323 43.7795L355.19 44.1388L354.96 44.9292L354.745 45.7376L354.464 47.5413L354.349 48.4575L354.303 50.3186L354.515 52.9522L354.655 53.7858L355 55.1907L355.19 55.859L355.676 57.023L355.938 57.5836L356.61 58.6111L357.887 60.1166L358.289 60.537L359.184 61.2232L359.641 61.5394L360.633 62.0209L361.136 62.2328L362.207 62.5095L362.75 62.6209L363.883 62.6927L364.458 62.7035L365.64 62.567L366.237 62.4735L367.456 62.1322L368.067 61.9382L369.3 61.3921L371.155 60.3393L371.313 60.2387L371.579 60.0842L371.705 60.016L371.913 59.9405L372.01 59.9082H372.158L372.226 59.919L372.323 60.0016L372.366 60.0519L372.413 60.2208L372.427 60.3142V60.5729L372.42 60.713L372.377 61.0687L372.266 61.7083L372.197 62.0424L372.05 62.549L371.967 62.779L371.73 63.1419L371.597 63.3143L371.212 63.6269L370.386 64.1335L370.04 64.3203L369.415 64.5898L369.091 64.712L368.337 64.8665L368.128 64.9024L367.646 64.9563L367.395 64.9814L366.802 65.021L366.489 65.0389L365.755 65.0677L364.465 65.1036L363.865 65.118L362.675 65.1215H362.092L361.025 65.0964L360.514 65.082L359.688 65.0317L359.504 65.0174L359.199 64.9886L359.058 64.9706M169.028 64.4497L169.025 64.4173L169.021 64.0688V63.8532V63.1634L169.018 62.7826V61.7909V61.2627V60.0088L169.021 59.3549V57.8818V57.1201L169.025 55.4601L169.028 54.6122L169.032 52.8085L169.036 49.9881L169.039 49.327L169.043 48.0874L169.046 47.4802L169.054 46.3448L169.057 45.7915L169.064 44.7567L169.068 44.2537L169.075 43.3196L169.086 42.4105L169.111 40.8728L169.125 40.147L169.161 38.9541L169.179 38.4008L169.222 37.5241L169.248 37.1217L169.302 36.5325L169.33 36.2702L169.399 35.9361L169.514 35.6917L169.542 35.6702L169.74 35.6342L169.862 35.6163L170.222 35.5839L170.423 35.566L170.93 35.5408L171.2 35.53L171.829 35.5085L172.159 35.5013L172.896 35.4905L173.274 35.4834L174.097 35.4798L176.782 35.4977L177.203 35.5013L177.965 35.5157L178.335 35.5229L179.007 35.5337L179.654 35.5444L180.708 35.5732L181.2 35.5911L181.987 35.6307L182.351 35.6558L182.933 35.7169L183.203 35.7528L183.641 35.8426L183.85 35.8929L184.205 36.0223L185.284 36.5864L185.852 36.9169L186.74 37.7038L187.142 38.1242L187.725 39.1194L187.854 39.3853L188.055 39.9638L188.149 40.2656L188.286 40.9159L188.343 41.25L188.419 41.9794L188.458 43.1723L188.454 43.9268L188.3 45.249L188.192 45.8849L187.818 46.988L187.603 47.5161L186.995 48.4431L185.802 49.6755L185.6 49.8408L185.126 50.1497L184.881 50.3042L184.324 50.5881L183.749 50.8611L182.419 51.3067L181.736 51.5079L180.28 51.781L178.091 51.9498H177.728L177.124 51.9822L176.84 52.0037L176.38 52.0828L176.168 52.1259L175.851 52.248L175.524 52.4888L175.441 52.5858L175.323 53.0457L175.298 53.1894L175.254 53.5487L175.237 53.7427L175.208 54.217L175.197 54.4685L175.183 55.0649L175.175 55.3811L175.172 56.114V56.4985L175.183 57.3752L175.211 58.8662L175.344 64.7048L172.199 64.809L171.606 64.8269L170.707 64.8341L170.297 64.8305L169.733 64.7874L169.485 64.7622L169.197 64.6653L169.086 64.6078M178.828 48.8527L178.91 48.8275L179.151 48.6874L179.277 48.6012L179.579 48.3641L180.535 47.4299L180.79 47.1353L181.139 46.6682L181.29 46.4382L181.47 45.9424L181.545 45.6694L181.606 44.94L181.621 44.7352L181.632 44.2429L181.635 43.3627V42.7878L181.603 41.9147L181.581 41.5159L181.491 40.9123L181.437 40.6356L181.265 40.1973L180.898 39.6116L180.697 39.3565L180.079 38.9002L179.748 38.6847L178.964 38.3433L178.562 38.1924L177.735 38.02L176.588 37.9912L176.387 38.02L176.103 38.1242L175.977 38.196L175.808 38.4655L175.733 38.6344L175.625 39.1841L175.6 39.3458L175.549 39.741L175.477 40.4524L175.377 41.4872L175.258 43.4705L175.237 43.9519L175.215 44.8573L175.208 45.2993L175.211 46.1077L175.219 46.4993L175.251 47.1892L175.269 47.5161L175.33 48.0587L175.362 48.3102L175.449 48.6802L175.607 49.0144L175.707 49.115L176.02 49.2335L176.196 49.2767L176.674 49.2803L176.937 49.2659L177.598 49.1545L177.958 49.0827M193.739 64.615L193.732 64.6042L193.721 64.5143L193.717 64.4533L193.706 64.2664L193.696 64.058L193.681 63.3754L193.674 62.9945L193.663 62.0029L193.656 61.4675L193.653 60.2028L193.649 59.5381L193.645 58.0399V57.2674V55.5751L193.649 54.7092L193.656 52.866L193.67 49.9737L193.768 35.6019H196.96H200.148L200.015 41.1243L200.001 41.674L199.983 42.6261L199.976 43.0788L199.972 43.8549L199.969 44.2214L199.979 44.8358L199.983 45.1232L200.008 45.5939L200.022 45.8131L200.058 46.1616L200.08 46.3197L200.137 46.5568L200.375 46.9556L200.421 46.9844L200.623 47.0383L200.741 47.0598L201.076 47.1065L201.255 47.1245L201.701 47.1604L201.935 47.1784L202.47 47.2071L203.028 47.2323L204.336 47.261L205.012 47.2718H206.439L207.154 47.2682L208.549 47.2359L209.229 47.2179L210.436 47.1604L210.717 47.1425L211.224 47.1065L211.465 47.085L211.867 47.0419L212.058 47.0167L212.342 46.9664L212.618 46.8838L212.795 46.7903L213.028 46.5424L213.079 46.4634L213.154 46.2406L213.186 46.1149L213.233 45.7699L213.251 45.5795L213.273 45.0765L213.28 44.7998L213.284 44.0956L213.28 43.7148L213.262 42.7734L213.222 41.0452L213.089 35.6019L215.933 35.4977L216.321 35.4798L217.054 35.4762L217.41 35.4798L218.018 35.5049L218.298 35.5229L218.715 35.5732L219.042 35.6774L219.053 35.6846L219.071 35.778L219.082 35.839L219.1 36.0259L219.118 36.2379L219.157 36.9205L219.179 37.3014L219.215 38.2966L219.233 38.832L219.269 40.1003L219.287 40.765L219.323 42.2632L219.337 43.0393L219.369 44.7316L219.38 45.5975L219.405 47.4407L219.438 50.333L219.56 64.7048H216.325H213.089L213.201 58.2375L213.215 57.3428L213.219 55.6829L213.215 54.8852L213.183 53.5235L213.172 53.2109L213.147 52.6612L213.133 52.4061L213.1 51.9857L213.082 51.7917L213.046 51.5187L212.982 51.2887L212.953 51.2528L212.802 51.1773L212.712 51.1414L212.439 51.0731L212.291 51.0372L211.918 50.9725L211.72 50.9438L211.26 50.8827L210.782 50.8252L209.628 50.7282L209.031 50.6815L207.74 50.6133L207.09 50.5845L205.781 50.5522L205.138 50.5414L203.948 50.5522L203.376 50.5629L202.424 50.6168L202.208 50.6348L201.841 50.6815L201.406 50.7641L200.148 51.0983L200.076 57.544L200.066 58.4279L200.048 60.0807L200.037 60.8711L200.022 62.2256L200.015 62.5382L200.008 63.0807L200.004 63.3359L200.001 63.7526L199.997 63.9431L199.994 64.2125L199.986 64.4353L199.983 64.4964L199.724 64.6078L199.559 64.6581L199.045 64.7443L198.761 64.7802L198.078 64.8413L197.725 64.8665L196.967 64.8952L196.586 64.906H195.838L195.475 64.8988L194.835 64.8629L194.537 64.8413L194.091 64.7695L193.901 64.7263M224.251 64.5575L224.222 64.5072L224.255 64.2233L224.287 64.0545L224.427 63.5838L224.514 63.3287L224.744 62.7287L225.168 61.755L225.401 61.2591L225.941 60.0663L226.221 59.4447L226.843 58.0363L227.163 57.3105L227.842 55.7332L228.187 54.9284L228.906 53.2361L229.633 51.5223L231.106 47.9545L231.469 47.067L232.178 45.3172L233.188 42.7878L233.522 41.947L234.155 40.3518L234.46 39.5793L234.992 38.232L235.118 37.9158L235.337 37.3625L235.445 37.0966L235.618 36.6546L235.7 36.4498L235.823 36.1445L235.941 35.8534L236.013 35.6702L236.175 35.4187L236.261 35.3109L236.509 35.1851L236.653 35.1348L237.07 35.1025L237.969 35.1348L239.662 35.2426L240.402 37.3984L240.607 37.9912L241.049 39.238L241.154 39.529L241.341 40.0428L241.56 40.632L241.589 40.7075L241.679 40.9374L241.729 41.0632L241.855 41.3901L241.988 41.7387L242.344 42.6585L242.531 43.1471L242.962 44.2609L243.638 46.0215L243.868 46.6143L244.321 47.782L244.544 48.3497L244.953 49.3844L245.148 49.8731L245.464 50.6528L245.536 50.8252L245.651 51.1055L245.784 51.4109L245.852 51.5582L246.071 52.072L246.194 52.3558L246.496 53.0708L247.524 55.5428L247.696 55.9631L248.117 56.9476L248.332 57.4578L248.796 58.5213L249.03 59.0531L249.483 60.0663L250.09 61.3921L250.27 61.7765L250.583 62.5059L250.727 62.858L250.953 63.4724L251.054 63.7562L251.165 64.1838L251.187 64.5359L251.144 64.6042L250.813 64.7084L250.612 64.7551L250.029 64.8197L249.713 64.8485L248.969 64.8808L248.584 64.8916L247.768 64.888L247.362 64.8808L246.564 64.8449L246.179 64.8234L245.493 64.7551L245.169 64.7156L244.684 64.6186L244.281 64.4353L244.231 64.3742L244.065 64.0185L243.976 63.8101L243.746 63.2209L243.627 62.9047L243.361 62.1538L242.958 60.9322L242.761 60.3178L242.448 59.319L242.297 58.8555L242.024 58.1297L241.887 57.7955L241.596 57.2925L241.441 57.0698L241.067 56.7536L240.866 56.6135L240.352 56.4446L240.068 56.3691L239.349 56.3009L238.961 56.2721L237.976 56.2614H236.132H235.704L234.938 56.2685L234.572 56.2721L233.917 56.2865L233.605 56.2937L233.062 56.3188L232.803 56.3332L232.361 56.3655L231.944 56.4015L231.398 56.5057L230.955 56.7141L230.905 56.7751L230.776 56.9907L230.707 57.1129L230.556 57.4291L230.398 57.7668L230.046 58.6435L229.87 59.1034L229.532 60.0878L229.115 61.4891L229.032 61.8196L228.867 62.3873L228.784 62.6568L228.619 63.1095L228.533 63.3215L228.349 63.6736L228.256 63.8389L228.047 64.1012L227.832 64.3455L227.271 64.6186L226.149 64.8126L225.689 64.8413L224.902 64.7838L224.729 64.7587L224.47 64.6904L224.359 64.6509M239.709 52.9954L239.745 52.9415L239.759 52.7403V52.6289L239.716 52.3343L239.396 51.2887L239.32 51.1091L239.098 50.5665L238.979 50.2719L238.699 49.5677L237.796 47.279L237.652 46.9089L237.35 46.2263L237.199 45.8993L236.908 45.3496L236.768 45.0945L236.524 44.7388L236.243 44.4909L236.161 44.4765L235.949 44.6418L235.833 44.7567L235.56 45.1771L235.416 45.4178L235.089 46.0897L234.539 47.3652L234.212 48.1808L233.551 49.8012L233.396 50.1749L233.134 50.8073L232.846 51.4899L232.731 51.7486L232.595 52.1187L232.544 52.284L232.526 52.5139L232.537 52.6181L232.649 52.7798L232.961 53.0061L233.069 53.0672L233.483 53.1678L233.716 53.2145L234.331 53.2828L234.978 53.3439L236.538 53.3726L236.923 53.369L237.663 53.3475L238.023 53.3295L238.645 53.2756L238.936 53.2433L239.367 53.1606L239.55 53.1139M256.025 64.7443L256.018 64.7371L256.007 64.6509L256.004 64.597L255.993 64.4173L255.982 64.2161L255.968 63.5479L255.961 63.1742L255.946 62.1969L255.943 61.6723L255.932 60.422V59.7645L255.928 58.2806L255.925 57.5153L255.928 55.8374V54.9751L255.935 53.1463L255.95 50.2683L255.957 49.2839L255.971 47.3868L255.975 46.4562L255.989 44.6921L255.993 43.8298L256.004 42.2381L256.011 41.4656L256.018 40.0859L256.022 39.4248L256.029 38.293L256.032 37.7649L256.04 36.9241V36.5469L256.043 36.0367V35.9325L256.047 35.7923V35.6917V35.6666L256.183 35.6199L256.273 35.5983L256.572 35.5624L256.741 35.5444L257.183 35.5157L257.416 35.5013L257.977 35.4798L258.563 35.4582L259.994 35.4366L260.742 35.433L262.363 35.4402L263.182 35.4474L264.818 35.4798L265.62 35.4977L267.094 35.5552L267.442 35.5732L268.082 35.6055L268.391 35.6271L268.927 35.6666L269.182 35.6881L269.599 35.7349L270.059 35.8103L270.458 35.9037L271.192 36.1552L271.547 36.2882L272.191 36.6295L272.5 36.8091L273.054 37.2367L273.316 37.4631L273.78 37.9804L273.999 38.2499L274.373 38.8607L274.549 39.1733L274.833 39.8739L274.966 40.2368L275.16 41.0273L275.358 42.3171L275.397 42.7303L275.423 43.395L275.426 43.7112L275.365 44.2501L275.322 44.5124L275.157 45.019L274.783 45.8418L274.56 46.2658L274.031 47.0383L273.755 47.4083L273.126 48.0622L272.802 48.3712L272.094 48.885L270.965 49.4779L270.713 49.5785L270.304 49.7545L270.113 49.8408L269.818 50.0024L269.682 50.0815L269.498 50.2468L269.419 50.333L269.337 50.5234L269.308 50.6276L269.326 50.8683L269.344 50.9977L269.452 51.3103L269.516 51.4755L269.711 51.878L270.092 52.6109L270.43 53.2469L271.026 54.3247L271.325 54.8565L271.979 55.9452L272.155 56.229L272.547 56.8542L272.755 57.1775L273.223 57.9033L273.467 58.2842L274.035 59.1501L275.02 60.6412L275.336 61.119L275.897 62.0209L276.16 62.4592L276.58 63.2101L276.767 63.5622L277.001 64.0796L277.044 64.191L277.091 64.3563V64.5036L277.058 64.5575L276.742 64.6473L276.551 64.6904L275.991 64.7587L275.685 64.791L274.959 64.8377L274.585 64.8557L273.783 64.8736L273.381 64.8808L272.59 64.8736L272.205 64.8665L271.515 64.8305L271.188 64.809L270.681 64.7407L270.225 64.6078L270.174 64.5718L269.955 64.2808L269.833 64.1012L269.502 63.5802L269.326 63.2928L268.927 62.6065L268.294 61.4711L267.73 60.4292L266.536 58.3093L266.238 57.792L265.659 56.7931L265.372 56.3045L264.829 55.399L264.566 54.9607L264.085 54.1846L263.855 53.8181L263.463 53.2145L263.28 52.9379L262.996 52.5427L262.722 52.2301L262.686 52.2085L262.625 52.2624L262.597 52.3055L262.539 52.4924L262.51 52.6037L262.46 52.9271L262.435 53.1067L262.388 53.5738L262.363 53.8218L262.32 54.4325L262.298 54.7523L262.262 55.5068L262.241 55.9056L262.208 56.8111L262.158 58.3381L261.978 64.7048L259.084 64.809L258.689 64.8234L257.948 64.8341L257.596 64.8377L256.992 64.8305L256.715 64.8269L256.32 64.7982L256.151 64.7838M266.594 48.0658L266.853 47.8323L267.302 47.2718L267.514 46.9808L267.863 46.3304L268.028 45.9963L268.276 45.2813L268.388 44.9184L268.528 44.1747L268.585 43.801L268.614 43.0537V42.68L268.528 41.9614L268.47 41.6093L268.262 40.9518L267.809 40.0608L267.546 39.6727L266.989 39.0691L266.702 38.796L266.073 38.4152L265.749 38.2499L265.019 38.0739L263.776 38.0236L262.338 38.117L262.237 43.4776L262.23 43.9411L262.219 44.7747L262.215 45.1735L262.219 45.8885V46.2334L262.23 46.8335L262.237 47.1173L262.259 47.6059L262.273 47.8359L262.305 48.2131L262.323 48.3892L262.37 48.6623L262.392 48.7844L262.449 48.9533L262.543 49.0898L262.618 49.1365L262.855 49.1796L262.985 49.1976L263.315 49.1832L263.661 49.1617L264.495 48.982L264.915 48.8743L265.713 48.576L265.897 48.5006L266.22 48.3281L266.367 48.2455M317.719 64.5611L317.697 64.5251L317.74 64.2557L317.776 64.0976L317.913 63.6305L317.992 63.379L318.2 62.779L318.308 62.4664L318.56 61.8017L318.819 61.1262L319.361 59.8579L319.491 59.5705L319.725 59.0926L320.012 58.5968L320.041 58.5572L320.167 58.3093L320.239 58.162L320.44 57.7201L320.551 57.4758L320.821 56.8686L320.961 56.5452L321.285 55.7979L321.454 55.4062L321.824 54.5403L322.011 54.0984L322.413 53.1463L322.823 52.1762L323.693 50.0815L324.132 49.0288L324.994 46.9269L325.415 45.8957L326.181 43.9986L326.364 43.5495L326.691 42.7195L326.849 42.3207L327.126 41.6165L327.256 41.2824L327.464 40.7255L327.691 40.0931L327.766 39.8703L327.964 39.3314L328.068 39.0511L328.294 38.4511L328.977 36.7696L329.15 36.3672L329.416 35.8247L329.545 35.5911L329.804 35.3145L329.944 35.2031L330.304 35.1061L331.073 35.0702H331.307L331.699 35.0845L331.886 35.0953L332.195 35.1456L332.493 35.2031L332.917 35.4869L333.018 35.5768L333.194 35.8211L333.28 35.954L333.449 36.2953L333.536 36.4786L333.712 36.9313L334.007 37.7577L334.107 38.0559L334.352 38.7493L334.477 39.1086L334.751 39.8596L334.887 40.2368L335.15 40.9518L335.506 41.8896L335.714 42.4321L336.127 43.5495L336.224 43.8082L336.386 44.2609L336.566 44.7639L336.616 44.9184L336.775 45.3532L336.861 45.5867L337.076 46.1436L337.303 46.7221L337.842 48.0658L338.115 48.7377L338.647 49.9988L338.773 50.2899L338.996 50.8037L339.273 51.4109L339.345 51.5582L339.571 52.072L339.693 52.3558L339.999 53.0708L341.016 55.5428L341.185 55.9631L341.595 56.9476L341.811 57.4578L342.267 58.5213L342.497 59.0531L342.95 60.0663L343.554 61.3921L343.734 61.7765L344.047 62.5059L344.191 62.858L344.417 63.4724L344.518 63.7562L344.629 64.1838L344.651 64.5359L344.622 64.5862L344.302 64.6724L344.104 64.712L343.511 64.7838L343.188 64.8126L342.393 64.8557L341.07 64.8844H337.709L337.163 63.3574L337.087 63.149L336.89 62.5813L336.785 62.2795L336.548 61.5933L335.843 59.495L335.631 58.8519L335.189 57.7129L335.085 57.4614L334.902 57.0698L334.697 56.7105L334.632 56.6314L334.255 56.5057L334.024 56.4482L333.288 56.3655L333.079 56.3476L332.587 56.3188L332.328 56.3081L331.731 56.2865L331.418 56.2793L330.714 56.2685L329.524 56.2614H328.823L327.687 56.2578L327.155 56.2614L326.317 56.2973L325.929 56.3224L325.325 56.4374L325.045 56.5057L324.613 56.7428L324.416 56.8793L324.096 57.2818L323.941 57.5081L323.672 58.1153L323.535 58.453L323.247 59.3118L322.737 60.9322L322.604 61.3526L322.331 62.1538L322.194 62.5418L321.942 63.2209L321.82 63.5371L321.615 64.0185L321.396 64.4353L321.342 64.5L321.126 64.6078L321.004 64.6581L320.684 64.7407L320.343 64.8126L319.512 64.8736L319.099 64.888L318.362 64.8197L318.197 64.7946L317.945 64.7156L317.837 64.6724M332.881 52.9774L332.957 52.902L333.043 52.7115L333.079 52.6037V52.3343L333.068 52.1869L332.978 51.8097L332.738 51.0911L332.378 50.121L331.691 48.4108L331.523 48.0048L331.206 47.2718L331.048 46.9161L330.757 46.2945L330.617 45.9963L330.361 45.4969L330.239 45.2669L330.024 44.9041L329.919 44.7424L329.754 44.534L329.56 44.4046H329.531L329.438 44.4909L329.384 44.5448L329.254 44.7352L329.114 44.9472L328.747 45.6298L328.55 46.0107L328.108 46.9592L327.41 48.5796L327.238 49L326.946 49.7258L326.806 50.0707L326.583 50.6635L326.475 50.9402L326.314 51.4073L326.238 51.63L326.134 51.9893L326.091 52.1546L326.041 52.4205L326.019 52.5427L326.023 52.7295L326.191 53.0636L326.285 53.1211L326.67 53.2145L326.892 53.2541L327.478 53.3151L327.791 53.3403L328.503 53.369L328.87 53.3798L329.632 53.3762L330.013 53.3726L330.746 53.3403L331.102 53.3187L331.735 53.2613L332.033 53.2253L332.486 53.1391L332.684 53.0924M384.272 64.6581L384.258 64.6401L384.222 64.4784L384.207 64.3814L384.175 64.0688L384.161 63.8928L384.132 63.4472L384.118 63.2065L384.096 62.646L384.071 62.0568L384.042 60.6052L384.02 58.1584V51.9103L382.899 49.8659L382.59 49.3018L381.921 48.1018L381.763 47.8179L381.483 47.3185L381.148 46.74L381.066 46.5927L380.771 46.0646L380.609 45.7735L380.203 45.0298L378.801 42.4285L378.326 41.5375L377.338 39.7518L377.104 39.335L376.698 38.6308L376.234 37.8547L376.054 37.5673L375.77 37.0858L375.641 36.863L375.479 36.5002L375.418 36.3313L375.397 36.069L375.404 35.9504L375.544 35.7708L375.634 35.6917L375.95 35.5839L376.134 35.5337L376.648 35.4762L376.928 35.4546L377.658 35.433L379.009 35.4223H382.629L383.701 37.8475L384.301 39.2128L385.48 41.7351L385.764 42.3387L386.31 43.4561L386.58 43.9986L387.076 44.9687L387.317 45.4322L387.745 46.2227L387.95 46.5963L388.298 47.1784L388.46 47.4407L388.712 47.7856L388.956 47.9976H389.024L389.19 47.8898L389.276 47.8143L389.488 47.5521L389.603 47.4012L389.869 46.9736L390.009 46.7364L390.333 46.1364L390.505 45.8131L390.894 45.0262L391.095 44.6094L391.555 43.6286L391.792 43.1148L392.324 41.9291L393.209 39.9135L395.085 35.6019L396.602 35.4905L396.936 35.4654L397.479 35.4366L397.735 35.4294L398.126 35.4474L398.306 35.4654L398.558 35.548L398.666 35.5947L398.781 35.7564L398.824 35.8462L398.809 36.1013L398.788 36.2415L398.655 36.6079L398.572 36.8091L398.328 37.3014L397.839 38.2068L397.745 38.3757L397.508 38.8068L397.382 39.0404L397.087 39.5901L396.778 40.1614L396.034 41.5554L395.646 42.2812L394.819 43.8477L393.583 46.2011L390.671 51.7702L390.491 58.2375L390.311 64.7048L387.418 64.809L387.022 64.8234L386.274 64.8269H385.919L385.3 64.8054L385.016 64.7946L384.599 64.7479L384.423 64.7227" fill="#62AD52"/>
<path d="M183.59 72.5689L184.784 72.6623L185.377 72.7234L186.549 72.939L188.271 73.4025L190.248 74.0492L190.176 75.6229L190.162 75.9104L190.115 76.3882L190.09 76.6146L190.014 76.9667L189.975 77.1284L189.856 77.3583L189.795 77.4589L189.63 77.5739L189.54 77.617H189.317L189.198 77.6026L188.911 77.4913L188.756 77.4266L188.389 77.211L187.746 76.7763L187.3 76.4529L186.308 75.9678L185.801 75.7487L184.694 75.472L184.126 75.3606L182.911 75.296L180.966 75.4397L180.7 75.4792L180.161 75.6409L179.888 75.7343L179.341 75.9966L178.795 76.2804L177.735 77.1068L177.217 77.5559L176.282 78.659L175.118 80.5345L174.902 80.9728L174.604 81.6986L174.471 82.0543L174.309 82.7801L174.24 83.1609L174.176 84.1059L174.161 84.3646L174.151 84.9646L174.143 86.0029V86.3694L174.151 87.0126L174.154 87.318L174.176 87.8605L174.201 88.3779L174.305 89.2079L174.37 89.5995L174.578 90.3145L175.039 91.4606L175.258 91.9493L175.732 92.8224L175.977 93.2427L176.502 93.9793L176.771 94.3314L177.354 94.935L177.652 95.2224L178.299 95.7039L178.63 95.9267L179.349 96.286L179.719 96.4512L180.513 96.6955L180.923 96.8033L181.807 96.9327L183.238 97.0117L183.795 97.0081L184.683 96.9686L185.1 96.9399L185.819 96.8141L186.172 96.7423L186.862 96.5051L188.023 95.9913L188.31 95.8512L188.846 95.6105L189.105 95.4955L189.543 95.3159L189.745 95.2368L190.039 95.147L190.259 95.1218L190.28 95.1434L190.298 95.2871L190.305 95.3733L190.298 95.6284L190.183 96.6417L190.133 96.9399L190.011 97.3854L189.942 97.5866L189.723 97.8992L189.594 98.0465L189.205 98.3052L188.354 98.722L188.095 98.8369L187.426 99.0346L187.067 99.128L186.236 99.2825L185.805 99.3543L184.867 99.4657L184.385 99.5124L183.389 99.5771L182.386 99.6238L180.431 99.5699L179.963 99.5448L179.104 99.4477L178.691 99.3903L177.983 99.2394L177.526 99.1208L176.62 98.8118L176.171 98.6465L175.297 98.2477L174.431 97.8309L172.856 96.7746L172.483 96.4943L171.785 95.8979L171.447 95.5925L170.843 94.9458L170.552 94.6188L170.049 93.9398L169.427 92.8942L169.007 92.0535L168.428 90.3217L168.18 89.4522L167.928 87.6952L167.842 86.8149L167.91 85.0832L167.982 84.2208L168.352 82.5573L168.575 81.7381L169.24 80.1896L169.607 79.435L170.549 78.0482L171.056 77.3835L172.263 76.2086L174.363 74.7391L174.888 74.4516L175.98 73.9558L176.534 73.7259L177.67 73.345L178.245 73.1725L179.417 72.9103L180.006 72.7953L181.196 72.648L181.793 72.5905L182.994 72.5653M367.966 72.4935L369.336 72.6911L369.771 72.7665L370.547 72.9138L370.924 72.9857L371.589 73.1294L371.909 73.1977L372.467 73.3342L372.733 73.4025L373.182 73.539L373.398 73.6037L373.75 73.7366L373.912 73.8013L374.167 73.9342L374.588 74.3331L374.62 74.4157L374.638 74.6852V74.8361L374.605 75.2061L374.562 75.5978L374.375 76.4924L374.268 76.9308L374.02 77.6565L373.955 77.811L373.833 78.0266L373.667 78.1631H373.621L373.426 78.0661L373.315 78.005L373.017 77.8074L371.913 76.9487L371.546 76.6325L370.842 76.1583L370.486 75.9427L369.738 75.6445L369.35 75.5187L368.476 75.3714L366.931 75.2888H366.266L365.198 75.3858L364.695 75.4576L363.839 75.7415L363.426 75.9139L362.631 76.4457L361.341 77.5955L360.888 78.0518L360.119 79.065L359.759 79.5895L359.177 80.7249L358.911 81.3034L358.515 82.5322L358.346 83.1573L358.145 84.4508L358.07 85.1047L358.066 86.4449L358.091 87.1168L358.285 88.4677L358.411 89.1468L358.807 90.4905L359.633 92.4631L359.924 93.0379L360.633 94.0332L361.007 94.5075L361.866 95.2907L362.311 95.6608L363.296 96.2321L363.803 96.4908L364.9 96.8428L365.457 96.9902L366.636 97.1159L367.233 97.1483L368.473 97.0405L369.098 96.9578L370.382 96.6129L372.326 95.8225L372.621 95.6752L373.175 95.4308L373.441 95.3159L373.894 95.1506L374.106 95.0787L374.415 95.0105L374.652 95.0392L374.677 95.0787L374.685 95.2584L374.681 95.3626L374.638 95.6428L374.357 96.6955L374.268 96.9507L374.045 97.4034L373.926 97.6153L373.631 97.989L373.473 98.1651L373.089 98.4669L372.88 98.607L372.388 98.8441L372.129 98.9519L371.51 99.1316L371.187 99.2142L370.428 99.3436L370.033 99.401L369.116 99.4873L367.553 99.5735L366.977 99.595L365.885 99.5987L365.349 99.5915L364.364 99.5484L363.889 99.5196L363.059 99.4262L362.667 99.3723L362.035 99.2394L361.582 99.1208L360.694 98.819L360.252 98.6573L359.396 98.2693L358.551 97.8633L357.002 96.8177L356.628 96.5411L355.934 95.941L355.593 95.632L354.971 94.9745L354.673 94.6404L354.133 93.9326L353.432 92.8295L353.177 92.3696L352.836 91.6618L352.692 91.3133L352.523 90.5552L352.487 90.3468L352.44 89.8618L352.422 89.6031L352.397 88.9851L352.39 88.6581L352.379 87.8641V86.4269V85.9383L352.386 85.1011L352.393 84.7023L352.411 84.0196L352.422 83.6963L352.455 83.143L352.473 82.8807L352.526 82.4244L352.584 81.9896L352.771 81.289L353.191 80.2578L353.418 79.7871L353.957 78.9069L354.241 78.4721L354.895 77.6709L355.233 77.2757L355.999 76.5535L356.394 76.2014L357.268 75.5583L357.717 75.2493L358.695 74.6923L359.198 74.4229L360.277 73.9558L360.83 73.7294L362.006 73.3486L363.882 72.8815L364.202 72.8132L364.767 72.7055L365.036 72.6552L365.522 72.5761L365.989 72.5043L366.787 72.4504L367.179 72.436M231.049 86.9227L231.052 88.5647V89.3552L231.056 90.7708V91.4499L231.052 92.6535L231.049 93.232L231.041 94.2452L231.034 94.7266L231.013 95.5638L230.998 95.9626L230.962 96.6381L230.941 96.9578L230.883 97.4932L230.851 97.7411L230.772 98.1507L230.729 98.3375L230.621 98.6358L230.567 98.7723L230.427 98.9771L230.283 99.1639L229.884 99.3256L229.661 99.3795L229.089 99.3867L228.007 99.3615H227.716L227.188 99.3256L226.936 99.304L226.505 99.2286L226.307 99.1855L225.998 99.0741L225.861 99.013L225.696 98.8693L225.66 98.8262L225.595 98.5783L225.567 98.4238L225.513 97.9459L225.491 97.6764L225.451 96.9542L225.434 96.5626L225.405 95.5817L225.39 95.0608L225.376 93.8068L225.369 93.1457L225.362 91.6079V90.7995L225.365 88.9599L225.383 85.8449L225.477 73.3127L228.263 73.2085L231.049 73.1043M243.99 96.1063L252.797 96.3075V99.1819L245.697 99.2789L238.598 99.3759V73.133H243.99M338.608 72.533L339.175 72.8635L339.226 72.9246L339.38 73.2228L339.463 73.3953L339.664 73.866L340.326 75.6481L340.434 75.9678L340.653 76.5822L340.764 76.8769L340.973 77.3978L341.074 77.6386L341.246 78.0086L341.437 78.3248L341.526 78.4182L341.67 78.7416L341.767 79.2662V79.3488L341.85 79.6937L341.904 79.8913L342.073 80.4159L342.17 80.6962L342.404 81.3321L342.81 82.3381L342.882 82.507L343.054 82.9202L343.144 83.1358L343.349 83.6244L343.561 84.131L344.05 85.2987L345.567 88.942L345.804 89.5097L346.254 90.5732L346.473 91.087L346.854 91.9672L347.034 92.3732L347.307 92.9661L347.364 93.0954L347.454 93.2751L347.541 93.4332L347.616 93.5373L347.814 93.9074L347.922 94.1158L348.166 94.6476L348.418 95.2081L348.946 96.5303L349.075 96.8536L349.302 97.4752L349.41 97.7734L349.582 98.2908L349.661 98.5316L349.751 98.8837L349.766 99.1495L349.726 99.1926L349.431 99.2537L349.255 99.2825L348.745 99.3184L348.472 99.3364L347.821 99.3507L347.487 99.3543L346.775 99.3507L346.419 99.3436L345.722 99.3148L345.38 99.3004L344.769 99.2537L344.481 99.2286L344.032 99.1639L343.629 99.0489L343.565 99.0094L343.421 98.8369L343.349 98.7363L343.205 98.4776L342.853 97.5291L342.763 97.177L342.544 96.4045L342.425 96.0093L342.152 95.1793L341.189 92.6247L340.7 91.457H335.85L335.146 91.4642L334.804 91.4678L334.2 91.4822L333.913 91.493L333.409 91.5145L333.169 91.5289L332.759 91.5612L332.374 91.5972L331.864 91.7014L331.461 91.9061L331.414 91.9672L331.281 92.2367L331.209 92.3912L331.041 92.8044L330.491 94.3314L330.278 94.9889L329.93 96.0596L329.768 96.5554L329.502 97.3387L329.376 97.698L329.157 98.2369L329.053 98.4776L328.859 98.819L328.758 98.9699L328.553 99.1567L328.449 99.2358L328.208 99.3148L328.078 99.3471L327.769 99.3615H327.201H326.77L326.026 99.2537L325.864 99.2214L325.616 99.1352L325.512 99.092L325.404 98.9914L325.375 98.9411L325.372 98.7292L325.382 98.607L325.454 98.2872L325.896 97.1052L326.425 95.9913L327.413 93.8823L327.651 93.3757L328.093 92.4235L328.309 91.9601L328.693 91.1229L328.876 90.7205L329.193 90.0235L329.34 89.6965L329.574 89.1683L329.682 88.9276L329.818 88.6006L329.905 88.3635V88.3384L329.966 88.1587L330.005 88.0509L330.131 87.7419L330.674 86.4988L330.728 86.3802L330.879 86.0425L330.958 85.8556L331.156 85.3921L331.26 85.1442L331.497 84.5765L331.623 84.2783L331.893 83.6244L332.169 82.9525L332.788 81.4435L333.737 79.0901L334.053 78.3033L334.657 76.8302L334.952 76.1223L335.473 74.9115L335.595 74.6277L335.811 74.139L335.915 73.9091L336.091 73.5282L336.174 73.3558L336.3 73.1043L336.426 72.8923L336.551 72.7414L336.997 72.551L337.241 72.4719L337.806 72.4288L338.086 72.4252M218.381 86.1431L218.287 99.1819H212.895L212.798 92.7972L212.697 86.409L206.867 86.5096L201.032 86.6066L200.935 92.984L200.835 99.3615H195.46V73.133H200.831L201.032 83.0136L212.694 83.2112L212.895 73.3127L215.685 73.2085L218.478 73.1043M308.056 73.1294L308.217 73.1618L308.494 73.3378L308.631 73.4564L308.9 73.8803L308.969 74.0061L309.112 74.3187L309.188 74.4875L309.35 74.8936L309.436 75.1091L309.619 75.6229L309.713 75.896L309.928 76.5248L310.04 76.8553L310.288 77.617L310.417 78.0158L310.709 78.9141L310.86 79.3847L311.201 80.4411L311.773 82.2088L312.103 83.2328L312.743 85.1478L312.898 85.6077L313.193 86.4664L313.336 86.8832L313.602 87.6413L313.732 88.0042L313.958 88.6366L314.07 88.9348L314.253 89.4234L314.339 89.6462L314.472 89.9624L314.605 90.2282L314.695 90.354L314.835 90.4977L314.9 90.5516H315.015L315.073 90.5337L315.195 90.3792L315.421 89.9552L315.468 89.8582L315.623 89.4594L315.709 89.2258L315.925 88.5971L316.036 88.2593L316.302 87.4437L316.439 87.0197L316.737 86.0712L317.039 85.0975L317.686 82.9454L318.595 79.78L318.772 79.1476L319.074 78.0661L319.217 77.5559L319.462 76.69L319.58 76.2804L319.775 75.6086L319.864 75.2924L320.019 74.7894L320.091 74.5558L320.21 74.1929L320.263 74.0277L320.357 73.7833L320.565 73.3809L320.598 73.3414L320.792 73.2767L320.907 73.248L321.23 73.2085L322.471 73.2013L324.128 73.3127L323.021 76.3667L322.945 76.5751L322.729 77.1823L322.614 77.5128L322.327 78.332L322.176 78.7668L321.827 79.7656L321.647 80.283L321.252 81.4255L321.051 82.0112L320.619 83.2651L320.4 83.9011L319.947 85.2233L318.552 89.3013L315.191 99.1819L313.534 99.2933L313.042 99.3256L312.305 99.2825L311.97 99.2394L311.492 99.0094L311.28 98.8621L310.993 98.3914L310.691 97.3638L310.665 97.2237L310.536 96.7315L310.457 96.4512L310.234 95.7003L310.108 95.2943L309.799 94.3134L309.634 93.796L309.249 92.614L309.048 92.0032L308.598 90.6522L308.365 89.9624L307.858 88.4749L307.599 87.7168L307.049 86.1215L306.183 83.6424L306.075 83.3334L305.856 82.7693L305.748 82.5034L305.543 82.0579L305.449 81.8531L305.288 81.5728L305.115 81.3968H305.097L305.029 81.483L304.993 81.5405L304.889 81.7309L304.781 81.9429L304.479 82.6364L304.317 83.0208L303.94 83.9801L303.332 85.6185L303.124 86.2006L302.721 87.3144L302.523 87.8569L302.171 88.8126L302.006 89.2582L301.747 89.948L301.689 90.0953L301.599 90.3289L301.506 90.5588L301.484 90.6091L301.412 90.7852L301.377 90.8858L301.276 91.1552L301.172 91.4463L300.891 92.2547L300.74 92.6858L300.399 93.6918L299.86 95.3195L298.529 99.3615H296.24L295.686 99.3328L295.431 99.3112L295.057 99.2394L294.888 99.1962L294.669 99.0705L294.575 99.0022L294.485 98.8226L294.439 98.6753L294.306 98.2585L294.108 97.6549L294.079 97.5686L293.957 97.1411L293.889 96.8932L293.702 96.2069L293.605 95.8404L293.378 94.9889L293.022 93.6128L292.9 93.1421L292.656 92.2151L292.537 91.7624L292.314 90.9396L292.206 90.548L292.027 89.9193L291.843 89.3013L291.8 89.1791L291.681 88.7983L291.617 88.5899L291.462 88.0868L290.966 86.4269L290.927 86.2904L290.819 85.9275L290.761 85.7299L290.617 85.2556L290.463 84.7598L290.082 83.531L289.884 82.8879L289.438 81.483L288.759 79.3452L288.536 78.641L288.126 77.3152L287.932 76.6757L287.605 75.569L287.533 75.3139L287.407 74.8612L287.346 74.6492L287.256 74.2935L287.213 74.1319L287.159 73.8875L287.127 73.672V73.5498L287.242 73.3845L287.328 73.3127L287.698 73.2264L287.813 73.2121L288.105 73.1905L288.263 73.1833L288.655 73.1761H288.863L289.366 73.1833L290.269 73.2085L293.407 73.3127L293.659 74.5702L293.766 75.1055L294.058 76.3846L294.216 77.0565L294.604 78.5907L294.809 79.3919L295.291 81.1704L296.114 84.0915L296.268 84.634L296.585 85.7335L296.739 86.276L297.027 87.282L297.163 87.7635L297.39 88.5647L297.444 88.748L297.527 89.0498L297.627 89.4055L297.731 89.7791L298.012 90.3289L298.08 90.4402L298.22 90.5768L298.404 90.6343L298.458 90.6163L298.616 90.4115L298.698 90.2821L298.896 89.8977L298.997 89.6893L299.212 89.1719L299.525 88.3132L299.626 88.0114L299.827 87.4401L299.928 87.1671L300.118 86.6892L300.208 86.4664L300.359 86.1323L300.521 85.8556L300.593 85.7838L300.708 85.5143L300.787 85.0724V85.0041L300.827 84.7849L300.852 84.6664L300.938 84.3789L301.297 83.4268L301.366 83.2723L301.585 82.7046L301.704 82.3848L301.995 81.5728L302.146 81.1453L302.469 80.186L302.958 78.7021L303.08 78.3212L303.3 77.635L303.404 77.3044L303.594 76.7116L303.774 76.1403L304.069 75.2564L304.206 74.854L304.439 74.2576L304.554 73.9917L304.766 73.6288L304.874 73.4708L305.104 73.2875L305.227 73.2121L305.514 73.1438L305.669 73.1222H306.05L306.769 73.133H307.056L307.509 73.1079L307.718 73.1007M397.936 73.1438L398.184 73.1474L398.554 73.1797L398.716 73.2013L398.906 73.2911L398.978 73.3486L398.985 73.5282L398.964 73.6324L398.78 73.9271L398.665 74.0923L398.284 74.5343L398.069 74.7786L397.49 75.393L396.386 76.5463L395.804 77.1535L394.772 78.2458L394.276 78.7739L393.417 79.7153L393.007 80.168L392.31 80.9692L391.979 81.3537L391.44 82.0184L391.188 82.3381L390.8 82.8771L390.624 83.1322L390.379 83.5526L390.275 83.7502L390.171 84.0592L390.16 84.4113L390.192 84.5047L390.412 84.9179L390.548 85.155L390.958 85.8233L391.185 86.1826L391.749 87.0593L392.051 87.5192L392.741 88.5575L393.101 89.0929L393.884 90.2462L394.287 90.8319L395.139 92.0571L397.774 95.7686L398.079 96.1889L398.636 96.9758L398.899 97.3531L399.341 98.0034L399.542 98.3052L399.819 98.7471L399.877 98.8405L399.949 98.9771L399.995 99.092L399.999 99.1352L399.719 99.207L399.539 99.2394L398.971 99.2861L398.662 99.3076L397.91 99.3364L397.519 99.3471L396.674 99.3507H396.253L395.419 99.3328L395.013 99.322L394.287 99.2825L393.945 99.2609L393.424 99.1998L392.982 99.0849L392.957 99.0669L392.856 98.9483L392.795 98.8765L392.633 98.6573L392.461 98.4166L391.965 97.6872L391.699 97.2884L391.066 96.3147L390.041 94.6907L389.614 94.008L388.877 92.8367L388.524 92.2798L387.924 91.3493L387.64 90.9109L387.158 90.1995L386.932 89.8725L386.562 89.3659L386.389 89.136L386.116 88.8162L385.99 88.6797L385.796 88.5288L385.71 88.4713L385.584 88.4677L385.458 88.615L385.444 88.6509L385.419 88.8198L385.404 88.9204L385.379 89.2079L385.365 89.3659L385.339 89.7612L385.325 89.9696L385.3 90.451L385.275 90.954L385.228 92.1577L385.178 94.1517L385.084 99.1819L382.474 99.2861L382 99.3076L381.259 99.3112L380.918 99.3076L380.418 99.2609L380.195 99.2322L379.908 99.1352L379.786 99.0813L379.681 98.9268L379.671 98.8944L379.649 98.5747L379.638 98.3771L379.62 97.7519L379.613 97.4069L379.599 96.5123L379.591 96.0344L379.584 94.9027L379.581 94.3134L379.577 92.984L379.573 92.2978V90.8031L379.577 90.0414L379.581 88.421L379.599 85.8844L379.692 73.3127H385.084L385.185 78.5153L385.199 79.2302L385.246 80.5596L385.275 81.1956L385.347 82.2771L385.365 82.5286L385.404 82.9597L385.422 83.1645L385.465 83.4951L385.483 83.6424L385.526 83.8544L385.591 84.0232L385.634 84.0664L385.882 83.937L386.03 83.8436L386.457 83.4663L386.691 83.2507L387.263 82.6651L387.561 82.3489L388.24 81.598L388.589 81.2028L389.34 80.3261L389.721 79.8734L390.505 78.9069L392.813 75.8888L394.79 73.1582L397.058 73.1474L397.393 73.1438M282.274 99.1819L279.664 99.2861L279.19 99.3076L278.449 99.3112L278.108 99.3076L277.608 99.2609L277.385 99.2322L277.097 99.1352L276.975 99.0813L276.871 98.9268L276.86 98.8944L276.839 98.5747L276.828 98.3771L276.81 97.7519L276.803 97.4069L276.788 96.5123L276.781 96.0344L276.774 94.9027L276.77 94.3134L276.767 92.984L276.763 92.2978V90.8031L276.767 90.0414L276.77 88.421L276.788 85.8844L276.882 73.3127H282.274M263.412 96.1279H268.244L269.121 96.1315H269.527L270.181 96.1422L270.487 96.1494L270.954 96.1782L271.17 96.1925L271.486 96.2392L271.63 96.268L271.831 96.3434L271.917 96.3866L272.032 96.4979L272.234 96.9974L272.302 97.274L272.403 97.7231L272.446 97.9351V98.2693L272.428 98.4238L272.27 98.6573L272.162 98.7651L271.788 98.9232L271.565 98.995L270.918 99.092L270.551 99.1352L269.57 99.1891L269.3 99.1998L268.689 99.2178L268.369 99.225L267.658 99.2394L267.287 99.2465L266.464 99.2609L265.095 99.2789L264.408 99.2897L263.207 99.3004L262.636 99.304H261.658H261.191L260.411 99.2933L260.044 99.2861L259.444 99.2609L259.167 99.2465L258.728 99.207L258.531 99.1891L258.239 99.1352L258.106 99.1064L257.941 99.0382L257.873 99.0022L257.815 98.9196L257.804 98.8872L257.783 98.5675L257.772 98.3699L257.754 97.7483L257.747 97.3998L257.736 96.5087L257.729 96.0309L257.718 94.8991L257.715 94.3098L257.711 92.9804V92.2978V90.8031L257.715 90.0414L257.718 88.421L257.736 85.8844L257.83 73.3127H263.222M335.836 81.0375L335.689 81.1597L335.455 81.4615L335.297 81.8495V81.9034L335.196 82.2447L335.135 82.4495L334.926 83.0459L334.811 83.3657L334.527 84.1346L334.039 85.3993L333.866 85.8341L333.55 86.6461L333.399 87.0377L333.151 87.6988L333.036 88.0006L332.881 88.439L332.78 88.7587V88.7839L333.054 88.8306L333.23 88.8522L333.794 88.8881L334.11 88.906L334.894 88.9276L336.239 88.942H336.627L337.281 88.9384L337.59 88.9348L338.09 88.924L338.324 88.9168L338.69 88.8917L338.859 88.8809L339.107 88.8414L339.33 88.7983L339.503 88.6509L339.557 88.5647L339.495 88.3132L339.388 87.9683L339.093 87.1275L338.935 86.6892L338.561 85.7155L337.299 82.6759L337.198 82.4531L337.029 82.0794L336.947 81.9034L336.803 81.616L336.666 81.3501L336.443 81.0483L336.339 80.9297L336.149 80.883" fill="#3D5FA7"/>
</svg>
