<svg width="56" height="51" viewBox="0 0 56 51" fill="none" xmlns="http://www.w3.org/2000/svg">
<path d="M26.8784 50.2768H26.8393H26.8784ZM26.199 50.0437L26.4511 50.1758L26.5643 50.2148L26.78 50.2755H26.7787L26.563 50.2148L26.4511 50.1758L26.1977 50.0437L26.0656 49.971M28.8614 48.2423L28.6295 48.5765L28.4597 48.819L28.1698 49.2205L28.031 49.4078L27.7911 49.7015L27.6751 49.8362L27.7897 49.7015L28.0297 49.4064L28.1672 49.2205L28.4556 48.819L28.6241 48.5751L28.9194 48.1588M23.0851 47.4851L23.0783 47.6347L23.0918 47.7034L23.1296 47.8368L23.0918 47.7047L23.0783 47.6373L23.0851 47.4905L23.0932 47.4123L23.0945 47.4096M54.5859 28.9804L54.0723 29.7727L53.889 30.0421L53.6072 30.5932L53.5452 30.7306L53.4455 30.9988L53.3376 31.3895L53.2972 31.5795L53.192 31.9877L53.1354 32.1952L53.002 32.6291L52.8618 33.067L52.5126 33.9751L52.3307 34.4278L51.9235 35.3022L51.8198 35.5138L51.6068 35.918L51.2832 36.4798L51.1228 36.7453L50.7494 37.2842L50.5553 37.555L50.1212 38.1007L49.8975 38.3742L49.4108 38.9199L49.1614 39.1934L48.6276 39.7324L48.3553 40.0018L47.781 40.5287L47.4899 40.7887L46.8833 41.2953L46.5772 41.5446L45.9437 42.0242L44.9744 42.7047L44.8221 42.8057L44.4487 43.0294L44.2519 43.1452L43.8084 43.3878L43.3527 43.633L42.3444 44.1275L42.0937 44.246L41.6003 44.471L41.3577 44.5788L40.9007 44.7702L40.6796 44.8618L40.2873 45.0086L39.798 45.1663L39.6861 45.1959L39.4138 45.2835L39.0566 45.4128L38.9662 45.4492L38.7506 45.526L38.6373 45.5638L38.3772 45.6419L38.1075 45.72L37.4618 45.8777L37.1248 45.9572L36.3807 46.1094L35.9992 46.1849L35.2012 46.3264L34.8008 46.3937L33.9947 46.5136L33.5957 46.5702L32.8287 46.6619L32.4552 46.7036L31.7731 46.7589L31.61 46.7696L31.3081 46.7845L30.8969 46.7925H30.7608L30.541 46.7912H30.4386L30.2701 46.8033L30.1892 46.8128L30.0504 46.8545L29.983 46.8801L29.8522 46.9704L29.8104 47.0027L29.8225 46.9893L29.8441 46.9691L29.9263 46.8801L29.9991 46.7939L30.0423 46.74L30.2364 46.4921L30.3537 46.3331L30.6017 45.9949L30.7365 45.8063L31.0088 45.4169L31.145 45.2175L31.5979 44.5559L31.9309 44.0736L32.0994 43.831L32.4337 43.3514L32.5874 43.1331L32.8826 42.7141L33.0012 42.547L33.3571 42.0498L33.5835 41.7319L33.6833 41.5917L33.872 41.325L33.9448 41.2239L34.0729 41.0434L34.1066 40.9975L34.2684 40.7725L34.4315 40.5475L34.5326 40.4101L34.7442 40.1177L34.8615 39.9587L35.0987 39.634L35.2187 39.4696L35.5571 38.9927L35.7552 38.6976L35.8348 38.5723L35.9777 38.3392L36.0221 38.2557L36.0612 38.1789L36.0734 38.1506L36.0909 38.1021V38.0886L36.0531 37.9997L35.9857 37.9565L35.9291 37.9417L35.797 37.9161L35.704 37.908L35.4991 37.8986H35.3657L35.1823 37.9013L35.5935 37.8744L36.4158 37.8259L36.6517 37.8124L37.0615 37.7827L37.2583 37.7666L37.5926 37.7302L37.7503 37.7113L38.0159 37.6669L38.1399 37.6426L38.3435 37.5874L38.4378 37.5577L38.5848 37.489L38.6522 37.454L38.7506 37.3704L38.7951 37.3273L38.8517 37.2263L38.8975 37.0552L38.9029 37.004L38.8867 36.8504L38.8746 36.7682L38.826 36.5701L38.7128 36.2589L38.7802 36.4125L38.826 36.5041L38.9123 36.6671L38.9514 36.7183L39.0229 36.8032L39.0552 36.8167L39.1159 36.8261L39.1428 36.8032L39.2952 36.7385L39.4772 36.6846L39.5985 36.6536L39.8587 36.593L40.0083 36.5607L40.317 36.5L40.4801 36.4718L41.4776 36.2696L41.7809 36.1969L41.9063 36.1632L42.1382 36.0999L42.2137 36.0729L42.7003 35.9368L42.8567 35.9059L42.9254 35.8951L43.0521 35.8803L43.098 35.8789L43.249 35.8627L43.3838 35.8371L43.466 35.8169L43.6426 35.7711L43.7437 35.7428L43.9553 35.6809L44.0726 35.6445L44.57 35.4855L44.8531 35.3885L45.4355 35.1837L45.7442 35.0691L47.0127 34.5881L47.6112 34.3402L48.1962 34.0937L48.4591 33.9751L48.9619 33.7447L49.1668 33.6423L49.6063 33.4105L49.919 33.2367L50.0808 33.1424L50.7386 32.7476L51.0608 32.5415L51.6917 32.1265L51.964 31.9325L52.2269 31.7412L52.3414 31.6536L52.5585 31.4825L52.6461 31.407L52.9966 31.1564L53.095 31.1079L53.1327 31.0985L53.1974 31.0863L53.215 31.0971L53.2783 31.0877L53.3322 31.0432L53.3619 31.0055L53.4859 30.8169L53.5425 30.6808L53.6585 30.441L53.7609 30.251L53.8202 30.1499L54.0764 29.7363L54.2004 29.5638L54.7558 28.6894M7.49641 31.1322L7.60291 31.1793L7.66087 31.209L7.80376 31.3046L8.05989 31.5054L8.30658 31.7115L8.85253 32.1198L9.13293 32.3219L9.73819 32.7193L10.0482 32.9161L10.7101 33.3001L11.0471 33.49L11.7575 33.8565L12.1175 34.0384L12.871 34.386L13.2525 34.5572L14.0425 34.8819L14.4415 35.0422L15.2611 35.3413L16.5201 35.7576L16.8262 35.8533L17.3451 36.0056L17.6026 36.0797L18.131 36.2184L18.2712 36.2548L18.5772 36.3289L18.7363 36.368L19.0949 36.4515L19.2823 36.496L19.7109 36.5944L20.4537 36.7614L20.6721 36.8113L21.2113 36.915L21.4944 36.9689L22.1374 37.0781L22.469 37.1333L23.1835 37.2424L23.5474 37.2963L24.2996 37.4014L25.0559 37.5052L26.5387 37.679L26.896 37.7181L27.5605 37.7814L28.4529 37.8528L28.6659 37.8663L29.0245 37.9013L29.1795 37.9175L28.9773 37.9188L28.7926 37.9269L27.8275 37.966L26.0898 41.3344L25.4037 42.6683L25.192 43.0806L25.0936 43.2719L24.9036 43.6438L24.8173 43.8122L24.6528 44.1356L24.5814 44.2743L24.4479 44.5371L24.394 44.6435L24.297 44.8362L24.2633 44.9035L24.2066 45.0167L24.1959 45.0396L24.0206 45.3765L23.8804 45.6203L23.8197 45.7133L23.7106 45.9033L23.6243 46.0731L23.5771 46.1728L23.4059 46.5446L23.4383 46.4584L23.4881 46.3088L23.5097 46.2388L23.5353 46.1404L23.538 46.0663L23.534 46.0636L23.4881 46.0461L23.4585 46.034L23.3641 46.0003L23.3115 45.9814L23.174 45.9343L23.1012 45.91L22.9273 45.8507L22.7454 45.7901L22.2951 45.6392L21.5321 45.3899L21.0441 45.231L20.1207 44.8968L19.6665 44.727L18.8064 44.3673L18.3831 44.1841L17.5784 43.7947L17.182 43.5953L16.4217 43.1695L16.0483 42.9512L15.3271 42.4864L14.9699 42.2479L14.2784 41.7372L13.936 41.4759L13.2646 40.914L12.2738 40.0113L11.9719 39.7216L11.4124 39.1355L11.1401 38.8404L10.6333 38.2395L10.3879 37.9377L9.93231 37.3179L9.71123 37.004L9.30547 36.3613L9.10866 36.0352L8.74739 35.3629L8.57349 35.0233L8.25535 34.3173L8.10168 33.9603L7.82399 33.2179L7.44923 32.0564L7.41149 31.9258L7.35757 31.7088L7.33465 31.6064L7.31173 31.4434L7.30364 31.3679L7.31038 31.2588L7.31847 31.2116L7.35757 31.1551L7.38183 31.1335L7.45462 31.1281M29.3116 44.3592L29.1822 44.5371L29.3116 44.3579M27.4163 43.094L27.0955 43.7152L26.935 44.0251L27.0011 43.8984L27.0968 43.7138L27.4513 43.0267M31.8756 40.7968L31.7246 41.007L31.8796 40.7914M33.7521 38.2112L33.5674 38.3904L33.4865 38.513L33.3072 38.7771L33.1481 39.0061L33.047 39.1503L32.8287 39.4602L32.6939 39.6502L32.4081 40.053L32.2369 40.2915L31.9888 40.6391L32.2463 40.2794L32.4162 40.0409L32.7019 39.6394L32.8354 39.4508L33.0524 39.1422L33.1535 38.9967L33.3126 38.769L33.4919 38.5036L33.5768 38.3756L33.744 38.2018L33.7925 38.1627L33.8424 38.1371M29.8428 38.1048L29.8495 38.1236L29.8401 38.1991L29.8306 38.2449L29.7727 38.3998L29.7538 38.4456L29.7053 38.5575L29.6796 38.6167L29.6136 38.7609L29.5785 38.8364L29.4923 39.0156L29.4464 39.1112L29.3386 39.3309L29.282 39.4454L29.2698 39.4696L29.4667 39.0519L29.561 38.8418L29.6486 38.6383L29.685 38.5507L29.7497 38.3864L29.774 38.3217L29.8145 38.2018L29.8252 38.16L29.836 38.0994M33.8815 38.1182L33.9138 38.1007L33.9812 38.0724L34.0068 38.0657M38.2855 34.956L38.2841 35.0018L38.2882 35.1042L38.3044 35.1715L38.3435 35.3198L38.3758 35.4127L38.427 35.5502L38.4028 35.4963L38.3421 35.3346L38.3152 35.2578L38.2855 35.1365L38.2747 35.0799L38.2774 34.9923L38.2828 34.9506L38.3098 34.9048M38.7452 34.7283L38.7533 34.7269L39.2588 34.642M49.2477 31.3087L48.8231 31.5444L47.9536 32.0079L47.4858 32.2249L46.5247 32.6479L46.0111 32.8447L44.961 33.2286H44.9583L46.0084 32.846L46.5233 32.6493L47.4831 32.2249L47.9522 32.0079L48.8231 31.5444L49.2477 31.3073L50.0282 30.8034L51.0972 30.0017L50.0269 30.8034M34.1093 19.8062L36.3255 19.8574L36.1731 19.8682L36.0909 19.8803L35.9399 19.9046L35.8941 19.9194L35.8213 19.949V19.9666L35.8981 20.0258L36.0194 20.073L36.1084 20.0986L36.3025 20.1498L36.4185 20.1741L36.6638 20.2226L36.7986 20.2441L37.7746 20.4206L38.4648 20.5661L38.822 20.6497L40.2698 21.0094L40.9762 21.2156L41.6758 21.4244L42.0088 21.5322L42.6599 21.7478L42.9591 21.8556L43.5361 22.0698L43.7895 22.1749L44.2694 22.381L44.4622 22.478L45.5595 23.0736L46.185 23.463L46.4451 23.6543L46.9331 24.0356L47.1259 24.2242L47.4777 24.6015L47.6031 24.7901L47.8215 25.1674L47.8808 25.356L47.9684 25.736L47.963 25.9286L47.9212 26.314L47.8525 26.512L47.6853 26.9082L47.5546 27.1116L47.2513 27.501L46.9911 27.7678L46.8361 27.9025L46.5085 28.1733L46.3211 28.3094L45.9329 28.5802L45.7172 28.715L45.275 28.9818L45.0351 29.1125L44.5458 29.3698L44.2869 29.4938L43.7572 29.7376L43.4808 29.8535L42.9187 30.0799L42.6289 30.185L42.1179 30.3574L41.7068 30.4841L41.4776 30.5514L40.5057 30.8277L40.0015 30.961L39.4987 31.0904L39.2588 31.1497L38.7883 31.2642L38.5767 31.3127L38.1696 31.4043L37.9997 31.438L37.687 31.4959L37.5778 31.5108L37.2637 31.5566L37.0925 31.5862L37.0251 31.6037L36.9024 31.6388L36.8566 31.659L36.777 31.7034L36.7514 31.7304L36.711 31.7897L36.7029 31.826L36.6962 31.9028L36.7043 31.9513L36.7272 32.0524L36.7487 32.1144L36.7919 32.2316L36.7622 32.1588L36.5883 31.818L36.5438 31.7358L36.4562 31.5835L36.3362 31.3976L36.072 31.0271H32.799L32.0603 31.0203L31.8823 31.019L31.5507 31.0122L31.3903 31.0095L31.0978 31.0028L30.9576 30.9988L30.7136 30.9907L30.599 30.9866L30.4116 30.9759L30.3254 30.9718L30.2027 30.961L30.1002 30.9449L30.0854 30.9381L30.0274 30.8923L29.9937 30.864L29.9021 30.7778L29.8522 30.7293L29.7322 30.6067L29.6689 30.5407L29.5233 30.3857L29.3723 30.224L29.0164 29.8266L28.4381 29.1596L28.3384 29.0424L28.1092 28.7743L27.9892 28.6341L27.7277 28.3296L27.4594 28.0171L26.8623 27.3272L26.5603 26.9782L25.951 26.279L25.1044 25.3116L24.9143 25.096L24.5612 24.6931L24.3886 24.4964L24.0678 24.1313L23.9128 23.9534L23.6229 23.6233L23.4827 23.4616L23.2239 23.1652L23.0985 23.021L22.8694 22.7569L22.7575 22.629L22.5553 22.3959L22.4582 22.2827L22.2816 22.0765L22.1967 21.9782L22.0457 21.8003L21.9001 21.6292L21.6777 21.3611L21.578 21.2385L21.4364 21.0579L21.3744 20.9771L21.303 20.872L21.2625 20.7831V20.7669L21.303 20.7305L21.3286 20.7117L21.4108 20.6753L21.768 20.5837L21.8381 20.5715L22.012 20.5419L22.1037 20.5257L22.3032 20.488L22.8802 20.3748L22.9988 20.3506L23.2724 20.3034L23.4167 20.2792L23.7389 20.2333L23.906 20.2118L24.2727 20.1687L24.4601 20.1471L24.8645 20.1067L25.2783 20.0676L26.2017 19.9976L26.6762 19.9639L27.694 19.9086L28.2103 19.8817L29.286 19.8413L29.8266 19.8237L30.9225 19.8008L31.4698 19.7914L32.5496 19.7874M20.1032 20.9421L20.141 20.9569L20.2313 21.0162L20.2812 21.0512L20.4052 21.1603L20.4726 21.2223L20.6424 21.3934L20.7328 21.4864L20.9579 21.7303L21.0779 21.8623L21.369 22.1911L21.524 22.3662L21.8934 22.7906L21.9905 22.9038L22.2021 23.149L22.5472 23.5492L22.7858 23.8268L23.3345 24.4614L23.6135 24.7847L24.1932 25.4517L24.4789 25.7818L25.0181 26.4002L25.1476 26.5484L25.3875 26.8206L25.7083 27.1871L25.8526 27.3501L26.1195 27.6546L26.2516 27.8042L26.4942 28.0831L26.7328 28.3552L27.1413 28.8268L27.3341 29.0505L27.6576 29.4318L27.8086 29.6123L28.0539 29.9114L28.1658 30.0502L28.3397 30.2752L28.4179 30.379L28.5257 30.538L28.5729 30.6094L28.6228 30.7104L28.639 30.8061L28.6322 30.825L28.5877 30.8613L28.5608 30.8775L28.4812 30.9085L28.395 30.9381L28.1645 30.9786L28.0445 30.9947L27.8072 31.0001L27.6953 30.9961L27.5309 30.9556L27.5214 30.9516L27.4635 30.9395L27.4284 30.9327L27.3246 30.9166L27.2667 30.9085L27.1211 30.8883L27.0429 30.8775L26.8609 30.8546L26.6722 30.8303L26.2112 30.7765L25.4414 30.6916L24.9871 30.6444L24.1392 30.5447L23.7267 30.4949L22.9678 30.3938L22.5998 30.3426L21.9338 30.2402L21.613 30.189L21.0455 30.0853L20.7745 30.0341L20.3122 29.9303L20.0938 29.8791L19.7406 29.7781L19.5788 29.7269L19.3402 29.6285L19.1192 29.4843L19.1016 29.4655L19.0369 29.3819L19.0005 29.3334L18.8994 29.196L18.8455 29.1219L18.7134 28.9373L18.6446 28.8403L18.4883 28.6166L18.3252 28.3835L17.9423 27.8284L17.3236 26.9176L17.1106 26.6023L16.6792 25.965L16.4662 25.6511L16.0686 25.0663L15.9728 24.9262L15.7963 24.6675L15.71 24.5422L15.5576 24.3199L15.4849 24.2148L15.3622 24.0369L15.2179 23.8295L15.1411 23.7203L15.0009 23.502L14.9335 23.3956L14.8216 23.2002L14.7718 23.1073L14.7016 22.9564L14.6572 22.8055V22.7637L14.7367 22.664L14.7879 22.6114L14.9672 22.4956L15.0683 22.4349L15.3406 22.3042L15.4876 22.2369L15.8475 22.094L16.0375 22.0199L16.4797 21.8677L16.7102 21.7895L17.2265 21.6279L17.4948 21.547L18.0812 21.3799L19.0329 21.1266L19.254 21.0701L19.6489 20.9825L19.7379 20.9636L19.8754 20.938L20.0035 20.9218H20.0331M13.7081 23.2433L13.7796 23.2932L13.82 23.3255L13.9292 23.4428L13.9899 23.5115L14.149 23.7122L14.2352 23.8241L14.455 24.1218L14.5736 24.2849L14.8661 24.6972L14.9443 24.8076L15.1155 25.0542L15.2031 25.1809L15.3972 25.4611L15.497 25.6053L15.714 25.9206L15.8246 26.0822L16.0659 26.4352L16.1899 26.6171L16.4581 27.0092L16.8895 27.6452L16.9933 27.7974L17.1699 28.0656L17.2548 28.1936L17.3923 28.4145L17.457 28.5196L17.5581 28.6975L17.604 28.781L17.6687 28.9184L17.697 28.9818L17.728 29.0815L17.7388 29.1259L17.7347 29.1906L17.7293 29.2189L17.6929 29.2512L17.6053 29.2674L17.5797 29.2661L17.4584 29.2391L17.3883 29.2216L17.1982 29.1677L17.0958 29.1367L16.8585 29.0626L16.7358 29.0235L16.477 28.9373L16.2937 28.8753L15.9095 28.7258L15.714 28.649L15.315 28.4752L14.916 28.296L14.1301 27.8944L13.94 27.792L13.5787 27.5859L13.4035 27.4835L13.0827 27.28L12.9276 27.1803L12.6594 26.9877L12.3305 26.7195L12.255 26.6508L12.1283 26.5296L12.0689 26.473L11.9719 26.3719L11.8802 26.2749L11.771 26.1078L11.7252 26.0243L11.6821 25.8411L11.6578 25.4881L11.6564 25.3695L11.6713 25.1674L11.6834 25.0704L11.7279 24.8979L11.7562 24.813L11.8384 24.6486L12.0123 24.3913L12.1215 24.2485L12.414 23.9615L12.5677 23.8227L12.8966 23.5788L13.0584 23.467L13.355 23.3134L13.4224 23.2838L13.5423 23.2474L13.6839 23.2393M54.9903 28.2569L54.873 28.4873L54.838 28.5479L55.0496 28.1329M55.5794 26.535L55.4931 26.9472L55.4433 27.1561L55.2923 27.5845L55.2087 27.8015L55.1602 27.9025L55.2599 27.6438L55.477 27.0146L55.5403 26.7128L55.5942 26.3867M55.0038 23.3808L55.0631 23.5425L54.904 23.1746M54.4862 22.3945L54.6803 22.7111L54.7949 22.9483L54.652 22.6909L54.3716 22.2234M53.0842 20.6753L53.3552 20.9272L53.8418 21.4864L54.0764 21.7747L54.1384 21.869L54.0036 21.6939L53.2257 20.8154L53.0006 20.6039M42.4334 19.5246L42.974 19.7025L43.9863 20.0865L44.4784 20.2845L45.3883 20.7049L45.8291 20.9205L45.8331 20.9232L45.395 20.709L44.4864 20.2872L43.9917 20.0905L42.9793 19.7038L42.4374 19.526L42.1773 19.4451M38.0536 19.4303L37.9417 19.5394L37.935 19.5462L38.1305 19.3535M50.5472 18.7674L50.7238 18.8833L50.4838 18.731M39.3181 18.6852L39.4165 18.6973L39.6618 18.7485L39.7939 18.7782L39.8533 18.7944L39.8047 18.7809L39.6713 18.7526L39.4232 18.7027L39.3235 18.6906L39.1374 18.6758L39.0606 18.6825L38.9164 18.7041L38.853 18.7297L38.8463 18.7324L38.8611 18.7256L38.9231 18.7L39.0633 18.6771L39.1374 18.6704M49.4135 18.1247L49.7829 18.3322L49.059 17.9469M47.75 17.3325L48.1855 17.5224L48.6613 17.7528L48.451 17.6545L47.5694 17.257M7.57055 6.43096L7.61908 6.47138L7.75254 6.59803L7.82399 6.6681L7.99114 6.8446L8.25805 7.14506L8.30254 7.19896L8.43734 7.3539L8.51148 7.43879L8.69616 7.65167L8.79322 7.76485L9.01969 8.02624L9.13832 8.16097L9.39984 8.46009L9.66675 8.76863L10.272 9.45848L11.2156 10.5364L11.4677 10.8234L11.9247 11.3448L12.1471 11.5981L12.5461 12.0535L12.7389 12.2745L13.0854 12.6692L13.2512 12.8592L13.545 13.1974L13.6866 13.3604L13.9346 13.6461L14.0532 13.7835L14.2581 14.0233L14.3552 14.1379L14.521 14.3359L14.5992 14.4289L14.73 14.5892L14.7906 14.6647L14.889 14.7913L14.9349 14.8506L15.0063 14.949L15.071 15.0406L15.1317 15.1605L15.1546 15.2117L15.1532 15.2791L15.1155 15.3613L15.098 15.3882L14.9969 15.465L14.9376 15.5054L14.7691 15.5998L14.6787 15.6483L14.4644 15.748L14.1153 15.8908L13.9953 15.9353L13.723 16.043L13.5841 16.0983L13.2997 16.2155L13.1595 16.2734L12.898 16.3866L12.5677 16.5348L12.3911 16.6184L12.0905 16.7571L11.949 16.8218L11.7104 16.9269L11.5985 16.9768L11.4138 17.0509L11.3275 17.0846L11.186 17.1317L11.1199 17.1506L11.0148 17.1721L10.9662 17.1802L10.8867 17.1789L10.8126 17.1735L10.7047 17.1048L10.6913 17.094L10.6387 17.0347L10.609 16.9983L10.5268 16.8946L10.4823 16.8366L10.3758 16.6938L10.3192 16.617L10.1911 16.4392L10.0577 16.2546L9.74358 15.8059L9.23403 15.0608L9.14775 14.9315L8.95498 14.6458L8.85658 14.5003L8.64629 14.1904L8.43464 13.8751L7.98575 13.2136L7.76332 12.8848L7.3333 12.2516L7.2295 12.0993L7.03539 11.8137L6.76982 11.4229L6.65928 11.2613L6.45573 10.9621L6.35598 10.8166L6.17399 10.5485L5.99605 10.2871L5.69948 9.84922L5.56064 9.64307L5.33417 9.30623L5.22902 9.14859L5.06456 8.89798L4.98907 8.78346L4.87718 8.60695L4.82731 8.52746L4.7599 8.41158L4.7316 8.36038L4.69924 8.29301L4.68172 8.22969V8.21622L4.74103 8.16367L4.77878 8.13537L4.9001 8.05992L4.9675 8.0195L5.13601 7.92923L5.42583 7.79045L5.52694 7.74329L5.76015 7.61529L5.87877 7.54792L6.12277 7.39163L6.24274 7.31214L6.46786 7.14641L6.75499 6.91062L6.83453 6.83652L6.99225 6.70043L7.06909 6.63576L7.20658 6.52932L7.26994 6.47947L7.37239 6.41344L7.4681 6.37033H7.48563M46.3966 16.7841L46.863 16.9606L47.2459 17.1209L46.894 16.9808L46.0313 16.6521M44.9529 16.2788L45.4489 16.4405L45.6377 16.5092L45.213 16.3664L44.4339 16.1171M4.20856 0.0309893L4.38515 0.0511998L4.71812 0.125305L4.88123 0.167073L5.18993 0.284293L5.34091 0.34762L5.62534 0.507956L5.76284 0.594187L6.02166 0.796291L6.14838 0.90408L6.38159 1.15065L6.49482 1.27865L6.70377 1.56833L6.9882 2.05069L7.04212 2.15443L7.1284 2.39696L7.16749 2.52361L7.22815 2.80386L7.28073 3.0895L7.30769 3.71603L7.30904 4.02861L7.2295 4.62549L7.20389 4.76697L7.13109 5.02701L6.99225 5.36654L6.89519 5.55113L6.65389 5.88932L6.52583 6.0537L6.22926 6.34877L6.07693 6.49159L5.73858 6.73816L5.56468 6.85403L5.19667 7.04671L5.00929 7.13563L4.62106 7.26902L4.42424 7.3283L4.02792 7.39567L3.82976 7.42127L3.43613 7.41858L3.24067 7.4078L2.86187 7.32965L2.69337 7.28519L2.37793 7.17201L2.22425 7.11273L1.93982 6.96721L1.80097 6.89176L1.5435 6.71391L1.41948 6.62229L1.19301 6.4121L1.08247 6.30431L0.884309 6.06178L0.788598 5.93783L0.617399 5.66296L0.536516 5.52149L0.394972 5.21294L0.212989 4.71442L0.179288 4.60259L0.124019 4.41665L0.0984053 4.32907L0.0606611 4.17952L0.0256124 4.03535L0.00269384 3.79956L0 3.68234L0.0377443 3.42365L0.0512239 3.35224L0.0889682 3.18786L0.160416 2.89548L0.21838 2.66374L0.370708 2.24066L0.452939 2.03586L0.652447 1.66534L0.758942 1.48749L1.00294 1.17086L1.131 1.01995L1.41678 0.759912L1.56641 0.637302L1.89399 0.435198L2.06249 0.340883L2.42915 0.198062L2.61653 0.134736L3.01959 0.0525472L3.66261 0.00134739L3.84998 0L4.20856 0.0309893Z" fill="#3D5FA7"/>
<path d="M25.7584 49.7756L25.6479 49.7042L25.4362 49.5694L25.3338 49.5048L25.1545 49.3929L25.0695 49.3417L24.9401 49.2649L24.8283 49.203L24.6921 49.145L24.3578 48.947L24.1866 48.8378L23.8428 48.5845L23.6784 48.4565L23.4061 48.2099L23.3454 48.152L23.2537 48.0483L23.1661 47.9176L23.1311 47.8408L23.092 47.7033L23.0785 47.6346L23.0852 47.4851L23.0947 47.4056L23.1526 47.2048L23.3009 46.8033L23.3832 46.5958L23.5773 46.1727L23.6245 46.073L23.7107 45.9033L23.8199 45.7133L23.8806 45.6203L24.0208 45.3764L24.196 45.0396L24.2068 45.0167L24.2634 44.9035L24.2971 44.8361L24.3942 44.6435L24.4481 44.537L24.5816 44.2743L24.653 44.1355L24.8175 43.8122L24.9037 43.6437L25.0938 43.2719L25.1922 43.0805L25.4039 42.6682L26.09 41.3344L27.8276 37.9659L28.7928 37.9269L28.9775 37.9188L29.2592 37.9161L29.386 37.9188L29.5679 37.9363L29.6488 37.9484L29.7499 37.9889L29.8322 38.0778L29.8375 38.0913L29.8254 38.16L29.8146 38.2017L29.7742 38.3217L29.7499 38.3863L29.6852 38.5507L29.6488 38.6383L29.5612 38.8417L29.4668 39.0519L29.2255 39.5626L28.8036 40.4087L28.7281 40.5556L28.5583 40.883L28.472 41.0501L28.286 41.4112L28.0972 41.7776L27.6928 42.5605L27.4906 42.9512L27.097 43.7138L27.0013 43.8984L26.8206 44.2474L26.5713 44.7297L26.4162 45.0302L26.1332 45.5947L25.997 45.8655L25.7732 46.3331L25.722 46.4422L25.6357 46.6322L25.5939 46.7211L25.5306 46.8693L25.5023 46.938L25.4645 47.0364L25.4416 47.124V47.1563L25.4767 47.2318L25.4982 47.2708L25.5697 47.353L25.6492 47.4366L25.8784 47.5982L25.9983 47.6737L26.2518 47.7842L26.3124 47.8057L26.4257 47.8313L26.5726 47.8381L26.5915 47.8354L26.6683 47.7734L26.7128 47.7343L26.8382 47.6023L26.9056 47.5268L27.0741 47.3274L27.1644 47.2196L27.376 46.9569L27.4866 46.8168L27.736 46.4934L27.8654 46.3236L28.1525 45.9437L28.2994 45.7456L28.6189 45.3118L29.1339 44.6058L29.3118 44.3592L29.6475 43.8917L29.8133 43.6639L30.1233 43.2328L30.2757 43.0212L30.5614 42.6251L30.7016 42.4311L30.9632 42.0673L31.0912 41.8895L31.3298 41.5567L31.4471 41.3936L31.6641 41.0918L31.8758 40.7968L32.237 40.2915L32.4082 40.053L32.694 39.6502L32.8288 39.4602L33.0472 39.1503L33.1483 39.0061L33.3074 38.7771L33.4867 38.513L33.5676 38.3904L33.7522 38.2112L33.852 38.1303L34.1081 38.0225L34.1796 37.9996L34.3427 37.9646L34.4276 37.9484L34.6244 37.9255L34.7269 37.9161L34.9628 37.9053L35.3658 37.8986H35.4993L35.7042 37.908L35.7972 37.9161L35.9293 37.9417L35.9859 37.9565L36.0533 37.9996L36.0911 38.0886V38.102L36.0735 38.1505L36.0614 38.1788L36.0223 38.2556L35.9778 38.3392L35.8349 38.5723L35.7554 38.6976L35.5573 38.9926L35.2189 39.4696L35.0989 39.634L34.8617 39.9587L34.7444 40.1177L34.5327 40.4101L34.4316 40.5475L34.2685 40.7725L34.1068 40.9975L34.0731 41.0433L33.945 41.2239L33.8722 41.3249L33.6835 41.5917L33.5837 41.7318L33.3573 42.0498L33.0014 42.547L32.8827 42.7141L32.5875 43.1331L32.4339 43.3514L32.0995 43.831L31.931 44.0735L31.5981 44.5559L31.1451 45.2175L31.009 45.4169L30.7367 45.8063L30.6019 45.9949L30.3538 46.3331L30.2366 46.4921L30.0424 46.74L29.9993 46.7939L29.9265 46.8801L29.8443 46.969L29.8227 46.9892L29.7634 47.0539L29.731 47.0916L29.6529 47.186L29.5693 47.2883L29.359 47.5619L29.2485 47.7074L29.0031 48.0429L28.6243 48.5751L28.4558 48.819L28.1673 49.2205L28.0298 49.4064L27.7899 49.7015L27.6753 49.8362L27.4664 50.0316L27.3652 50.1165L27.1725 50.2189L27.0754 50.2593L26.88 50.2768L26.7802 50.2755L26.5645 50.2148L26.4513 50.1757L26.1992 50.0437L26.0657 49.971M38.6753 36.1672L38.6078 36.0069L38.5 35.7401L38.4501 35.6148L38.376 35.4127L38.3436 35.3197L38.3045 35.1715L38.2884 35.1042L38.2843 35.0017L38.2857 34.9559L38.3167 34.8886L38.3369 34.8576L38.4029 34.8158L38.4407 34.7956L38.5431 34.7673L38.74 34.7296L39.4382 34.6124L40.766 34.3469L41.4185 34.2095L42.6533 33.905L43.2586 33.7487L44.4003 33.4051L44.9611 33.2286L46.0112 32.8446L46.5248 32.6479L47.486 32.2248L47.9538 32.0079L48.8232 31.5444L49.2479 31.3086L50.027 30.8034L51.0974 30.0017L51.2699 29.8589L51.6015 29.5409L51.7646 29.3765L52.072 29.0262L52.2216 28.847L52.4993 28.4751L52.6328 28.2865L52.8727 27.9052L52.9873 27.7139L53.1814 27.3339L53.2731 27.1466L53.416 26.7815L53.4793 26.6023L53.5643 26.2628L53.6155 25.7966V25.7198L53.5939 25.5379L53.5791 25.4436L53.5306 25.2334L53.4766 25.0178L53.3068 24.5408L53.2124 24.301L52.986 23.8335L52.6153 23.2258L52.4184 22.9604L51.9466 22.4376L51.6986 22.1789L51.1257 21.6763L50.8264 21.4257L50.1578 20.9447L49.8127 20.7062L49.0565 20.2495L48.6682 20.0258L47.8297 19.5987L47.4011 19.3885L46.4898 18.9951L46.0247 18.8038L45.0447 18.4467L43.5052 17.959L43.2276 17.8795L42.6924 17.7191L42.5697 17.6814L42.3675 17.6181L42.1572 17.5494L42.1114 17.5318L41.9833 17.4955L41.9159 17.478L41.7609 17.4402L41.281 17.3446L41.13 17.3217L40.8806 17.2732L40.7647 17.2489L40.5841 17.195L40.5018 17.1667L40.3859 17.0993L40.336 17.063L40.2835 16.9767L40.2646 16.9309L40.2727 16.8177L40.2835 16.7571L40.3482 16.6129L40.3886 16.5348L40.5086 16.3502L40.7485 16.0228L40.82 15.9285L40.9467 15.7735L41.0087 15.7008L41.1287 15.5916L41.188 15.5418L41.3187 15.4758L41.3875 15.4475L41.5479 15.4246L41.6342 15.4178L41.8445 15.4353L41.9577 15.4488L42.2354 15.5054L42.385 15.5391L42.7517 15.6334L43.419 15.8167L44.035 15.9891L45.2132 16.3664L45.7929 16.5617L46.8942 16.9808L47.4348 17.1964L48.4512 17.6545L48.9486 17.8875L49.8734 18.3793L50.3236 18.6299L51.1499 19.1527L51.5503 19.4168L52.2715 19.9665L52.618 20.2441L53.2259 20.8154L54.0037 21.6938L54.2369 21.997L54.6521 22.6909L54.849 23.0466L55.1698 23.7903L55.2426 23.9763L55.3666 24.3441L55.4232 24.526L55.5135 24.8804L55.554 25.0555L55.6052 25.387L55.6375 25.8491V26.1213L55.5405 26.7128L55.4771 27.0146L55.2601 27.6438L55.1374 27.9604L54.8085 28.6045L54.2006 29.5638L54.0765 29.7363L53.8204 30.1499L53.7611 30.251L53.6586 30.4409L53.5427 30.6808L53.4861 30.8168L53.3621 31.0055L53.3324 31.0432L53.2785 31.0877L53.2151 31.0971L53.1976 31.0863L53.1329 31.0984L53.0952 31.1079L52.9967 31.1564L52.6463 31.407L52.5586 31.4824L52.3416 31.6536L52.227 31.7411L51.9642 31.9325L51.6919 32.1265L51.061 32.5415L50.7388 32.7476L50.081 33.1424L49.9192 33.2367L49.6064 33.4105L49.167 33.6423L48.9621 33.7447L48.4593 33.9751L48.1964 34.0936L47.6114 34.3402L47.0128 34.5881L45.7443 35.0691L45.4356 35.1836L44.8533 35.3884L44.5702 35.4855L44.0728 35.6444L43.9555 35.6808L43.7438 35.7428L43.6427 35.7711L43.4662 35.8169L43.3839 35.8371L43.2491 35.8627L43.0981 35.8789L43.0523 35.8802L42.9256 35.8951L42.8568 35.9058L42.7005 35.9368L42.2138 36.0729L42.1383 36.0998L41.9065 36.1632L41.7811 36.1969L41.4778 36.2696L40.4803 36.4717L40.3172 36.5L40.0085 36.5606L39.8588 36.593L39.5986 36.6536L39.4773 36.6846L39.2953 36.7385L39.143 36.8032L39.1161 36.8261L39.0554 36.8166L39.023 36.8032L38.9516 36.7183L38.9125 36.6671L38.8262 36.5041L38.7804 36.4124M28.8117 36.3262L28.6311 36.3195L28.1929 36.2898L27.9638 36.2723L27.4475 36.2265L27.1833 36.2022L26.6171 36.1443L26.3313 36.1133L25.7449 36.046L25.451 36.0109L24.8727 35.9382L24.5856 35.9004L24.0423 35.825L23.7768 35.7873L23.2969 35.7118L22.6781 35.604L22.4827 35.5663L22.1254 35.4976L21.9515 35.4639L21.6348 35.4019L21.3261 35.3413L20.8098 35.2389L20.5644 35.189L20.1465 35.1001L19.9457 35.057L19.5884 34.9748L19.2393 34.8913L18.5653 34.7053L18.386 34.6528L17.9856 34.5342L17.286 34.3213L16.6443 34.126L15.4271 33.6989L14.8299 33.4806L13.707 33.013L13.1583 32.7746L12.1379 32.2706L11.6418 32.0147L10.7319 31.4784L10.2911 31.2076L9.49841 30.643L9.11692 30.3587L8.44965 29.7713L8.13151 29.4762L7.59634 28.8713L6.94929 27.947L6.78213 27.66L6.53409 27.0793L6.42355 26.7896L6.28875 26.2075L6.23483 25.9165L6.21191 25.3358L6.21326 25.0461L6.30223 24.4694L6.3602 24.1811L6.55971 23.6111L6.67429 23.3282L6.98433 22.7677L7.15284 22.4901L7.57342 21.9431L8.32698 21.1401L8.5157 20.9622L8.91202 20.6187L9.11423 20.4502L9.5429 20.1215L9.76263 19.9584L10.2304 19.6405L10.4704 19.4828L10.9853 19.1702L11.2495 19.0153L11.8184 18.7054L12.1109 18.5505L12.7404 18.2379L13.0626 18.0816L13.7609 17.7622L14.8906 17.2732L15.2262 17.133L15.907 16.8716L16.2507 16.7436L16.9571 16.5065L17.3143 16.3906L18.0584 16.1751L18.4372 16.07L19.2326 15.8719L19.637 15.7749L20.497 15.593L20.9365 15.5027L21.8734 15.3329L22.3533 15.2481L23.3805 15.0864L25.0372 14.8506L25.2583 14.821L25.7678 14.7657L26.0307 14.7401L26.6144 14.693L26.915 14.67L27.5594 14.6296L27.8883 14.6108L28.5812 14.5771L29.2835 14.5461L30.7704 14.5043L31.5185 14.4868L33.0149 14.4733L33.3842 14.472L34.1054 14.4747L34.4626 14.4774L35.1488 14.4882L35.4858 14.4935L36.1221 14.5111L36.4321 14.5205L37.005 14.5461L37.2827 14.5582L37.7788 14.5906L38.0161 14.6081L38.4205 14.6485L38.6092 14.6687L38.9098 14.7172L39.2252 14.7967L39.29 14.8223L39.3924 14.9004L39.4612 15.0217V15.0311L39.4355 15.081L39.4194 15.1093L39.3641 15.1955L39.3331 15.2413L39.2509 15.3599L39.2077 15.4219L39.1012 15.566L38.9907 15.7169L38.7116 16.0807L38.2371 16.6844L37.0118 18.2123L31.9351 18.2635L31.5657 18.2675L30.8769 18.2756L30.5385 18.281L29.9063 18.2918L29.5962 18.2985L29.0125 18.312L28.7268 18.3187L28.1862 18.3362L27.6551 18.3551L26.6939 18.4049L26.2262 18.4332L25.3499 18.5046L24.9172 18.5437L24.0734 18.6421L23.6501 18.696L22.7846 18.8267L22.3438 18.8954L21.4029 19.0624L21.1603 19.1069L20.652 19.2026L19.8473 19.3589L19.4927 19.4289L18.8093 19.5785L18.4709 19.6553L17.8212 19.8183L17.5017 19.9019L16.8856 20.0784L16.581 20.1686L15.9986 20.3586L15.423 20.5526L14.3675 20.9824L12.9224 21.6938L12.669 21.8353L12.1648 22.1762L11.9168 22.3527L11.4517 22.7408L11.2293 22.9375L10.8424 23.3376L10.3922 23.917L10.3396 24.0005L10.252 24.1986L10.2115 24.301L10.1495 24.5287L10.0942 24.7618L10.0605 25.2778L10.0565 25.5365L10.1266 26.0485L10.1495 26.1725L10.2183 26.4069L10.349 26.7262L10.438 26.8987L10.6699 27.2396L10.7966 27.4094L11.1039 27.7408L11.2657 27.9065L11.6445 28.2299L11.844 28.3902L12.2915 28.7042L12.5248 28.8591L13.0411 29.1596L13.308 29.3091L13.889 29.5961L14.1882 29.739L14.8339 30.0111L15.8706 30.4019L16.341 30.5676L17.348 30.8694L17.8616 31.0149L18.9549 31.279L19.5116 31.407L20.6938 31.6347L21.2951 31.7438L22.5676 31.9352L23.2147 32.0268L24.5802 32.1817L25.2745 32.2545L26.7344 32.3744L27.4758 32.4296L29.0314 32.5132L31.4767 32.5981L35.1528 32.6843L35.9023 34.0451L36.0061 34.2324L36.1989 34.607L36.2919 34.7902L36.4523 35.1284L36.5278 35.2901L36.637 35.5528L36.6599 35.6135L36.6936 35.7118L36.7233 35.8223L36.7934 36.24L35.5451 36.3276L35.3982 36.3383L34.9992 36.3558L34.7835 36.3626L34.2712 36.3747L34.0043 36.3801L33.4125 36.3868L33.1092 36.3882L32.4689 36.3895H31.8218L30.5196 36.3747L30.2042 36.3693L29.6124 36.3545L29.3239 36.3464M37.2463 33.1491L37.2194 33.1074L37.152 32.9901L37.1183 32.9268L37.0428 32.7813L36.8298 32.3205L36.7974 32.2437L36.7489 32.1144L36.7273 32.0524L36.7044 31.9513L36.6963 31.9028L36.7031 31.826L36.7112 31.7896L36.7516 31.7304L36.7772 31.7034L36.8568 31.6589L36.9026 31.6387L37.0253 31.6037L37.0927 31.5862L37.2639 31.5565L37.5779 31.5107L37.6871 31.4959L37.9999 31.438L38.1697 31.4043L38.5768 31.3127L38.7885 31.2642L39.2589 31.1496L39.4989 31.0904L40.0017 30.961L40.5059 30.8276L41.4778 30.5514L41.707 30.484L42.1181 30.3574L42.629 30.1849L42.9189 30.0798L43.481 29.8535L43.7573 29.7376L44.2871 29.4937L44.5459 29.3698L45.0353 29.1124L45.2752 28.9817L45.7174 28.715L45.9331 28.5802L46.3213 28.3094L46.5087 28.1733L46.8362 27.9025L46.9913 27.7678L47.2514 27.501L47.5547 27.1116L47.6855 26.9081L47.8527 26.512L47.9214 26.314L47.9632 25.9286L47.9686 25.7359L47.881 25.356L47.8217 25.1673L47.6033 24.7901L47.4779 24.6015L47.1261 24.2242L46.9333 24.0356L46.4453 23.6543L46.1851 23.4629L45.5596 23.0735L44.4624 22.478L44.2696 22.381L43.7897 22.1749L43.5363 22.0698L42.9593 21.8555L42.66 21.7477L42.0089 21.5322L41.676 21.4244L40.9763 21.2155L40.27 21.0094L38.8222 20.6496L38.465 20.5661L37.7748 20.4206L36.7988 20.2441L36.664 20.2225L36.4186 20.174L36.3027 20.1498L36.1086 20.0986L36.0196 20.073L35.8983 20.0258L35.8215 19.9665V19.949L35.8943 19.9194L35.9401 19.9046L36.0911 19.8803L36.1733 19.8682L36.3809 19.8534L36.7368 19.8439H36.8514L37.0387 19.8426L37.1277 19.8412L37.2733 19.8331L37.4121 19.8237L37.613 19.7658L37.7074 19.7267L37.892 19.5825L37.9419 19.5394L38.0538 19.4303L38.2533 19.2282L38.3382 19.1419L38.4798 19.0005L38.5472 18.9345L38.6699 18.8347L38.7305 18.7889L38.8532 18.7297L38.9165 18.7041L39.0608 18.6825L39.1376 18.6758L39.3237 18.6906L39.4234 18.7027L39.6714 18.7526L39.8049 18.7809L40.1338 18.8644L40.7418 19.0247L41.3295 19.181L42.4376 19.5259L42.9795 19.7038L43.9919 20.0905L44.4866 20.2872L45.3952 20.7089L45.836 20.9232L46.6327 21.3759L47.0169 21.6049L47.6936 22.0832L48.0171 22.3258L48.5671 22.8256L48.8259 23.0776L49.2411 23.5936L49.3368 23.7243L49.5 23.9857L49.7035 24.3818L49.752 24.4937L49.8316 24.7402L49.868 24.8669L49.9219 25.135L49.9691 25.4085L49.9852 25.9879L49.9812 26.2776L49.8949 26.8394L49.868 26.9755L49.7938 27.2342L49.6536 27.5913L49.5768 27.7516L49.3692 28.083L49.256 28.2488L48.9796 28.5856L48.834 28.7554L48.497 29.0936L48.3218 29.262L47.9308 29.5948L47.73 29.7605L47.2946 30.0812L47.0708 30.2402L46.5963 30.546L46.3536 30.6956L45.8481 30.9758L45.0609 31.3652L44.9193 31.4299L44.647 31.5485L44.5163 31.6037L44.2858 31.698L44.1766 31.7398L44.0121 31.7991L43.8679 31.8368H43.8247L43.6522 31.8907L43.3597 32.0187L43.3057 32.047L43.1305 32.1184L43.0321 32.1575L42.776 32.2477L42.6398 32.2949L42.3203 32.4L42.1532 32.4539L41.7865 32.5671L41.4091 32.6816L40.58 32.9174L39.3493 33.2421L39.1942 33.2798L38.9125 33.3405L38.7764 33.3687L38.531 33.4092L38.4124 33.4267L38.2021 33.4455L38.101 33.4523L37.923 33.4496L37.8381 33.4455L37.6912 33.4226L37.6211 33.4078L37.5038 33.3634L37.3919 33.3135L37.2463 33.1491Z" fill="#62AD52"/>
</svg>
