<svg width="32" height="32" viewBox="0 0 32 32" fill="none" xmlns="http://www.w3.org/2000/svg">
<path d="M2.66699 13.3067V12C2.66699 5.33333 5.33366 2.66666 12.0003 2.66666H20.0003C26.667 2.66666 29.3337 5.33333 29.3337 12V20C29.3337 26.6667 26.667 29.3333 20.0003 29.3333H18.667" stroke="#3D5FA7" stroke-width="1.5" stroke-linecap="round" stroke-linejoin="round"/>
<path d="M17.333 14.6667L24.013 7.97334H18.6663" stroke="#3D5FA7" stroke-width="1.5" stroke-linecap="round" stroke-linejoin="round"/>
<path d="M24.0137 7.97334V13.32" stroke="#3D5FA7" stroke-width="1.5" stroke-linecap="round" stroke-linejoin="round"/>
<path d="M14.667 21.5333V25.1333C14.667 28.1333 13.467 29.3333 10.467 29.3333H6.86699C3.86699 29.3333 2.66699 28.1333 2.66699 25.1333V21.5333C2.66699 18.5333 3.86699 17.3333 6.86699 17.3333H10.467C13.467 17.3333 14.667 18.5333 14.667 21.5333Z" stroke="#3D5FA7" stroke-width="1.5" stroke-linecap="round" stroke-linejoin="round"/>
</svg>
