<svg width="24" height="25" viewBox="0 0 24 25" fill="none" xmlns="http://www.w3.org/2000/svg">
<path d="M18 7.43683C17.94 7.42683 17.87 7.42683 17.81 7.43683C16.43 7.38683 15.33 6.25683 15.33 4.85683C15.33 3.42683 16.48 2.27682 17.91 2.27682C19.34 2.27682 20.49 3.43683 20.49 4.85683C20.48 6.25683 19.38 7.38683 18 7.43683Z" stroke="black" stroke-opacity="0.56" stroke-width="1.5" stroke-linecap="round" stroke-linejoin="round"/>
<path d="M16.97 14.7168C18.34 14.9468 19.85 14.7068 20.91 13.9968C22.32 13.0568 22.32 11.5168 20.91 10.5768C19.84 9.86683 18.31 9.62683 16.94 9.86683" stroke="black" stroke-opacity="0.56" stroke-width="1.5" stroke-linecap="round" stroke-linejoin="round"/>
<path d="M5.96998 7.43683C6.02998 7.42683 6.09998 7.42683 6.15998 7.43683C7.53998 7.38683 8.63998 6.25683 8.63998 4.85683C8.63998 3.42683 7.48998 2.27682 6.05998 2.27682C4.62998 2.27682 3.47998 3.43683 3.47998 4.85683C3.48998 6.25683 4.58998 7.38683 5.96998 7.43683Z" stroke="black" stroke-opacity="0.56" stroke-width="1.5" stroke-linecap="round" stroke-linejoin="round"/>
<path d="M7 14.7168C5.63 14.9468 4.12 14.7068 3.06 13.9968C1.65 13.0568 1.65 11.5168 3.06 10.5768C4.13 9.86683 5.66 9.62683 7.03 9.86683" stroke="black" stroke-opacity="0.56" stroke-width="1.5" stroke-linecap="round" stroke-linejoin="round"/>
<path d="M12 14.9068C11.94 14.8968 11.87 14.8968 11.81 14.9068C10.43 14.8568 9.32996 13.7268 9.32996 12.3268C9.32996 10.8968 10.48 9.74683 11.91 9.74683C13.34 9.74683 14.49 10.9068 14.49 12.3268C14.48 13.7268 13.38 14.8668 12 14.9068Z" stroke="black" stroke-opacity="0.56" stroke-width="1.5" stroke-linecap="round" stroke-linejoin="round"/>
<path d="M9.08997 18.0568C7.67997 18.9968 7.67997 20.5368 9.08997 21.4768C10.69 22.5468 13.31 22.5468 14.91 21.4768C16.32 20.5368 16.32 18.9968 14.91 18.0568C13.32 16.9968 10.69 16.9968 9.08997 18.0568Z" stroke="black" stroke-opacity="0.56" stroke-width="1.5" stroke-linecap="round" stroke-linejoin="round"/>
</svg>
