<svg width="23" height="38" viewBox="0 0 23 38" fill="none" xmlns="http://www.w3.org/2000/svg">
<path d="M4.21709 4.33491C2.62599 6.03301 1.62938 8.50667 1.66808 10.8334C1.74889 15.6956 3.94052 17.5361 7.44534 24.228C8.70784 27.1727 10.0255 30.2886 11.2787 35.4491C11.4529 36.2103 11.6228 36.9174 11.7013 36.9786C11.7799 37.04 11.9498 36.3304 12.1239 35.5691C13.3771 30.4086 14.6948 27.2952 15.9573 24.3505C19.4621 17.6587 21.6537 15.8181 21.7346 10.9559C21.7733 8.62917 20.7742 6.15304 19.1831 4.45494C17.3655 2.51514 14.6241 1.07955 11.7013 1.01952C8.77859 0.959448 6.03466 2.39512 4.21709 4.33491Z" fill="#D32F2F" fill-opacity="0.08"/>
<path d="M11.7013 14.8529C13.8214 14.8529 15.5401 13.1342 15.5401 11.0141C15.5401 8.89405 13.8214 7.17538 11.7013 7.17538C9.58125 7.17538 7.86255 8.89405 7.86255 11.0141C7.86255 13.1342 9.58125 14.8529 11.7013 14.8529Z" fill="#D32F2F"/>
<path d="M12.6106 35.6839C12.5242 36.0614 12.4359 36.4395 12.3583 36.717C12.3205 36.8521 12.2793 36.9854 12.2361 37.0871C12.2181 37.1293 12.1812 37.2123 12.1192 37.2868C12.0909 37.3208 12.0154 37.4054 11.8863 37.4518C11.7161 37.513 11.5313 37.4802 11.3936 37.3727M12.6106 35.6839L11.2787 35.4491M12.6106 35.6839C13.8513 30.5758 15.1533 27.495 16.4092 24.5654C17.2762 22.911 18.0625 21.5548 18.7582 20.3717C18.8538 20.2092 18.9478 20.0497 19.0402 19.8929C19.6204 18.9087 20.137 18.0324 20.573 17.1988C21.5964 15.2422 22.1925 13.4901 22.2345 10.9642C22.2755 8.50159 21.2236 5.90141 19.548 4.11307C17.6512 2.08881 14.7868 0.582787 11.7116 0.519623C8.62175 0.456119 5.74799 1.96979 3.85223 3.99304C2.17642 5.78154 1.12719 8.37929 1.16815 10.8417C1.21013 13.3676 1.80621 15.1197 2.82965 17.0763C3.26563 17.9098 3.78219 18.7861 4.36236 19.7703C4.45479 19.9271 4.54883 20.0866 4.64442 20.2492C5.3402 21.4323 6.12646 22.7885 6.99344 24.4429M12.6106 35.6839L7.44534 24.228M11.3936 37.3727L11.7013 36.9786L11.3939 37.373C11.3938 37.3729 11.3937 37.3728 11.3936 37.3727ZM11.3936 37.3727C11.3235 37.318 11.2823 37.2571 11.2648 37.2298C11.2431 37.1961 11.2267 37.1638 11.215 37.1387C11.1915 37.0885 11.171 37.0336 11.1536 36.9827C11.1181 36.8791 11.0805 36.7477 11.0425 36.6044C10.9663 36.3164 10.8788 35.943 10.7921 35.5639M10.7921 35.5639C10.7923 35.5649 10.7926 35.566 10.7929 35.5671L11.2787 35.4491M10.7921 35.5639C10.7918 35.5628 10.7916 35.5617 10.7913 35.5606L11.2787 35.4491M10.7921 35.5639C9.55134 30.4557 8.24935 27.3724 6.99344 24.4429M11.2787 35.4491C10.0255 30.2886 8.70784 27.1727 7.44534 24.228M6.99344 24.4429C6.99643 24.4486 6.99942 24.4543 7.00241 24.46L7.44534 24.228M6.99344 24.4429C6.99089 24.4369 6.98834 24.431 6.98579 24.425L7.44534 24.228M11.3111 36.7059C11.3111 36.7058 11.3119 36.704 11.3136 36.7009C11.312 36.7045 11.3112 36.706 11.3111 36.7059Z" stroke="#D32F2F"/>
</svg>
