<svg width="16" height="12" viewBox="0 0 16 12" fill="#4bb543" xmlns="http://www.w3.org/2000/svg">
    <path
        d="M6.12667 11.768C6.05097 11.8415 5.96097 11.8999 5.86185 11.9397C5.76272 11.9795 5.65642 12 5.54907 12C5.44171 12 5.33541 11.9795 5.23628 11.9397C5.13716 11.8999 5.04716 11.8415 4.97146 11.768L0.3588 7.31224C0.129061 7.09029 0 6.7893 0 6.47546C0 6.16162 0.129061 5.86063 0.3588 5.63867L0.936404 5.08082C1.16621 4.85893 1.47786 4.73428 1.80281 4.73428C2.12776 4.73428 2.43941 4.85893 2.66922 5.08082L5.54907 7.86221L13.3308 0.346533C13.5606 0.124648 13.8722 0 14.1972 0C14.5221 0 14.8338 0.124648 15.0636 0.346533L15.6412 0.90439C15.8709 1.12634 16 1.42733 16 1.74117C16 2.05501 15.8709 2.35601 15.6412 2.57796L6.12667 11.768Z"
        fill="#4bb543" />
</svg>