<svg width="20" height="19" viewBox="0 0 20 19" fill="none" xmlns="http://www.w3.org/2000/svg">
<path d="M18.4445 4.52508H16.3232V0.66668C16.3232 0.298516 16.0247 0 15.6565 0H4.34348C3.97531 0 3.6768 0.298477 3.6768 0.66668V4.52508H1.55555C0.697812 4.52508 0 5.22293 0 6.08066V12.7878C0 13.6455 0.697812 14.3433 1.55555 14.3433H3.67687V17.922C3.67687 18.2902 3.97535 18.5887 4.34355 18.5887H15.6564C16.0246 18.5887 16.3231 18.2902 16.3231 17.922V14.3433H18.4445C19.3022 14.3433 20 13.6455 20 12.7878V6.08066C20 5.22297 19.3022 4.52508 18.4445 4.52508ZM5.01012 1.33336H14.9899V4.52508H5.01012V1.33336ZM14.9898 17.2553H5.01023C5.01023 17.125 5.01023 11.9622 5.01023 11.8011H14.9898C14.9898 11.9663 14.9898 17.13 14.9898 17.2553ZM18.6667 12.7878C18.6667 12.9104 18.567 13.01 18.4445 13.01H16.3231V11.1345C16.3231 10.7663 16.0246 10.4678 15.6564 10.4678H4.34355C3.97539 10.4678 3.67687 10.7663 3.67687 11.1345V13.01H1.55555C1.43301 13.01 1.33332 12.9104 1.33332 12.7878V6.0807C1.33332 5.95816 1.43301 5.85848 1.55555 5.85848C2.06703 5.85848 17.9452 5.85848 18.4445 5.85848C18.567 5.85848 18.6667 5.95816 18.6667 6.0807V12.7878Z" fill="black" fill-opacity="0.56"/>
<path d="M15.6565 7.10637H13.9595C13.5914 7.10637 13.2928 7.40485 13.2928 7.77305C13.2928 8.14125 13.5913 8.43973 13.9595 8.43973H15.6565C16.0247 8.43973 16.3232 8.14125 16.3232 7.77305C16.3232 7.40485 16.0248 7.10637 15.6565 7.10637Z" fill="black" fill-opacity="0.56"/>
</svg>
