<svg width="24" height="25" viewBox="0 0 24 25" fill="none" xmlns="http://www.w3.org/2000/svg">
<mask id="path-1-outside-1_2069_2047" maskUnits="userSpaceOnUse" x="9.03906" y="9.31515" width="8" height="8" fill="black">
<rect fill="white" x="9.03906" y="9.31515" width="8" height="8"/>
<path d="M15.6032 12.1385L13.7799 10.3151L10.0391 14.056L11.8624 15.8793C12.3657 16.3751 13.0291 16.6518 13.7366 16.6518C15.1874 16.6518 16.3757 15.4635 16.3757 14.0126C16.3757 13.3051 16.0982 12.6418 15.6032 12.1385Z"/>
</mask>
<path d="M15.6032 12.1385L13.7799 10.3151L10.0391 14.056L11.8624 15.8793C12.3657 16.3751 13.0291 16.6518 13.7366 16.6518C15.1874 16.6518 16.3757 15.4635 16.3757 14.0126C16.3757 13.3051 16.0982 12.6418 15.6032 12.1385Z" fill="#3D5FA7"/>
<path d="M15.6032 12.1385L13.7799 10.3151L10.0391 14.056L11.8624 15.8793C12.3657 16.3751 13.0291 16.6518 13.7366 16.6518C15.1874 16.6518 16.3757 15.4635 16.3757 14.0126C16.3757 13.3051 16.0982 12.6418 15.6032 12.1385Z" stroke="#263A63" stroke-width="0.8" mask="url(#path-1-outside-1_2069_2047)"/>
<mask id="path-2-outside-2_2069_2047" maskUnits="userSpaceOnUse" x="6.625" y="6.90182" width="8" height="8" fill="black">
<rect fill="white" x="6.625" y="6.90182" width="8" height="8"/>
<path d="M12.1383 8.67432C11.635 8.17848 10.9717 7.90182 10.2642 7.90182C8.81333 7.90182 7.625 9.09015 7.625 10.541C7.625 11.2485 7.9025 11.9118 8.3975 12.4151L10.0383 14.056L13.7792 10.3151L12.1383 8.67432Z"/>
</mask>
<path d="M12.1383 8.67432C11.635 8.17848 10.9717 7.90182 10.2642 7.90182C8.81333 7.90182 7.625 9.09015 7.625 10.541C7.625 11.2485 7.9025 11.9118 8.3975 12.4151L10.0383 14.056L13.7792 10.3151L12.1383 8.67432Z" fill="#3D5FA7"/>
<path d="M12.1383 8.67432C11.635 8.17848 10.9717 7.90182 10.2642 7.90182C8.81333 7.90182 7.625 9.09015 7.625 10.541C7.625 11.2485 7.9025 11.9118 8.3975 12.4151L10.0383 14.056L13.7792 10.3151L12.1383 8.67432Z" stroke="#3D5FA7" stroke-width="0.8" mask="url(#path-2-outside-2_2069_2047)"/>
<mask id="path-3-outside-3_2069_2047" maskUnits="userSpaceOnUse" x="2.66602" y="16.2768" width="5" height="5" fill="black">
<rect fill="white" x="2.66602" y="16.2768" width="5" height="5"/>
<path d="M4.33281 20.6101C3.99364 20.6101 3.71447 20.3385 3.70781 19.9976L3.66614 17.9143C3.66281 17.746 3.72697 17.5843 3.84531 17.4643C3.96197 17.3443 4.12364 17.2768 4.29114 17.2768H6.37447C6.71947 17.2768 6.99947 17.5568 6.99947 17.9018C6.99947 18.2468 6.71947 18.5268 6.37447 18.5268H4.92864L4.9578 19.9726C4.96447 20.3176 4.6903 20.6035 4.34447 20.6101C4.34114 20.6101 4.33697 20.6101 4.33281 20.6101Z"/>
</mask>
<path d="M4.33281 20.6101C3.99364 20.6101 3.71447 20.3385 3.70781 19.9976L3.66614 17.9143C3.66281 17.746 3.72697 17.5843 3.84531 17.4643C3.96197 17.3443 4.12364 17.2768 4.29114 17.2768H6.37447C6.71947 17.2768 6.99947 17.5568 6.99947 17.9018C6.99947 18.2468 6.71947 18.5268 6.37447 18.5268H4.92864L4.9578 19.9726C4.96447 20.3176 4.6903 20.6035 4.34447 20.6101C4.34114 20.6101 4.33697 20.6101 4.33281 20.6101Z" fill="#3D5FA7"/>
<path d="M4.33281 20.6101C3.99364 20.6101 3.71447 20.3385 3.70781 19.9976L3.66614 17.9143C3.66281 17.746 3.72697 17.5843 3.84531 17.4643C3.96197 17.3443 4.12364 17.2768 4.29114 17.2768H6.37447C6.71947 17.2768 6.99947 17.5568 6.99947 17.9018C6.99947 18.2468 6.71947 18.5268 6.37447 18.5268H4.92864L4.9578 19.9726C4.96447 20.3176 4.6903 20.6035 4.34447 20.6101C4.34114 20.6101 4.33697 20.6101 4.33281 20.6101Z" stroke="#3D5FA7" stroke-width="0.8" mask="url(#path-3-outside-3_2069_2047)"/>
<mask id="path-4-outside-4_2069_2047" maskUnits="userSpaceOnUse" x="16" y="2.94349" width="5" height="5" fill="black">
<rect fill="white" x="16" y="2.94349" width="5" height="5"/>
<path d="M19.7083 7.27682H17.625C17.28 7.27682 17 6.99682 17 6.65182C17 6.30682 17.28 6.02682 17.625 6.02682H19.0833V4.56849C19.0833 4.22349 19.3633 3.94349 19.7083 3.94349C20.0533 3.94349 20.3333 4.22349 20.3333 4.56849V6.65182C20.3333 6.99682 20.0533 7.27682 19.7083 7.27682Z"/>
</mask>
<path d="M19.7083 7.27682H17.625C17.28 7.27682 17 6.99682 17 6.65182C17 6.30682 17.28 6.02682 17.625 6.02682H19.0833V4.56849C19.0833 4.22349 19.3633 3.94349 19.7083 3.94349C20.0533 3.94349 20.3333 4.22349 20.3333 4.56849V6.65182C20.3333 6.99682 20.0533 7.27682 19.7083 7.27682Z" fill="#3D5FA7"/>
<path d="M19.7083 7.27682H17.625C17.28 7.27682 17 6.99682 17 6.65182C17 6.30682 17.28 6.02682 17.625 6.02682H19.0833V4.56849C19.0833 4.22349 19.3633 3.94349 19.7083 3.94349C20.0533 3.94349 20.3333 4.22349 20.3333 4.56849V6.65182C20.3333 6.99682 20.0533 7.27682 19.7083 7.27682Z" stroke="#3D5FA7" stroke-width="0.8" mask="url(#path-4-outside-4_2069_2047)"/>
<mask id="path-5-outside-5_2069_2047" maskUnits="userSpaceOnUse" x="1" y="1.27682" width="20" height="15" fill="black">
<rect fill="white" x="1" y="1.27682" width="20" height="15"/>
<path d="M3.025 15.6101C2.75667 15.6101 2.50833 15.436 2.42667 15.1651C2.14417 14.226 2 13.2543 2 12.2768C2 6.76265 6.48583 2.27682 12 2.27682C15.0742 2.27682 17.9233 3.65432 19.8158 6.05682C20.03 6.32765 19.9825 6.72099 19.7116 6.93432C19.4391 7.14849 19.0466 7.10099 18.8342 6.83015C17.1808 4.73099 14.69 3.52682 12 3.52682C7.17499 3.52682 3.25 7.45182 3.25 12.2768C3.25 13.1318 3.37583 13.9818 3.62333 14.8051C3.72333 15.1351 3.53667 15.4843 3.20583 15.5843C3.14583 15.6018 3.085 15.6101 3.025 15.6101Z"/>
</mask>
<path d="M3.025 15.6101C2.75667 15.6101 2.50833 15.436 2.42667 15.1651C2.14417 14.226 2 13.2543 2 12.2768C2 6.76265 6.48583 2.27682 12 2.27682C15.0742 2.27682 17.9233 3.65432 19.8158 6.05682C20.03 6.32765 19.9825 6.72099 19.7116 6.93432C19.4391 7.14849 19.0466 7.10099 18.8342 6.83015C17.1808 4.73099 14.69 3.52682 12 3.52682C7.17499 3.52682 3.25 7.45182 3.25 12.2768C3.25 13.1318 3.37583 13.9818 3.62333 14.8051C3.72333 15.1351 3.53667 15.4843 3.20583 15.5843C3.14583 15.6018 3.085 15.6101 3.025 15.6101Z" fill="#3D5FA7"/>
<path d="M3.025 15.6101C2.75667 15.6101 2.50833 15.436 2.42667 15.1651C2.14417 14.226 2 13.2543 2 12.2768C2 6.76265 6.48583 2.27682 12 2.27682C15.0742 2.27682 17.9233 3.65432 19.8158 6.05682C20.03 6.32765 19.9825 6.72099 19.7116 6.93432C19.4391 7.14849 19.0466 7.10099 18.8342 6.83015C17.1808 4.73099 14.69 3.52682 12 3.52682C7.17499 3.52682 3.25 7.45182 3.25 12.2768C3.25 13.1318 3.37583 13.9818 3.62333 14.8051C3.72333 15.1351 3.53667 15.4843 3.20583 15.5843C3.14583 15.6018 3.085 15.6101 3.025 15.6101Z" stroke="#3D5FA7" stroke-width="0.8" mask="url(#path-5-outside-5_2069_2047)"/>
<mask id="path-6-outside-6_2069_2047" maskUnits="userSpaceOnUse" x="3.05078" y="7.94247" width="20" height="15" fill="black">
<rect fill="white" x="3.05078" y="7.94247" width="20" height="15"/>
<path d="M12.0008 22.2769C8.92666 22.2769 6.0775 20.8994 4.185 18.4969C3.97083 18.226 4.01833 17.8327 4.28917 17.6194C4.56083 17.4069 4.95417 17.4527 5.16667 17.7235C6.82 19.8227 9.31083 21.0269 12.0008 21.0269C16.8258 21.0269 20.7508 17.1019 20.7508 12.2769C20.7508 11.4219 20.625 10.5719 20.3775 9.74853C20.2775 9.41853 20.4642 9.06937 20.795 8.96937C21.1275 8.86937 21.4733 9.05687 21.5742 9.3877C21.8566 10.3277 22.0008 11.2994 22.0008 12.2769C22.0008 17.791 17.515 22.2769 12.0008 22.2769Z"/>
</mask>
<path d="M12.0008 22.2769C8.92666 22.2769 6.0775 20.8994 4.185 18.4969C3.97083 18.226 4.01833 17.8327 4.28917 17.6194C4.56083 17.4069 4.95417 17.4527 5.16667 17.7235C6.82 19.8227 9.31083 21.0269 12.0008 21.0269C16.8258 21.0269 20.7508 17.1019 20.7508 12.2769C20.7508 11.4219 20.625 10.5719 20.3775 9.74853C20.2775 9.41853 20.4642 9.06937 20.795 8.96937C21.1275 8.86937 21.4733 9.05687 21.5742 9.3877C21.8566 10.3277 22.0008 11.2994 22.0008 12.2769C22.0008 17.791 17.515 22.2769 12.0008 22.2769Z" fill="#3D5FA7"/>
<path d="M12.0008 22.2769C8.92666 22.2769 6.0775 20.8994 4.185 18.4969C3.97083 18.226 4.01833 17.8327 4.28917 17.6194C4.56083 17.4069 4.95417 17.4527 5.16667 17.7235C6.82 19.8227 9.31083 21.0269 12.0008 21.0269C16.8258 21.0269 20.7508 17.1019 20.7508 12.2769C20.7508 11.4219 20.625 10.5719 20.3775 9.74853C20.2775 9.41853 20.4642 9.06937 20.795 8.96937C21.1275 8.86937 21.4733 9.05687 21.5742 9.3877C21.8566 10.3277 22.0008 11.2994 22.0008 12.2769C22.0008 17.791 17.515 22.2769 12.0008 22.2769Z" stroke="#3D5FA7" stroke-width="0.8" mask="url(#path-6-outside-6_2069_2047)"/>
<mask id="path-7-outside-7_2069_2047" maskUnits="userSpaceOnUse" x="6" y="6.27682" width="12" height="12" fill="black">
<rect fill="white" x="6" y="6.27682" width="12" height="12"/>
<path d="M13.9792 17.2768C13.1717 17.2768 12.4133 16.9626 11.8433 16.3918L7.885 12.4335C7.31417 11.8626 7 11.1043 7 10.2976C7 8.63182 8.355 7.27682 10.0208 7.27682C10.8283 7.27682 11.5867 7.59098 12.1567 8.16182L16.115 12.1201C16.6858 12.691 17 13.4493 17 14.256C17 15.9218 15.645 17.2768 13.9792 17.2768ZM10.0208 8.52682C9.04416 8.52682 8.25 9.32098 8.25 10.2976C8.25 10.7701 8.43417 11.2151 8.76833 11.5493L12.7267 15.5076C13.0608 15.8418 13.5067 16.0268 13.9792 16.0268C14.9558 16.0268 15.75 15.2326 15.75 14.256C15.75 13.7835 15.5658 13.3385 15.2317 13.0043L11.2733 9.04598C10.9392 8.71098 10.4933 8.52682 10.0208 8.52682Z"/>
</mask>
<path d="M13.9792 17.2768C13.1717 17.2768 12.4133 16.9626 11.8433 16.3918L7.885 12.4335C7.31417 11.8626 7 11.1043 7 10.2976C7 8.63182 8.355 7.27682 10.0208 7.27682C10.8283 7.27682 11.5867 7.59098 12.1567 8.16182L16.115 12.1201C16.6858 12.691 17 13.4493 17 14.256C17 15.9218 15.645 17.2768 13.9792 17.2768ZM10.0208 8.52682C9.04416 8.52682 8.25 9.32098 8.25 10.2976C8.25 10.7701 8.43417 11.2151 8.76833 11.5493L12.7267 15.5076C13.0608 15.8418 13.5067 16.0268 13.9792 16.0268C14.9558 16.0268 15.75 15.2326 15.75 14.256C15.75 13.7835 15.5658 13.3385 15.2317 13.0043L11.2733 9.04598C10.9392 8.71098 10.4933 8.52682 10.0208 8.52682Z" fill="#3D5FA7"/>
<path d="M13.9792 17.2768C13.1717 17.2768 12.4133 16.9626 11.8433 16.3918L7.885 12.4335C7.31417 11.8626 7 11.1043 7 10.2976C7 8.63182 8.355 7.27682 10.0208 7.27682C10.8283 7.27682 11.5867 7.59098 12.1567 8.16182L16.115 12.1201C16.6858 12.691 17 13.4493 17 14.256C17 15.9218 15.645 17.2768 13.9792 17.2768ZM10.0208 8.52682C9.04416 8.52682 8.25 9.32098 8.25 10.2976C8.25 10.7701 8.43417 11.2151 8.76833 11.5493L12.7267 15.5076C13.0608 15.8418 13.5067 16.0268 13.9792 16.0268C14.9558 16.0268 15.75 15.2326 15.75 14.256C15.75 13.7835 15.5658 13.3385 15.2317 13.0043L11.2733 9.04598C10.9392 8.71098 10.4933 8.52682 10.0208 8.52682Z" stroke="#263A63" stroke-width="0.8" mask="url(#path-7-outside-7_2069_2047)"/>
<mask id="path-8-outside-8_2069_2047" maskUnits="userSpaceOnUse" x="8.58188" y="9.15125" width="6.36396" height="6.36396" fill="black">
<rect fill="white" x="8.58188" y="9.15125" width="6.36396" height="6.36396"/>
<path d="M9.99609 13.3939L13.1144 10.2756L13.9983 11.1594L10.88 14.2778L9.99609 13.3939Z"/>
</mask>
<path d="M9.99609 13.3939L13.1144 10.2756L13.9983 11.1594L10.88 14.2778L9.99609 13.3939Z" fill="#263A63"/>
<path d="M9.99609 13.3939L13.1144 10.2756L13.9983 11.1594L10.88 14.2778L9.99609 13.3939Z" stroke="#3D5FA7" stroke-width="0.8" mask="url(#path-8-outside-8_2069_2047)"/>
</svg>
