<svg width="24" height="25" viewBox="0 0 24 25" fill="none" xmlns="http://www.w3.org/2000/svg">
<path d="M12.4398 22.2781C12.2756 22.2781 12.1156 22.2131 11.9981 22.0947C11.8539 21.9505 11.7889 21.7447 11.8247 21.5447L12.2664 19.0404C12.2889 18.9137 12.3498 18.797 12.4398 18.707L18.6277 12.5191C18.891 12.2558 19.1702 12.0907 19.4577 12.0316C19.8544 11.9474 20.2403 12.0691 20.5428 12.3716L21.5737 13.4025C22.1421 13.9717 22.1421 14.8959 21.5737 15.4651L15.3866 21.653C15.2958 21.743 15.1791 21.8047 15.0533 21.8264L12.549 22.2681C12.5123 22.2747 12.4764 22.2781 12.4398 22.2781ZM13.4632 19.4512L13.2107 20.8821L14.6416 20.6296L20.6895 14.5809C20.7703 14.4992 20.7703 14.3676 20.6895 14.2859L19.6661 13.2625C19.6577 13.2783 19.5952 13.3175 19.5111 13.4017L13.4632 19.4512Z" fill="black" fill-opacity="0.56"/>
<path d="M12.168 19.023L12.168 19.0229C12.194 18.8761 12.2645 18.7409 12.3691 18.6363L18.557 12.4484C18.8301 12.1752 19.1259 11.9978 19.4373 11.9337C19.8693 11.8421 20.2889 11.9762 20.6135 12.3009L21.6444 13.3318L21.6445 13.3318C22.2518 13.9401 22.2518 14.9275 21.6445 15.5358L21.6444 15.5358L15.4574 21.7237L15.457 21.7241C15.3522 21.8279 15.2172 21.8996 15.0705 21.9249C15.0704 21.9249 15.0703 21.9249 15.0703 21.9249L12.5668 22.3665C12.5667 22.3665 12.5666 22.3665 12.5665 22.3665C12.5243 22.3742 12.4826 22.3781 12.4398 22.3781C12.2495 22.3781 12.0639 22.3028 11.9273 22.1653C11.7602 21.9982 11.6847 21.7596 11.7263 21.5272L11.7263 21.5273L12.168 19.023ZM12.168 19.023L11.7263 21.527L12.168 19.023ZM19.6616 13.3994L20.6184 14.3562C20.6184 14.3563 20.6185 14.3563 20.6185 14.3563C20.6606 14.399 20.6606 14.4677 20.6186 14.5104C20.6185 14.5104 20.6185 14.5105 20.6184 14.5106L14.5932 20.5366L13.334 20.7588L13.5562 19.4996L19.5818 13.4724C19.6118 13.4424 19.6388 13.4186 19.6616 13.3994Z" stroke="black" stroke-opacity="0.56" stroke-width="0.2"/>
<path d="M10.3422 19.778H4.29181C3.02757 19.778 2 18.7504 2 17.4861V4.56864C2 3.30439 3.02757 2.27682 4.29181 2.27682H13.8758C15.14 2.27682 16.1676 3.30439 16.1676 4.56864V12.9525C16.1676 13.2975 15.8876 13.5776 15.5425 13.5776C15.1975 13.5776 14.9175 13.2975 14.9175 12.9525V4.56864C14.9175 3.99444 14.45 3.52691 13.8758 3.52691H4.29181C3.71761 3.52691 3.25008 3.99444 3.25008 4.56864V17.4861C3.25008 18.0603 3.71761 18.5279 4.29181 18.5279H10.3422C10.6872 18.5279 10.9672 18.8079 10.9672 19.1529C10.9672 19.4979 10.6872 19.778 10.3422 19.778Z" fill="black" fill-opacity="0.56"/>
<path d="M4.29181 19.878H10.3422C10.7425 19.878 11.0672 19.5532 11.0672 19.1529C11.0672 18.7527 10.7425 18.4279 10.3422 18.4279H4.29181C3.77284 18.4279 3.35008 18.0051 3.35008 17.4861V4.56864C3.35008 4.04966 3.77284 3.62691 4.29181 3.62691H13.8758C14.3947 3.62691 14.8175 4.04966 14.8175 4.56864V12.9525C14.8175 13.3528 15.1423 13.6776 15.5425 13.6776C15.9428 13.6776 16.2676 13.3528 16.2676 12.9525V4.56864C16.2676 3.24916 15.1952 2.17682 13.8758 2.17682H4.29181C2.97234 2.17682 1.9 3.24916 1.9 4.56864V17.4861C1.9 18.8056 2.97234 19.878 4.29181 19.878Z" stroke="black" stroke-opacity="0.56" stroke-width="0.2"/>
<path d="M13.0424 10.194H5.12522C4.7802 10.194 4.50018 9.91399 4.50018 9.56896C4.50018 9.22394 4.7802 8.94392 5.12522 8.94392H13.0424C13.3874 8.94392 13.6674 9.22394 13.6674 9.56896C13.6674 9.91399 13.3874 10.194 13.0424 10.194Z" fill="black" fill-opacity="0.56"/>
<path d="M5.12522 10.294H13.0424C13.4426 10.294 13.7674 9.96921 13.7674 9.56896C13.7674 9.16871 13.4426 8.84392 13.0424 8.84392H5.12522C4.72497 8.84392 4.40018 9.16871 4.40018 9.56896C4.40018 9.96921 4.72497 10.294 5.12522 10.294Z" stroke="black" stroke-opacity="0.56" stroke-width="0.2"/>
<path d="M9.70885 13.5275H5.12522C4.7802 13.5275 4.50018 13.2475 4.50018 12.9025C4.50018 12.5575 4.7802 12.2775 5.12522 12.2775H9.70885C10.0539 12.2775 10.3339 12.5575 10.3339 12.9025C10.3339 13.2475 10.0539 13.5275 9.70885 13.5275Z" fill="black" fill-opacity="0.56"/>
<path d="M5.12522 13.6275H9.70885C10.1091 13.6275 10.4339 13.3028 10.4339 12.9025C10.4339 12.5023 10.1091 12.1775 9.70885 12.1775H5.12522C4.72497 12.1775 4.40018 12.5023 4.40018 12.9025C4.40018 13.3028 4.72497 13.6275 5.12522 13.6275Z" stroke="black" stroke-opacity="0.56" stroke-width="0.2"/>
<path d="M8.87546 6.86045H5.12522C4.7802 6.86045 4.50018 6.58043 4.50018 6.23541C4.50018 5.89038 4.7802 5.61037 5.12522 5.61037H8.87546C9.22049 5.61037 9.5005 5.89038 9.5005 6.23541C9.5005 6.58043 9.22049 6.86045 8.87546 6.86045Z" fill="black" fill-opacity="0.56"/>
<path d="M5.12522 6.96045H8.87546C9.27571 6.96045 9.6005 6.63566 9.6005 6.23541C9.6005 5.83516 9.27571 5.51037 8.87546 5.51037H5.12522C4.72497 5.51037 4.40018 5.83516 4.40018 6.23541C4.40018 6.63566 4.72497 6.96045 5.12522 6.96045Z" stroke="black" stroke-opacity="0.56" stroke-width="0.2"/>
</svg>
