<svg width="24" height="25" viewBox="0 0 24 25" fill="none" xmlns="http://www.w3.org/2000/svg">
<path fill-rule="evenodd" clip-rule="evenodd" d="M12.7922 21.9848C14.1822 23.3738 16.4352 23.3738 17.8252 21.9848L20.2082 19.6018C21.5972 18.2118 21.5972 15.9588 20.2082 14.5688C18.8182 13.1798 16.5652 13.1798 15.1752 14.5688L12.7922 16.9518C11.4032 18.3418 11.4032 20.5948 12.7922 21.9848ZM13.8532 20.9238C13.0492 20.1198 13.0492 18.8168 13.8532 18.0128L16.2362 15.6298C17.0402 14.8258 18.3432 14.8258 19.1472 15.6298C19.9512 16.4338 19.9512 17.7368 19.1472 18.5408L16.7642 20.9238C15.9602 21.7278 14.6572 21.7278 13.8532 20.9238Z" fill="black" fill-opacity="0.56"/>
<path fill-rule="evenodd" clip-rule="evenodd" d="M13.9839 16.8208L17.9559 20.7928C18.2479 21.0858 18.7239 21.0858 19.0159 20.7928C19.3089 20.5008 19.3089 20.0248 19.0159 19.7328L15.0439 15.7608C14.7519 15.4678 14.2759 15.4678 13.9839 15.7608C13.6909 16.0528 13.6909 16.5288 13.9839 16.8208Z" fill="black" fill-opacity="0.56"/>
<path fill-rule="evenodd" clip-rule="evenodd" d="M20.25 11.7768V8.69082C20.25 8.22682 20.066 7.78183 19.737 7.45382C18.719 6.43582 15.341 3.05782 14.323 2.03982C13.995 1.71082 13.55 1.52682 13.086 1.52682C11.816 1.52682 7.916 1.52682 5.5 1.52682C4.771 1.52682 4.071 1.81683 3.555 2.33183C3.04 2.84783 2.75 3.54782 2.75 4.27682V20.2768C2.75 21.0058 3.04 21.7058 3.555 22.2218C4.071 22.7368 4.771 23.0268 5.5 23.0268H10.5C10.914 23.0268 11.25 22.6908 11.25 22.2768C11.25 21.8628 10.914 21.5268 10.5 21.5268H5.5C5.168 21.5268 4.851 21.3948 4.616 21.1608C4.382 20.9258 4.25 20.6088 4.25 20.2768V4.27682C4.25 3.94482 4.382 3.62782 4.616 3.39282C4.851 3.15882 5.168 3.02682 5.5 3.02682H13.086C13.152 3.02682 13.216 3.05282 13.263 3.09982L18.677 8.51383C18.724 8.56083 18.75 8.62482 18.75 8.69082V11.7768C18.75 12.1908 19.086 12.5268 19.5 12.5268C19.914 12.5268 20.25 12.1908 20.25 11.7768Z" fill="black" fill-opacity="0.56"/>
<path fill-rule="evenodd" clip-rule="evenodd" d="M12.75 2.77683V6.27683C12.75 7.79583 13.981 9.02683 15.5 9.02683H19C19.414 9.02683 19.75 8.69083 19.75 8.27683C19.75 7.86283 19.414 7.52683 19 7.52683H15.5C14.81 7.52683 14.25 6.96683 14.25 6.27683V2.77683C14.25 2.36282 13.914 2.02682 13.5 2.02682C13.086 2.02682 12.75 2.36282 12.75 2.77683Z" fill="black" fill-opacity="0.56"/>
<path fill-rule="evenodd" clip-rule="evenodd" d="M6.5 11.0268H10.5C10.914 11.0268 11.25 10.6908 11.25 10.2768C11.25 9.86282 10.914 9.52682 10.5 9.52682H6.5C6.086 9.52682 5.75 9.86282 5.75 10.2768C5.75 10.6908 6.086 11.0268 6.5 11.0268Z" fill="black" fill-opacity="0.56"/>
<path fill-rule="evenodd" clip-rule="evenodd" d="M6.5 15.0268H10.5C10.914 15.0268 11.25 14.6908 11.25 14.2768C11.25 13.8628 10.914 13.5268 10.5 13.5268H6.5C6.086 13.5268 5.75 13.8628 5.75 14.2768C5.75 14.6908 6.086 15.0268 6.5 15.0268Z" fill="black" fill-opacity="0.56"/>
</svg>
