<svg width="25" height="24" viewBox="0 0 25 24" fill="none" xmlns="http://www.w3.org/2000/svg">
<path d="M9.24609 12L11.6561 14.42L16.4861 9.57999" stroke="black" stroke-opacity="0.56" stroke-width="1.5" stroke-linecap="round" stroke-linejoin="round"/>
<path d="M11.6161 2.45001C12.3061 1.86001 13.4361 1.86001 14.1361 2.45001L15.7161 3.81001C16.0161 4.07001 16.5761 4.28001 16.9761 4.28001H18.6761C19.7361 4.28001 20.6061 5.15001 20.6061 6.21001V7.91001C20.6061 8.30001 20.8161 8.87001 21.0761 9.17001L22.4361 10.75C23.0261 11.44 23.0261 12.57 22.4361 13.27L21.0761 14.85C20.8161 15.15 20.6061 15.71 20.6061 16.11V17.81C20.6061 18.87 19.7361 19.74 18.6761 19.74H16.9761C16.5861 19.74 16.0161 19.95 15.7161 20.21L14.1361 21.57C13.4461 22.16 12.3161 22.16 11.6161 21.57L10.0361 20.21C9.73609 19.95 9.17609 19.74 8.77609 19.74H7.04609C5.98609 19.74 5.11609 18.87 5.11609 17.81V16.1C5.11609 15.71 4.90609 15.15 4.65609 14.85L3.30609 13.26C2.72609 12.57 2.72609 11.45 3.30609 10.76L4.65609 9.17001C4.90609 8.87001 5.11609 8.31001 5.11609 7.92001V6.20001C5.11609 5.14001 5.98609 4.27001 7.04609 4.27001H8.77609C9.16609 4.27001 9.73609 4.06001 10.0361 3.80001L11.6161 2.45001Z" stroke="black" stroke-opacity="0.56" stroke-width="1.5" stroke-linecap="round" stroke-linejoin="round"/>
</svg>
