<svg width="25" height="24" viewBox="0 0 25 24" fill="none" xmlns="http://www.w3.org/2000/svg">
<path fill-rule="evenodd" clip-rule="evenodd" d="M19.0274 10.4663C18.822 10.3315 18.6365 10.1697 18.4762 9.98557C18.4881 9.72918 18.5408 9.47616 18.6324 9.23564L18.6325 9.23514C18.8047 8.66515 19.0189 7.95592 18.6057 7.40092C18.1896 6.84157 17.4294 6.82257 16.8185 6.80731L16.8178 6.80729C16.5607 6.81733 16.3036 6.79029 16.0546 6.72706C15.9177 6.51708 15.8132 6.28853 15.7444 6.04876C15.5405 5.481 15.2865 4.77434 14.6064 4.55819C13.9474 4.34878 13.356 4.74566 12.8343 5.09569L12.8318 5.0974C12.6219 5.26126 12.3862 5.39079 12.134 5.48097C11.8816 5.39089 11.6459 5.26135 11.4359 5.0974C10.9137 4.74664 10.3212 4.34939 9.66135 4.55819C8.98135 4.77434 8.72744 5.48064 8.52333 6.04853C8.45467 6.28711 8.35129 6.51479 8.21636 6.7246C7.96659 6.78975 7.70817 6.81756 7.44988 6.80706L7.44933 6.80707C6.83843 6.82231 6.07818 6.84128 5.66197 7.40067C5.24872 7.95601 5.46298 8.6653 5.63519 9.23536L5.63531 9.23575C5.72586 9.47498 5.77902 9.7262 5.79302 9.98093C5.63334 10.1677 5.44716 10.3312 5.24012 10.4663C4.74712 10.834 4.13379 11.2917 4.13379 11.9999C4.13379 12.7082 4.74713 13.1659 5.24023 13.5335C5.44561 13.6684 5.6311 13.8301 5.79149 14.0143C5.77959 14.2707 5.72687 14.5237 5.63525 14.7642L5.63511 14.7647C5.46294 15.3346 5.24869 16.0439 5.66192 16.5989C6.07806 17.1582 6.83813 17.1773 7.44902 17.1926L7.44986 17.1926C7.70689 17.1825 7.96404 17.2096 8.21303 17.2728C8.34993 17.4828 8.45446 17.7113 8.52325 17.9511L8.52333 17.9513C8.72743 18.5191 8.98135 19.2256 9.66142 19.4417C9.78193 19.4804 9.90795 19.5 10.0348 19.5C10.5462 19.5 11.0132 19.1864 11.4348 18.9033L11.436 18.9025C11.6459 18.7386 11.8815 18.6091 12.1338 18.5189C12.3862 18.609 12.622 18.7385 12.8319 18.9024C13.3542 19.2532 13.9465 19.6501 14.6065 19.4416C15.2865 19.2255 15.5404 18.5192 15.7445 17.9513C15.8132 17.7127 15.9165 17.485 16.0515 17.2752C16.3012 17.2101 16.5597 17.1823 16.8179 17.1928L16.8185 17.1928C17.4294 17.1775 18.1896 17.1586 18.6059 16.5992C19.0191 16.0438 18.8048 15.3345 18.6326 14.7644L18.6325 14.7641C18.542 14.5249 18.4888 14.2736 18.4748 14.0189C18.6345 13.8321 18.8207 13.6687 19.0277 13.5335C19.5205 13.1659 20.1338 12.7082 20.1338 11.9999C20.1339 11.2917 19.5205 10.834 19.0274 10.4663ZM9.3276 14.152C9.06929 14.4045 9.06929 14.8141 9.3276 15.0666C9.58591 15.3192 10.0047 15.3192 10.263 15.0666L12.1337 13.2374L14.0046 15.0667C14.2629 15.3193 14.6817 15.3193 14.94 15.0667C15.1983 14.8142 15.1983 14.4046 14.94 14.1521L13.0692 12.3227L14.9401 10.4933C15.1984 10.2407 15.1984 9.83116 14.9401 9.57858C14.6818 9.326 14.263 9.326 14.0046 9.57858L12.1337 11.408L10.2629 9.57867C10.0046 9.32609 9.58582 9.32609 9.32752 9.57867C9.06921 9.83125 9.06921 10.2408 9.32752 10.4934L11.1983 12.3227L9.3276 14.152Z" fill="#D32F2F"/>
</svg>
