<svg width="25" height="24" viewBox="0 0 25 24" fill="none" xmlns="http://www.w3.org/2000/svg">
<path d="M16.4456 12C16.4456 13.98 14.8456 15.58 12.8656 15.58C10.8856 15.58 9.28564 13.98 9.28564 12C9.28564 10.02 10.8856 8.42 12.8656 8.42C14.8456 8.42 16.4456 10.02 16.4456 12Z" stroke="black" stroke-opacity="0.56" stroke-width="1.5" stroke-linecap="round" stroke-linejoin="round"/>
<path d="M12.8656 20.27C16.3956 20.27 19.6856 18.19 21.9756 14.59C22.8756 13.18 22.8756 10.81 21.9756 9.4C19.6856 5.8 16.3956 3.72 12.8656 3.72C9.33557 3.72 6.04557 5.8 3.75557 9.4C2.85557 10.81 2.85557 13.18 3.75557 14.59C6.04557 18.19 9.33557 20.27 12.8656 20.27Z" stroke="black" stroke-opacity="0.56" stroke-width="1.5" stroke-linecap="round" stroke-linejoin="round"/>
</svg>
